<?xml version="1.0" standalone="no"?>
<!DOCTYPE svg PUBLIC "-//W3C//DTD SVG 1.1//EN" "http://www.w3.org/Graphics/SVG/1.1/DTD/svg11.dtd" >
<svg xmlns="http://www.w3.org/2000/svg" xmlns:xlink="http://www.w3.org/1999/xlink" version="1.1">
<metadata>
Created by FontForge 20190801 at Fri Nov  6 23:46:27 2020
 By Unknown
Ballinese (Supersemar Letter). 2020. All Rights Reserved
</metadata>
<defs>
<font id="Ballinese" horiz-adv-x="337" >
  <font-face 
    font-family="Ballinese"
    font-weight="400"
    font-stretch="normal"
    units-per-em="1000"
    panose-1="2 0 5 0 0 0 0 0 0 0"
    ascent="800"
    descent="-200"
    x-height="255"
    cap-height="748"
    bbox="-756 -483 2393 976"
    underline-thickness="50"
    underline-position="-100"
    unicode-range="U+001D-E004"
  />
<missing-glyph horiz-adv-x="500" 
 />
    <glyph glyph-name="plus_plus" unicode="&#x2b;&#x2b;" horiz-adv-x="2393" 
d="M2389 207h-7v8c0 -3 5 -6 7 -8zM2377 203l-6 1l11 3c0 -2 -1 -4 -5 -4zM2323 234c-4 4 -11 7 -16 7l18 2l-1 -1l1 -6zM2357 211l-4 1l-1 8c4 -3 4 -8 5 -9zM2382 179l-3 5c0 5 9 5 14 7c-11 -3 -6 -9 -11 -12zM2368 196l-9 5l12 1c-3 -1 -2 -4 -3 -6zM2359 201l-5 -1l2 2
zM2314 220c-7 0 -11 2 -16 5c5 0 9 0 14 2l4 -3zM2319 216l-7 2l2 2c2 -2 7 -2 9 -2zM2289 232l-7 4l2 1zM2331 219l-7 -1l6 3zM2223 195l3 7l-12 -2v2c0 10 17 10 17 16l-1 2c7 -4 2 -9 16 -9c2 1 3 2 3 4c0 4 -10 11 -12 14c9 3 9 5 11 7l4 -22c0 -8 -2 -15 -8 -16
c-3 3 -6 5 -10 5c-5 0 -9 -4 -11 -8zM2270 231l-22 6c1 2 3 4 10 6zM2280 211h-4l-1 3c0 6 8 7 12 13l-18 5h20v-3h-4l2 -2l2 5l9 -7c-4 2 -7 2 -11 2l3 -3c0 -3 -5 -4 -5 -5l9 -3c-8 0 -8 -5 -14 -5zM2369 168h-2l2 2v-2zM2369 170l2 4l-9 1c-3 7 -3 11 -3 16
c0 -4 10 -11 15 -19c0 -2 -4 -2 -5 -2zM2314 193l-7 7h18c-1 -2 -2 -5 -7 -5h-4v-2zM2246 241l-8 -1l12 8zM2226 244l-4 4l6 3zM1729 286c-2 2 -5 2 -9 2l-2 9c2 0 8 -6 11 -11zM1396 236l-2 2l6 5zM915 152l4 7l2 -5c0 -1 -2 -2 -6 -2zM2017 269l-11 8l13 -7zM1992 275
l-4 2c2 2 5 3 8 3l10 -3c-7 0 -12 0 -14 -2zM279 85l-1 -1c-1 0 -1 1 -1 1h2zM2159 227c1 1 1 2 2 3c0 0 -1 -1 -2 -3zM2154 259l-3 1h4zM2146 260l-7 2l6 -1zM617 148l1 4c0 -2 2 -2 2 -2zM1604 207l9 27l7 -21l-5 2c-4 0 -6 -2 -11 -8zM101 68c-9 0 -21 7 -27 7
c-3 0 -5 0 -7 -4c0 15 -21 26 -21 40l-6 -2c2 9 25 5 27 16l25 -7v7c0 2 0 2 -3 2l7 5l-4 2l31 -4c47 0 89 18 141 18l-2 6l7 -2c4 0 2 9 6 12l19 -14l2 4l-2 10l22 2h30c9 0 18 0 27 4c4 0 4 -4 4 -6c0 -3 0 -5 5 -5l-2 5c0 8 20 9 20 15c14 -13 34 0 34 -20c7 0 9 2 9 5
c0 2 -2 6 -4 6c13 3 25 3 34 12c14 0 31 4 52 4c9 0 18 -2 23 -7l-5 5c0 4 7 4 11 7l-6 9c15 0 20 2 20 2c4 0 0 -7 9 -7c16 0 11 9 25 14c0 -2 -9 -7 -9 -9s2 -5 9 -5c0 3 7 12 11 12l5 -3c-7 0 -9 -2 -9 -4l4 -5l14 3l-5 11c21 2 41 2 62 2c20 0 43 0 63 2c0 -2 2 -4 7 -4
l11 2c10 0 12 -3 12 -9c-5 0 -7 0 -7 -2c0 -3 9 -7 16 -7l-3 2c0 5 5 9 5 12c0 2 -2 4 -9 4l16 9c2 12 9 14 20 14l34 -2c7 0 11 0 16 2c-2 0 -2 -2 -2 -5c7 5 16 5 22 5l34 -2l3 -7c13 11 18 13 31 13h14v-6c7 6 11 13 27 13v-2l25 2c0 -7 2 -7 7 -7c7 0 23 9 32 9
c4 0 9 -2 11 -9c5 7 23 12 32 16c0 -2 0 -2 2 -2c2 4 5 4 9 4c9 0 18 -4 27 -4c4 0 5 1 5 4l-2 7l6 -2c14 0 28 11 32 11c13 0 6 -8 12 -13c4 0 4 4 4 7v4c0 2 2 5 5 5l6 -3c-4 -2 -4 1 -4 -4c8 0 21 -23 29 -23l-4 5l4 2c9 0 21 -9 28 -9c2 0 4 0 4 4l-2 9l13 -2
c23 0 27 -4 34 -4c3 0 5 2 7 6l-2 3h27l7 2s2 0 2 -2c0 7 9 7 21 7h18c-5 0 -7 -3 -7 -5s2 -2 5 -5c2 5 4 7 9 7l9 -4c2 13 2 27 20 29c-4 -2 -7 -4 -7 -7l9 3l-2 -9c5 4 9 6 14 6l13 -2l9 2l-2 -4l5 -7c0 5 2 5 2 5c5 0 11 -5 14 -5l2 2l-2 5c13 -5 27 -5 40 -5h25
c20 0 28 -3 34 -9c5 0 12 7 16 7l-2 -7c16 12 14 5 32 16l-5 -7c0 -4 5 -6 9 -9l12 14l2 -11l18 2c5 9 25 9 27 16c2 -5 5 -7 9 -7l5 2c2 0 4 -2 7 -7l6 7l-2 7l2 2h5v-9c7 2 11 5 16 5l-7 2l9 -2v-3c12 0 8 -2 23 -2c11 0 22 7 34 7c7 0 11 0 16 -5h-9c18 0 22 -6 36 -9
l9 3v6c22 4 29 -2 34 12l32 2c11 0 20 -2 22 -11l5 2c7 0 16 -5 23 -5h2l2 -6h25c9 -5 18 -7 25 -7l25 2l11 -2v-2c7 2 14 2 21 2l-3 -2s7 4 12 4c21 0 20 -4 36 -7c-4 0 -7 -2 -7 -4c0 -3 7 -7 7 -14l9 5l-2 -5l2 -2c7 4 23 0 27 7c0 2 -2 4 -4 6l9 3v4
c11 -13 18 -7 23 -20c0 4 0 4 4 4h14c4 0 4 1 4 5c5 -5 5 -5 7 -5l2 -6l-9 2l-25 -9l7 -9c0 -3 -2 -3 -4 -3c-13 4 -7 2 -19 7c4 0 9 -1 9 -4v11c-6 2 -13 2 -18 2l-18 -6l2 -3c0 -2 -9 -2 -9 -7l3 -2h6c0 -3 -1 -5 -9 -9c-22 9 -61 10 -70 18l9 -2l9 2l-11 7
c9 -2 14 -9 23 -9c7 0 9 5 9 16c-5 13 -2 6 -16 11c-11 0 -14 -13 -30 -13l-9 2v4s0 3 -4 3c-25 0 -36 -17 -41 -32c4 2 13 7 20 7c5 0 7 -3 7 -7c-9 -2 -23 -5 -23 -11l-2 4c0 5 9 2 9 5l-2 4c-5 0 -9 -4 -11 -4l2 2c0 10 -33 15 -57 18l-2 9c-12 -3 -20 -16 -20 -27
c-13 0 -14 4 -23 4l7 -4l-3 -1c-3 0 -7 0 -9 -6c-4 0 -4 2 -4 5l-3 4c-2 0 -6 -4 -6 -7l-3 5c0 7 12 14 12 23c-6 10 -30 22 -30 22c-2 -4 -4 -16 -4 -29c0 -12 2 -25 4 -32c-4 0 -11 8 -20 14c-10 0 -13 -7 -23 -7l9 4h-4c-7 0 -14 0 -16 -2l7 18c-2 4 0 5 -5 5
c-18 0 -34 -18 -34 -30l30 12c0 -9 -21 -9 -21 -21l-25 5c4 0 9 3 9 7c-11 0 -7 2 -13 6c13 12 38 41 47 55l-13 -5l-5 5c-18 -7 -34 -43 -38 -52c-5 2 -7 6 -7 13l2 14c-20 0 -21 -25 -41 -25l7 -5h-16c-2 0 -4 0 -4 -2l-5 14l2 7l-18 -19c3 3 3 19 3 21
c-5 0 -10 -9 -10 -16l3 -5c-16 12 -12 7 -23 19c-2 0 -2 -3 -2 -5l4 -14l-9 -2l-9 2c7 3 9 9 9 19l-2 29l-34 -48c2 3 4 19 4 21c-2 -7 -11 -12 -24 -14c-12 -2 -25 -2 -34 -2h2c0 4 -7 7 -14 7l-7 -3c3 3 5 3 7 3l-4 2c-9 0 -12 -16 -21 -16l-4 2c11 0 13 7 13 12
c-12 -6 -27 -1 -27 -16c-7 2 -11 0 -11 9l-23 -11l2 2c0 2 -2 4 -6 4c9 0 20 9 27 9c2 0 4 -2 7 -4l-3 16c0 2 0 7 3 9c-25 -7 -39 -25 -55 -36l-20 6l-3 -6l-4 13c-2 -2 -2 -4 -5 -4l3 4l-7 -4c0 6 2 13 7 20l6 -7c3 5 5 7 5 12c0 2 -2 4 -5 4c0 0 -2 0 -2 -2l2 11l-18 -7
c3 -2 7 -4 9 -9c-6 -6 -15 -13 -15 -18c0 -2 2 -4 4 -7l-14 7c-15 -13 -11 -11 -29 -20v11l-9 -4c-9 0 -18 9 -23 9c-2 0 -4 -3 -4 -5c-12 -2 -5 -9 -12 -13v4l-9 -9l3 7l-5 2c-14 -4 -20 -9 -32 -9c-9 0 -13 0 -13 -5l4 -9c0 -2 0 -2 -4 -2c-3 7 -5 16 -14 16
c-7 -5 -4 -9 -14 -14v12l-9 -3c-4 0 -4 3 -6 7c-5 -4 -7 -4 -9 -4h-5l-5 -5c0 -7 16 -16 19 -20c-14 9 -21 2 -30 16l11 2c-4 2 -9 2 -11 2c-9 0 -11 -4 -14 -4c-2 0 -4 0 -9 6c7 0 16 5 16 10l-2 2l-11 -5c0 3 2 3 2 3l-2 2c-17 -17 -9 -11 -32 -14l2 2l-16 -6l3 2
c0 2 -5 4 -9 4c-16 0 -14 -15 -21 -15l-7 2h5l-7 4c0 -22 -41 -6 -41 -27l-4 5c0 2 6 2 16 11l-12 5c5 2 7 0 12 4l-7 2c-12 0 -21 -9 -25 -13c-7 2 0 11 -9 11c-10 0 -12 -3 -12 -7l5 -9c0 -2 -2 -4 -5 -4l-11 11c-7 -4 -11 -7 -18 -7l-23 3c-17 -5 -29 -16 -45 -16
c-5 0 -6 1 -11 11l-19 -11c9 4 7 11 9 18l-13 -7l2 5l-2 4l-18 -14c0 -2 2 -2 4 -2l-16 -2l-6 2l2 7l4 -2c5 0 7 4 9 7h-9l-2 6c-9 -2 -11 -6 -11 -11v-5h-9c-7 0 -12 0 -18 -6l2 9l-11 -3l9 12c-19 0 -6 -14 -28 -14v9c-6 -4 -9 -11 -13 -11l-5 2l-2 -2c0 -5 7 -7 7 -9
l-9 -2l-18 6l-3 -2c0 -4 7 -7 12 -7c-21 0 -21 16 -37 16l-11 -4c5 -3 5 -5 5 -7v-2c0 -3 0 -3 4 -3h7l-7 -2l-16 2c-2 0 -7 0 -9 -2l7 11c-5 0 -9 -4 -11 -6v9c-5 -7 -9 -7 -14 -7h-7c-4 0 -9 -2 -11 -9v4l-16 -2c11 11 32 5 32 18l-14 -2l9 9l-7 2c-13 0 -22 -13 -29 -18
l18 7c0 -14 -9 -5 -14 -14l-20 -2c-18 0 -27 18 -34 18s-18 -7 -18 -11l2 -5l9 3c5 0 9 -3 9 -7l-2 -5l-9 7c-9 0 -16 -9 -30 -9l-11 2l5 7c0 2 -5 5 -5 7l2 2c-11 -2 -11 -4 -15 -11l-5 4c-14 -13 -2 -11 -25 -22l2 2c0 7 -9 7 -9 11c-12 0 -14 -6 -29 -9l-14 2l-13 -4
l2 -5c-27 -13 -64 -11 -91 -20l9 -2c-5 0 -15 -5 -27 -5c0 2 4 2 4 2c0 5 -4 12 -11 12l-2 -7l-2 4c-5 0 -5 -2 -5 -4v-5s0 -2 -2 -2c-2 7 -9 7 -16 7l-30 -2c-6 0 -11 0 -13 4c0 -3 0 -7 4 -7l7 3l5 -3l-3 -4c-2 2 -4 4 -11 4l2 -6h-47l-32 -3c-7 0 -9 -2 -14 -6l3 4l-3 2
c-4 -6 -9 -9 -13 -9zM570 195l-2 3l-2 -3h4zM1169 187l9 4l-8 3c-1 0 -2 -1 -3 -6zM1414 223l4 2l-5 1l-6 -1zM1884 209c-5 0 -6 2 -6 4zM2189 254l-9 2h9v-2zM2264 193l-6 3c0 2 1 2 3 2h3v-5zM2205 225l-6 -1c-3 0 -5 1 -5 5l9 2l3 -2zM2131 258l-7 2c0 1 8 5 10 5
c0 -2 -1 -7 -3 -7zM2195 208l-5 2l4 6zM2155 218l-9 4l14 -2c-2 0 -5 0 -5 -2zM2181 208l-10 4c7 -2 5 0 10 -4zM2031 232h-2c-3 0 -4 1 -4 3v1l11 1c0 -1 1 -1 1 -1c0 -2 -4 -2 -6 -4zM2062 208l1 10l5 -7zM2033 204l-7 3c0 1 8 3 9 4l4 -2c0 -1 -6 -3 -6 -5zM1871 237h-3
l3 17v-17zM1722 202h-4v5c0 6 4 4 9 6c0 -2 7 -2 7 -4v-2c-8 0 -1 -5 -12 -5zM1202 172l-7 5c4 0 6 0 8 -3zM1089 171h-2l-3 9zM992 150v6c2 0 5 -4 9 -4z" />
    <glyph glyph-name="equal_equal" unicode="&#x3d;&#x3d;" horiz-adv-x="2264" 
d="M56 42l1 5l-2 2l-4 -1s-5 -2 -5 -6h10zM62 38l4 1h-2c-1 0 -2 0 -2 -1zM61 35c1 0 1 2 1 2l-3 -1zM43 23l8 3c-4 0 -5 1 -5 2l3 5c-6 -2 -9 -6 -9 -8c0 -1 1 -2 3 -2zM99 60v9c0 -5 -5 -7 -5 -9h5zM103 56l7 2l-11 2c1 -3 2 -4 4 -4zM73 28l2 2h-19zM134 80l-11 5
c8 -4 4 -3 11 -5zM151 89c4 5 9 7 16 7l-18 2l1 -2l-1 -4zM122 65l3 2l1 7c-4 -3 -4 -7 -4 -9zM126 67l7 2h-5c-1 0 -2 0 -2 -2zM101 33l2 5c0 5 -8 4 -11 6c9 -2 4 -7 9 -11zM113 51l8 5h-11c3 0 2 -3 3 -5zM125 56l-2 2l-2 -2h4zM162 78c5 0 9 2 14 7c-7 -4 -11 0 -16 -5
c0 -1 1 -2 2 -2zM146 73l-2 3c0 -3 0 -3 2 -3zM156 74c5 2 6 -1 6 4l-9 -2zM183 90l5 5h-1c-1 0 -3 -3 -4 -5zM146 76v1l-2 -1h2zM145 75h7l-6 2zM246 62l-2 7l11 -2c0 10 -18 9 -18 16v2c-5 -5 0 -9 -14 -9l-2 2c0 4 10 10 11 14c-9 2 -11 4 -11 6c-2 -5 -3 -12 -3 -18
c0 -9 2 -17 8 -18c3 4 7 6 11 6s8 -2 9 -6zM201 91l19 8c-1 1 -3 3 -10 4c-4 -6 -6 -9 -9 -12zM190 72l6 1l1 2c0 5 -8 6 -12 12c9 2 13 2 16 5l-18 -3l4 -1l-4 1c-3 -2 -5 -4 -7 -4h9l-4 -4c0 -1 5 -2 5 -3l-6 -2c5 0 5 -4 10 -4zM115 24l1 2h-1v-2zM115 26l-3 3l7 1
c2 7 2 12 2 16c0 -3 -5 -10 -13 -16c0 -3 5 -4 7 -4zM162 51l5 9l-14 -2c2 -2 2 -5 4 -5l5 2v-4zM229 102l-11 7c5 -8 2 -6 11 -7zM240 107l3 4l-5 2zM704 189v7c0 2 0 2 -1 2l-10 -9h11zM1005 170l2 2l-6 4zM1455 132l-5 7v-4c0 -2 1 -3 5 -3zM430 147c3 0 6 5 11 8
c-4 -2 -9 -2 -14 -7zM1276 212c0 0 0 2 -3 2zM452 155l5 2l-7 3c-3 0 -6 -2 -9 -5h11zM312 128c2 2 4 2 7 2h-7v-2zM1731 154l-2 3c-2 0 -2 0 -2 -2zM815 126l-11 22l-2 -18l4 1zM330 85c-2 2 -9 2 -9 7h7c0 6 -9 6 -9 9l2 2l-14 4c-7 0 -11 0 -18 -4v-9c0 2 5 4 9 4h2
c-13 0 -6 -2 -18 -9c-2 0 -4 3 -6 5l6 7c-4 2 -9 4 -16 4l-6 2l-9 -2l2 5c2 0 2 0 4 7c0 -5 0 -5 5 -5l14 2c2 0 2 0 2 -2v-2c4 11 13 7 20 20v-4l7 2l2 -5c-2 0 -2 -2 -4 -4l13 -5h14l2 3s-2 0 -2 2v2l7 -4c0 4 7 9 7 13c0 2 -3 2 -7 2c16 3 18 12 31 12c19 0 10 -3 28 -3
v3l25 2c11 0 20 0 31 9h12c2 0 7 0 11 2l2 7c9 0 16 5 25 5h3c4 16 36 9 49 13v-9l16 2l16 -2v-7c21 3 23 9 41 9l-2 3l-5 -3c5 5 9 7 16 7c9 0 20 -4 30 -4l11 4h9c0 7 2 3 7 7c-2 -2 -2 -4 -5 -4c3 0 9 0 14 -3l4 9l3 -2l-3 -7l7 -4c0 4 2 4 5 4h7c2 0 4 0 6 5
c3 -5 21 -2 28 -12l9 3c2 0 4 0 6 -3l3 10l11 -12c5 5 7 7 7 12c0 2 0 4 -5 6c18 -11 14 -4 30 -13v7c2 0 9 -5 13 -5c14 14 62 7 91 20v-6c2 0 9 6 14 6l2 -4l4 7l-4 2l23 2c4 0 6 0 11 -4v9c0 -3 2 -3 5 -3v3l-5 2c16 0 18 -9 20 -23c3 3 5 3 9 3c3 0 5 0 10 -5l2 5
c0 2 0 4 -5 4l23 2c4 0 11 0 11 -4h32c2 -5 5 -7 7 -7s4 2 11 2h2v3l19 2c2 0 6 0 13 4l-2 -9c0 -4 2 -4 4 -4c5 0 16 9 23 9h5l-5 -5c11 0 21 23 27 25l-4 3l7 2c2 0 2 -2 2 -5c0 -4 0 -9 7 -9c0 1 1 2 1 4c0 1 -1 3 -1 4c0 3 1 6 6 6c7 0 19 -9 30 -9l9 4l-2 -7
c0 -2 2 -2 4 -4c9 0 16 7 25 7c5 0 7 0 9 -5l3 5c9 -5 25 -7 29 -14c2 7 7 9 11 9c12 0 23 -4 30 -4c4 0 7 2 7 6h22l-2 3c16 0 18 -3 27 -9v4l16 2c7 0 14 -4 25 -11l2 9c9 0 19 5 37 5c6 0 11 0 16 -3c0 0 0 3 -3 3l12 -3c13 0 29 7 40 7c7 0 12 -2 14 -11l16 -7
c-7 0 -9 -2 -9 -4c0 -3 7 -7 7 -9l-3 -3c7 0 14 5 14 7c0 0 0 2 -2 2l-3 -2c0 14 25 5 25 16c43 0 77 4 116 4l-4 -11h13c2 0 2 2 2 5c0 2 -2 4 -6 4c9 0 15 -7 15 -9c5 2 7 2 7 5c0 4 -9 9 -9 9c14 -5 9 -12 25 -12c7 3 5 7 7 7h20l-6 -9c4 -2 11 -2 11 -4l-5 -5
c5 7 16 9 28 9l40 -2c12 -7 21 -7 34 -7c-2 0 -4 -2 -4 -4c0 -3 2 -5 7 -5h2c0 18 20 7 29 20c0 -6 21 -6 21 -11l-2 -4c4 0 4 2 4 4s0 5 5 7l20 -5c34 3 18 3 52 3l-2 -5l4 -4l14 11c5 0 5 -9 9 -9l5 2v-7l29 3c18 0 34 -3 50 -5l32 -2c16 0 32 2 47 9l-2 -5
c0 -2 2 -2 7 -2c-2 0 -2 -2 -2 -5v-4l22 7c3 -9 23 -3 25 -12l-7 3l3 -5c0 -11 -16 -20 -16 -32v-2l-7 5c-7 0 -16 -9 -25 -9c-4 0 -9 2 -13 6l-3 -2l3 -7c-3 5 -7 7 -12 7h-7v-2l-15 2c-16 0 -30 -4 -53 -4l3 6l-12 -4l-2 2c0 2 2 2 5 2h6l5 3l-2 4c-5 -4 -12 -7 -19 -7
h-13c-9 0 -18 0 -21 -6c-2 0 -2 0 -2 2v4c0 3 0 3 -4 3l-3 -5l-2 5c-7 0 -11 -5 -11 -9c2 0 4 0 7 -3l-7 -2c-9 0 -16 5 -21 5l9 2c-27 7 -59 2 -86 11l3 5l-14 2c-5 0 -7 -2 -18 -2c-12 0 -12 4 -23 4l2 -2c0 -2 -6 -5 -6 -7l2 -2c-23 7 -11 7 -25 18l-5 -4
c-4 4 -4 9 -15 9l2 -3l-2 -6l2 -5c-5 -2 -9 -2 -12 -2c-11 0 -18 4 -25 4c-2 0 -6 -2 -9 -7l-2 5c0 7 7 7 11 7h7c0 7 -7 11 -16 11s-13 -18 -31 -18h-3l5 -2l-16 2l-7 -2c-4 9 -11 0 -11 11l16 -2c-7 2 -16 13 -27 13l-7 -2l9 -9l-9 2l-5 -2c3 -11 21 -2 32 -14l-16 3v-5
c-2 5 -4 7 -9 7h-9c-5 0 -7 0 -11 5v-7l-9 4l4 -9l-4 2c-7 0 -14 -4 -21 -4h-4c9 0 11 0 11 4l2 10l-9 2c-11 0 -9 -18 -29 -18h-3c5 0 9 2 9 6l-2 3c-4 -3 -11 -5 -16 -9c-6 0 -6 2 -6 4s4 5 4 7l-2 2l-5 -4c-4 0 -7 9 -13 11v-9c-14 0 -7 11 -21 11h-4l9 -11l-12 2l3 -7
l-12 5l-13 -2v4c0 5 -2 9 -12 9l-2 -4c0 -2 0 -2 -7 -2c3 -3 5 -7 7 -7l5 4c2 -2 4 -4 4 -7c-2 -2 -7 -2 -11 -2h-11l4 2l-18 12l-2 -2c0 -3 2 -3 4 -5c-4 0 -7 2 -13 5c2 -7 0 -14 9 -16l-18 6c-3 -2 -7 -4 -7 -9c-12 0 -21 7 -32 7h-7l-7 5c-6 -3 -15 -5 -25 -5
c-4 0 -9 0 -13 2l-9 -9c-2 0 -2 3 -2 3l2 9c0 2 -2 4 -7 4h-5c-4 0 -4 -2 -4 -4l-2 -7c-5 4 -12 11 -21 11l-11 -4h11l-9 -7c9 -7 16 -7 16 -9l-5 -5c-2 21 -38 3 -40 23l-7 -5h4l-4 -2c-7 0 -7 14 -18 14l-12 -5l3 -2l-12 5l-4 -3l2 -2c-20 2 -11 0 -29 11l-3 -2l-7 2
l-2 -2c0 -4 7 -7 12 -7h2c-2 -7 -5 -9 -7 -9s-7 5 -14 5l-9 -3l9 -2c-4 -13 -13 -9 -25 -16c3 3 16 12 16 18l-4 5c-9 0 -5 0 -14 2c0 -4 -2 -7 -7 -7l-6 3v-12c-7 3 -7 9 -12 14c-9 -2 -11 -9 -13 -16h-5l2 9c0 2 0 5 -4 5l-11 -3c-10 0 -16 5 -25 7l-5 -4l2 -5l-6 9l-3 -4
c-4 2 0 9 -9 11c0 2 -2 2 -4 2c-5 0 -14 -9 -23 -9c-2 0 -5 0 -7 3v-10c-16 7 -13 5 -27 16l-14 -9c3 3 3 5 3 7c0 7 -7 11 -16 16l9 9l-16 5l2 -10l-4 3l-3 -5c0 -4 3 -7 5 -9c2 2 4 5 7 5c4 -5 7 -12 7 -16l-5 2v-4l-5 2l-2 -9l-2 2l-20 -7c-14 9 -28 25 -53 30
c5 -5 5 -7 5 -12v-11l4 2l25 -2c-2 0 -4 -2 -4 -5l2 -4l-23 9c0 -9 -4 -7 -9 -9c0 14 -16 9 -27 11c0 -4 2 -7 9 -7h5l-7 -4c-5 0 -9 14 -16 14l-4 -3c2 0 4 0 4 -2l-7 2c-4 0 -9 -2 -9 -4v-3h2c-9 -2 -22 -2 -34 -2c-11 2 -20 5 -22 12l4 -19l-34 41l3 -25
c0 -7 0 -16 6 -18c-2 -2 -4 -2 -9 -2h-7l3 11c0 5 0 7 -3 7c-9 -14 -6 -7 -18 -18l3 2c0 7 -7 16 -12 16c3 -2 3 -18 5 -18l-18 13l2 -6c0 -5 -2 -9 -5 -12h-18l7 5c-16 0 -20 18 -36 18h-2l2 -14c0 -4 0 -9 -5 -11c-4 9 -22 41 -41 45l-2 -4l-13 4c9 -13 34 -38 47 -47
c-7 -5 -2 -7 -11 -7c0 -5 4 -7 9 -7l-23 -4c-2 9 -20 6 -20 16l27 -7c0 9 -14 22 -29 22h-7c0 -9 7 -18 7 -20l-14 2c-2 0 -5 0 -5 -2l7 -5c-9 0 -13 7 -20 7c-9 -7 -12 -16 -16 -16l-2 3l2 16c0 13 -5 34 -7 40c-2 -2 -20 -16 -23 -20l-2 -5c0 -9 12 -15 12 -22v-3
c-3 3 -7 5 -7 7l-3 -4c0 -3 0 -5 -4 -5c0 5 -2 5 -5 5h-4l4 4c-11 0 -9 -4 -20 -4c0 9 -11 20 -23 22v-9l-45 -13c0 -3 -5 -5 -5 -9v-3c-2 3 -4 5 -9 5l-2 -5l9 -2l-2 -4c0 6 -14 6 -23 9c0 4 5 4 9 4l16 -2c0 7 -4 11 -11 16c-7 4 -16 9 -25 9c-7 0 -7 -2 -7 -5v-2l-11 -2
c-7 0 -12 4 -16 7l-9 2c-3 0 -7 0 -12 -5l-2 -6c0 -7 5 -12 5 -14c9 0 11 4 25 9l-9 -7h9c2 0 4 0 6 2c-2 -4 -13 -6 -27 -11c-11 -2 -27 -4 -36 -11zM1772 202l-2 3l-2 -2zM1218 144l3 2l-4 4l-7 -4zM989 156l5 4l-9 -3zM1013 148l1 2l-1 3v-5zM274 118l7 5l-8 -1zM210 58
l4 2h-7zM260 92c6 0 11 0 11 4l-7 1c-3 0 -5 -1 -5 -3zM252 90l5 2c-1 0 -5 0 -5 -2zM327 127c4 1 6 1 6 2c0 2 -8 6 -10 6v-2c1 0 2 -6 4 -6zM271 76l5 3l-5 5v-8zM307 89c3 0 5 3 7 5l-11 -2zM284 77l9 5c-6 -3 -4 0 -9 -5zM421 112l5 3l-1 2h-11c0 -3 4 -3 7 -5zM394 87
l-2 9l-4 -6zM421 87l6 2l-9 5l-3 -3c0 -2 6 -2 6 -4zM570 131l-4 15l1 -15h3zM711 110l1 5c0 5 -5 4 -10 6c0 -2 -7 -4 -7 -6h4c5 0 3 -6 8 -6zM1189 126l6 6c-4 0 -6 -1 -7 -3zM1295 135l2 9l-4 -9h2zM1384 126v4c-2 0 -4 -4 -9 -4h9z" />
    <glyph glyph-name="ll" unicode="ll" horiz-adv-x="407" 
d="M265 350c3 0 7 7 12 22l8 26c7 14 10 24 10 30c0 4 -1 6 -3 6s-6 -10 -13 -30c-5 -21 -10 -31 -13 -32c-4 -1 -6 -6 -6 -14c0 -5 2 -8 5 -8zM192 89l2 1c5 0 8 13 9 39c0 4 -1 6 -2 6c-3 -1 -4 -2 -5 -3s-1 -2 -1 -3c-1 -1 -2 -2 -3 -5l-3 -25c0 -7 1 -10 3 -10zM190 40
v1c1 2 2 6 2 12c0 10 -1 16 -3 17c-2 0 -3 -4 -4 -12c0 -9 2 -15 5 -18zM194 171c2 0 4 7 7 21l-7 -3l-1 -13zM224 219c4 0 8 7 11 22l5 16c4 8 6 15 6 21c0 5 -1 8 -2 8c-4 -1 -7 -3 -8 -6s-2 -7 -3 -10c-1 -4 -2 -7 -5 -10c-1 -3 -2 -6 -2 -7c-1 -1 -1 -2 -1 -3
c-1 -1 -1 -2 -2 -2l-3 -3l3 19l-2 1c-5 -1 -9 -3 -10 -6c-2 -3 -3 -10 -4 -19c0 -3 1 -4 2 -4l9 4l-1 -10c0 -7 2 -11 7 -11zM219 198c0 5 -1 7 -2 7s-2 -1 -2 -2c0 -2 0 -3 1 -4c0 -1 1 -1 3 -1zM205 177l9 14l-4 1zM-69 -103v25l-2 3c0 -14 1 -23 2 -28zM-28 78
c2 0 5 7 8 20c2 8 3 15 3 20c-4 -3 -7 -10 -9 -23c-1 -5 -2 -11 -2 -17zM-11 146c6 4 11 17 15 39c9 42 14 64 16 68c1 4 2 6 2 7c4 7 8 21 10 43c0 5 -1 7 -2 7c-5 -18 -10 -36 -15 -55c-6 -19 -15 -56 -26 -109zM11 280c2 3 6 18 12 43l3 14c0 1 -1 2 -2 2
c-4 0 -9 -19 -15 -58zM29 346l6 9l-2 2c-3 0 -4 -4 -4 -11zM35 365l9 18l-2 4c-1 0 -2 0 -2 -1c-1 -1 -2 -8 -5 -21zM44 344l2 15l-1 3c-1 0 -1 -1 -2 -3s-2 -5 -2 -9zM48 403l1 4c0 3 -1 5 -2 5zM-21 -169c-11 0 -24 6 -38 18s-21 31 -21 57c0 20 1 31 4 32l5 -9
c1 0 2 1 3 2s2 3 2 4c0 12 7 49 21 112c15 70 22 110 22 120c-1 2 -2 4 -3 5s-1 2 -2 3c-1 0 -2 0 -2 1c2 2 4 3 6 3c6 0 11 8 15 23c3 15 6 25 9 32c4 9 6 18 6 26c0 3 0 6 -1 7s-3 1 -4 2c-2 0 -4 1 -6 2c11 34 22 75 34 122c14 61 30 115 46 164c7 23 14 45 21 67
c7 21 10 39 10 52c0 5 1 8 2 8l8 13c6 8 10 12 13 12l2 -1c3 -3 8 -4 16 -4c16 -4 27 -15 31 -34c-3 -6 -20 -60 -52 -161c-10 -21 -16 -40 -18 -58c-1 -13 -5 -22 -11 -28c-4 -7 -8 -16 -11 -26c-3 -14 -7 -23 -12 -29c-4 -5 -7 -12 -7 -20c-1 -8 -1 -13 -2 -15
s-3 -4 -7 -5c-7 -2 -11 -7 -11 -14l4 -25c0 -7 -2 -12 -6 -17c-5 -5 -9 -10 -12 -17s-6 -16 -8 -28s-5 -24 -10 -37c-7 -18 -14 -44 -20 -78c0 -7 -1 -13 -2 -17c-1 -5 -3 -9 -5 -14s-4 -10 -6 -17s-4 -17 -6 -30s-4 -25 -6 -37c-2 -1 -4 -7 -5 -17s-2 -22 -3 -35
s-1 -26 -1 -37l2 -27c4 -7 6 -11 7 -11c3 0 8 5 16 16c5 8 11 15 18 20c5 4 14 15 29 35c2 3 4 4 6 5s3 1 4 1s2 0 2 1l6 6c0 -4 -4 -13 -13 -27c-5 -8 -9 -16 -12 -23c0 -3 2 -5 5 -5c7 0 13 7 18 21c14 15 22 27 26 36c3 5 6 9 11 11c4 2 6 5 6 10s2 9 7 12s7 7 7 12
l25 41c0 4 7 18 22 42c14 23 21 36 21 37c0 6 3 13 9 21v3c-1 0 -1 0 -1 1h-4c0 5 0 9 1 11c0 2 2 3 4 3c1 0 2 -1 2 -3c0 -3 1 -4 2 -4l3 11c0 2 -1 3 -3 3s-4 -2 -6 -6c-1 -1 -2 -1 -3 -1s-2 1 -2 2c0 9 3 14 9 14c0 5 1 11 2 17c3 14 6 21 10 21l-3 -20c5 2 8 4 8 7
c0 2 0 3 1 4l3 14c-1 2 -2 3 -4 3s-3 1 -3 4l8 37c2 11 5 22 10 32c4 9 11 27 20 51c1 0 2 -1 3 -2c0 -1 2 -3 4 -5l-4 25c0 6 2 10 6 11c1 0 1 -1 1 -4c0 -6 2 -9 6 -9c3 1 5 4 5 9c0 3 0 5 -1 6s-2 3 -4 4s-3 2 -4 3l4 12c1 0 4 -2 9 -7c1 1 2 3 3 4s1 3 2 5c0 1 0 2 -1 3
c-5 3 -8 6 -8 8c3 1 5 3 8 4s5 1 6 2s6 13 13 35c0 1 0 2 -1 3c-1 0 -3 0 -4 1c-1 0 -3 0 -4 1s-2 2 -2 4s2 5 6 9c4 -3 7 -6 10 -7c3 -2 4 -6 4 -13l-2 -14l13 23c-5 6 -8 11 -11 14s-6 5 -7 8c-1 2 -2 4 -2 7s2 5 5 5c3 -1 6 -1 8 -1c1 -1 4 -3 7 -6c3 0 5 4 5 12
c0 4 -2 6 -5 6h-9c-1 0 -2 2 -2 5c1 4 2 8 2 11h7c3 0 5 2 5 5s-1 5 -2 7c-1 1 -2 3 -3 4c5 13 10 28 15 47l3 10c0 6 3 12 8 19s9 19 13 35c17 0 28 0 32 -1c7 -2 13 -6 16 -12c1 -3 2 -12 2 -25c-3 -21 -9 -35 -19 -43c-4 -3 -6 -5 -6 -8s-1 -5 -3 -7c-1 -1 -4 -7 -6 -15
c0 -5 -2 -11 -7 -18s-7 -12 -7 -17s-1 -8 -4 -10c-3 -3 -5 -7 -7 -12c0 -2 -2 -8 -7 -19c-12 -29 -23 -52 -32 -69c-1 -1 -2 -4 -3 -7c-2 -11 -12 -42 -31 -95c0 -3 -1 -8 -4 -15s-7 -17 -10 -30c-12 -23 -18 -44 -18 -62c0 -8 -1 -14 -3 -19c-3 -5 -5 -12 -6 -21
c0 -5 -1 -12 -3 -20c-3 -13 -7 -36 -10 -69c0 -23 2 -37 6 -44c3 -7 10 -12 19 -15c5 0 10 1 15 4c13 7 19 13 19 17l36 43l3 3l2 2s4 1 11 1l-5 12c0 2 3 5 8 9s8 7 8 9s9 17 26 44l19 30c11 19 19 28 23 28l2 -5c0 -5 -1 -9 -2 -13l-15 -37c-14 -34 -21 -52 -21 -54
c0 -1 -1 -3 -3 -5c-9 -11 -15 -19 -18 -24l-17 -27c-7 -9 -10 -17 -10 -22s-7 -14 -22 -26c-2 -2 -3 -4 -3 -5c0 -4 -8 -8 -23 -12c-9 -3 -14 -5 -16 -6s-4 -2 -6 -2c-9 0 -17 2 -23 6s-13 9 -20 16c-1 2 -3 4 -5 5c-12 9 -20 27 -25 54c0 6 0 10 1 13c0 2 2 3 6 3v3v3
c-1 0 -1 0 -1 1h-3c-3 0 -4 2 -5 7l2 5l7 -7c1 8 2 15 3 21c1 5 2 13 2 22l-52 -93l-28 -48c-5 -5 -10 -13 -16 -25c-9 -19 -21 -37 -36 -54c-3 -2 -6 -6 -10 -11c-1 -3 -5 -8 -12 -15c-22 -21 -38 -31 -48 -31zM131 82h-1c-1 0 -2 1 -2 4l3 7c2 0 3 -2 3 -5zM144 108l2 5
c1 8 6 15 14 20l1 -2c0 -1 -1 -2 -3 -5s-4 -6 -7 -9c-2 -3 -5 -6 -7 -9zM165 140c-3 0 -4 1 -4 4s2 7 6 11c1 0 2 -2 2 -6c-1 -2 -1 -4 -1 -6c-1 -2 -2 -3 -3 -3zM72 -17l-4 1l8 10c2 0 3 -2 3 -6c0 -1 -1 -2 -2 -3c-2 -1 -3 -2 -5 -2zM98 24l-1 4c0 6 1 9 4 9l4 -2
c-1 -3 -3 -5 -4 -7s-2 -3 -3 -4zM78 4l-2 2c0 3 1 5 3 7zM-50 87l-1 7l2 1l1 -5c0 -2 -1 -3 -2 -3zM-64 18l-2 5l2 3c1 0 2 -1 2 -4zM-73 -45l-2 8l6 34c0 -27 -1 -41 -4 -42z" />
    <glyph glyph-name="ss" unicode="ss" horiz-adv-x="504" 
d="M317 -19h-11c7 7 9 11 14 11c4 0 6 -3 6 -7s-2 -4 -9 -4zM411 -2v1c0 3 4 8 8 14l11 4c0 -4 -16 -19 -19 -19zM444 40l-1 2c4 8 1 5 8 10c2 0 2 -1 2 -2c-2 -9 -3 -10 -9 -10zM45 -157c-30 0 -50 31 -50 47c0 9 14 26 14 36s0 13 5 17c-5 2 -5 3 -5 15c0 14 18 32 34 32
c4 0 9 2 11 4c0 3 0 4 -1 4l-10 -2c3 9 5 14 8 14c3 -5 2 -7 7 -7c3 0 7 0 7 5c0 4 4 10 9 10c8 -2 4 -12 9 -12c3 0 3 7 3 13l-1 5c0 7 3 11 6 11l15 -9c3 0 5 2 5 5c0 6 -4 5 -9 12c0 6 12 5 31 8c0 12 -54 34 -54 34c0 8 -85 40 -85 92c0 26 5 35 19 58c5 0 3 7 11 16
c43 57 -6 -11 119 139c31 -6 53 -1 53 -27c-3 -13 -2 -16 -15 -19c-16 -4 -104 -94 -104 -100c-36 -43 -33 -56 -41 -64l-4 -11c0 -14 17 -35 49 -43l77 -32c27 16 22 23 55 26c-5 3 -3 1 -6 5c35 29 37 23 46 33c5 4 11 4 14 13c0 5 3 5 16 18c58 67 93 97 93 102
c-2 0 -5 -2 -9 -6c-3 -4 -6 -6 -7 -6l-3 2c0 4 56 38 67 38c14 0 13 -14 20 -14c12 -10 19 -11 19 -26c0 -22 -22 -60 -42 -60c-12 0 -14 21 -23 21c-11 0 -42 -37 -47 -37s-13 -18 -29 -39c-10 -10 -16 -17 -16 -21c0 -5 8 -6 27 -6l58 1c51 0 74 -30 74 -52
c0 -5 -2 -10 -5 -14c-34 -38 -100 -99 -100 -107l1 -2l38 26c0 -3 -41 -35 -53 -47c-7 -8 -17 -6 -34 -22c-14 -15 -23 -18 -58 -22c-12 3 -21 3 -21 15c0 5 -6 5 -6 12s2 7 5 9c-6 6 -12 6 -12 10s5 2 15 5c5 5 37 5 41 14c5 3 19 8 26 8l4 -2c0 -15 -11 -8 -25 -27l4 -2
c5 0 13 4 16 9c39 24 30 23 41 32c11 7 54 43 54 47c0 3 0 4 -1 4c-19 -11 -26 -19 -35 -19c-6 0 -11 -16 -23 -16c-5 0 -7 1 -7 2c0 7 11 11 37 29c18 19 27 17 27 26v2c0 5 23 26 23 38l-136 -4c-24 24 -22 24 -25 34c-44 -44 -50 -26 -50 -39c0 -4 -2 -7 -5 -7
c-4 -2 -6 -5 -6 -9c0 -8 10 -13 10 -29c-2 -34 -8 -55 -8 -55c-5 0 -10 -27 -18 -36c-13 -13 -65 -106 -134 -106zM59 266c2 0 19 17 19 23c0 1 -1 2 -4 2c-4 0 -9 -4 -13 -13zM35 233c9 6 12 11 12 15c0 2 -1 3 -2 3c-4 0 -12 -9 -12 -15zM13 193c1 0 2 2 2 3
c9 16 15 16 15 26c0 3 -2 5 -6 6c-4 0 -14 -22 -14 -31l1 -3zM38 -118c52 0 114 99 128 150l-4 6c-8 0 -101 -98 -101 -107c0 -2 -5 -7 -9 -9c-10 -6 -20 -26 -20 -35l2 -4zM87 -129c4 7 3 10 8 15c7 0 2 9 16 15c6 3 10 6 10 9c0 2 -2 3 -6 3c-6 0 -20 -13 -42 -36l1 -3z
M117 -113c6 0 17 16 17 18l-5 1c-5 0 -3 -9 -12 -14c-1 0 -3 -2 -3 -3zM141 -85c4 0 5 4 6 9c0 5 -6 7 -18 9c-3 0 -5 -2 -5 -7c0 -4 0 -6 2 -6l5 2c5 0 7 -7 10 -7zM144 -57c4 0 10 7 10 13c0 2 -1 3 -2 3c-8 -8 -4 -3 -11 -14zM161 -60c4 0 9 11 9 20h-1c-2 0 -4 -2 -6 -4
c-4 -5 -6 -9 -6 -12s1 -4 4 -4zM171 -35c6 0 9 7 13 18l-3 2c-2 0 -11 -13 -11 -18zM222 126c4 0 4 0 4 2h-7l-1 -2h4z" />
    <glyph glyph-name="tt" unicode="tt" horiz-adv-x="322" 
d="M349 417l2 1l-4 3l-3 -3zM310 408l1 1c0 1 6 4 18 7l-19 -2l-4 -2l-7 2l-14 -2l9 -3l5 3c1 0 3 0 4 -1s2 -1 3 -2s2 -1 3 -1h1zM271 408l10 1h-9zM226 350c5 0 8 2 9 6c2 4 4 13 7 28c-5 0 -10 -3 -13 -8c-4 -5 -6 -11 -6 -17s1 -9 3 -9zM215 362c3 2 5 5 5 8s-1 5 -3 8
l-9 -3c2 0 3 -2 3 -6c0 -5 1 -7 4 -7zM188 219c3 0 5 1 6 2s2 5 3 11c3 11 6 19 8 24s4 9 5 12s1 8 1 16c-1 1 -2 2 -3 2c-11 -3 -16 -11 -16 -24c-2 -9 -4 -14 -8 -17l3 19l-1 1c-3 -1 -6 -1 -8 -2c-1 -1 -3 -6 -6 -15c0 -8 1 -12 2 -12l8 3c1 0 1 0 1 -1
c0 -5 0 -10 -1 -14c0 -3 2 -5 6 -5zM167 146c2 0 5 3 8 10c3 6 5 13 8 21c2 7 3 13 3 18s-2 9 -5 10l-16 -54c0 -3 1 -4 2 -5zM124 -43c1 0 3 7 8 22c22 75 35 125 37 152c0 3 -1 4 -2 4c-2 0 -4 -1 -7 -4c-1 -1 -2 -9 -2 -23l-6 -26c-19 -72 -28 -114 -28 -125zM121 -93
c1 0 2 4 2 13c0 10 -1 16 -3 17c-2 -1 -3 -5 -3 -13c0 -10 1 -15 4 -17zM7 -7c4 0 9 1 14 4c12 5 19 11 20 17c3 3 7 8 11 13c2 3 3 4 4 5c0 1 1 2 2 3l3 3s2 3 5 6c2 3 5 7 9 12c3 5 9 7 18 7l-6 11c0 2 3 4 9 8c5 4 8 8 8 10l45 82c1 5 2 10 4 17c4 15 6 23 8 23l2 -1
l-1 -8c-3 -8 -4 -15 -4 -20c4 5 7 7 9 7l4 27l-2 5l-3 -1l-2 6c0 5 1 10 3 17c0 3 1 5 3 7l20 79c5 3 7 5 8 7s2 5 3 7l4 -7l1 9c-2 7 -3 12 -3 17s1 8 3 10c-48 -14 -81 -24 -98 -31c-25 -10 -43 -20 -54 -28c-15 -13 -23 -23 -23 -30s-4 -23 -13 -50
c-11 -34 -20 -66 -25 -96c0 -5 -1 -10 -3 -17c-6 -20 -9 -44 -9 -72c0 -11 2 -22 5 -33s6 -18 9 -21zM-26 146c2 0 5 3 8 10c3 6 5 13 8 21c2 7 3 13 3 18s-2 9 -5 10l-16 -54c0 -3 1 -4 2 -5zM-32 89l2 1c1 3 2 6 2 9c2 5 3 11 3 17c1 3 1 8 1 15c0 3 0 4 -1 4s-3 -1 -6 -2
c-2 -2 -4 -3 -4 -6l1 -19l-2 -10c0 -6 1 -9 4 -9zM-37 40c3 0 5 4 5 13c0 11 -2 16 -5 16c-1 -4 -2 -8 -2 -11zM-5 219c3 0 6 1 7 2s1 5 2 11c3 11 6 19 8 24s4 9 5 12s1 6 1 10c0 5 -1 8 -2 8c-10 -3 -15 -11 -17 -24c-2 -8 -4 -14 -7 -17l2 19l-1 1c-3 -1 -5 -1 -7 -2
s-4 -6 -7 -15c0 -8 1 -12 2 -12l8 4c1 0 2 -3 2 -10l-1 -6c0 -3 1 -5 4 -5h1zM34 350c3 0 6 3 8 9c14 43 21 67 21 71c0 3 -1 4 -2 4c-3 0 -7 -10 -12 -30c-3 -8 -5 -15 -7 -21c-2 -7 -4 -10 -7 -11s-4 -6 -4 -15c0 -5 1 -7 3 -7zM47 334l12 5c8 5 16 7 25 7c6 0 10 1 11 3
s2 4 3 5l3 -2c1 0 2 1 3 2c2 1 3 2 3 3c-6 0 -17 -3 -34 -8l-26 -10l-2 -4zM133 364c7 3 12 6 14 7c1 1 3 2 4 2s2 0 3 1s3 1 4 1c-6 0 -10 -1 -13 -3c-3 -3 -7 -4 -10 -4l-2 1c-1 0 -3 -1 -6 -2c-3 -2 -5 -2 -6 -3h12zM242 412c3 0 5 0 6 1c5 0 7 2 7 5s0 6 1 10
c0 4 -1 6 -2 6c-3 0 -5 -2 -7 -7s-3 -10 -5 -15zM358 418l2 2l-2 1c-1 0 -2 -1 -3 -2s-2 -1 -4 -1h7zM172 -173c-5 0 -12 2 -23 6c-11 3 -21 11 -30 22s-15 29 -18 56l-1 9l6 1v5c-4 0 -6 1 -7 2s-2 2 -2 3l5 7l4 -7l2 14l-2 20c0 25 6 59 18 104c-6 -7 -15 -23 -28 -49
c-1 -3 -3 -5 -6 -7c-1 0 -1 0 -1 -1c-1 -1 -1 -2 -1 -3c0 -5 -2 -9 -5 -12c-6 -7 -11 -12 -17 -16c-2 -2 -3 -4 -3 -5c0 -5 -11 -10 -32 -15c-3 -1 -4 -2 -5 -3s-2 -2 -3 -2c-8 0 -15 2 -22 5s-12 6 -17 11c0 2 -5 5 -14 11c-13 10 -21 28 -25 54l2 16c2 0 3 1 3 3v4
c-4 0 -6 0 -6 1c-1 1 -1 2 -1 3s0 3 -1 4l3 4l5 -7l2 2l5 66c0 9 -1 13 -3 13s-3 1 -3 3l-1 2c0 3 1 6 4 9c1 0 1 0 1 -1s0 -1 1 -2c0 -1 0 -1 1 -2c0 -1 1 -2 2 -2c2 0 3 1 4 2v11c-1 1 -2 1 -3 2c-1 0 -2 1 -2 2c-1 1 -1 2 -1 4c0 4 1 9 2 16s3 12 5 17s3 7 4 7s2 0 2 -1
l-4 -40c0 -1 1 -2 2 -2l4 12c3 8 5 20 7 36l-2 4h-5c0 8 2 19 5 32l-2 2c-5 -2 -7 -4 -7 -5h-1c-2 -2 -4 -3 -8 -4s-11 -4 -21 -9c-3 0 -7 2 -12 6s-10 8 -15 13c-5 4 -7 7 -7 9c20 22 40 37 59 44s35 19 46 35l4 -7l-2 27c0 3 0 5 1 6c0 1 1 2 3 3c1 0 1 -1 1 -3
c0 -7 2 -10 6 -10c3 1 4 2 5 3c0 7 0 11 -1 12s-4 3 -8 7l4 12h2c0 -1 2 -3 7 -7c1 1 2 1 3 2c0 1 0 1 1 2l1 5c0 1 0 2 -1 3s-2 1 -3 2l-3 3s-2 2 -2 3c2 1 5 3 8 4s5 1 6 2s6 13 13 35c0 2 -1 3 -2 4c-8 0 -12 2 -12 5l3 3c0 1 0 1 1 2c0 1 0 1 1 2l1 1c1 0 2 0 3 1l6 -3
s4 -3 5 -5s1 -11 1 -26l13 23c-7 7 -12 12 -15 17c-3 4 -5 9 -5 16c0 1 1 1 2 1c4 -1 7 -1 9 -1c1 -1 4 -3 7 -6c1 0 3 1 4 3s1 7 1 14c-1 1 -3 1 -8 1s-8 2 -8 5c1 4 2 8 2 11h7c2 0 4 2 4 5s-1 5 -2 7c-1 1 -1 3 -2 4c4 10 7 22 10 35c5 22 9 35 13 39c3 4 8 16 13 37h18
c15 0 25 -4 31 -13c1 -2 1 -10 1 -25c-2 -19 -7 -33 -17 -43c-4 -3 -6 -6 -7 -9s-2 -9 -4 -16s-5 -16 -10 -25c-5 -5 -8 -11 -8 -18c-1 -4 -2 -7 -4 -10c-5 -2 -7 -4 -7 -9c0 -4 -3 -13 -10 -26c-18 -36 -28 -66 -30 -89c0 -3 1 -5 2 -5c29 7 56 16 81 25c22 8 49 16 80 25
c-1 0 -2 0 -2 1v1c2 1 4 3 7 4s5 1 6 2c2 1 7 13 14 35c0 2 -3 4 -8 6c-4 0 -6 1 -6 3c1 1 1 2 2 3c0 1 0 1 1 2c0 1 0 1 1 2c0 0 1 0 2 1c1 0 2 0 3 1c4 -2 7 -3 8 -3s2 -1 3 -4s1 -12 1 -27l13 23c-7 7 -12 12 -15 17c-3 4 -5 9 -5 16c0 1 1 1 2 1c4 -1 7 -1 9 -1
c1 -1 4 -3 7 -6c3 0 4 6 4 17c-1 1 -3 1 -8 1s-7 2 -7 5c1 4 2 8 2 11c5 0 9 1 10 2s1 3 1 7l-4 7l25 98c4 16 8 29 13 40c4 3 8 11 11 24l3 13c25 0 40 -1 45 -4s7 -9 7 -17l-1 -14c0 -10 -1 -17 -2 -22s-5 -11 -11 -16c-4 -6 -11 -27 -22 -63c-7 -26 -14 -46 -21 -59
c-3 -3 -6 -9 -8 -18c-1 -4 -2 -7 -3 -10c-7 -4 -13 -14 -16 -30c-3 -11 -7 -23 -14 -38c48 10 99 17 152 21c9 0 14 -3 14 -9s-4 -9 -11 -9l-12 -3c-50 -5 -102 -14 -156 -29c-3 -6 -5 -14 -5 -23l-25 -72c-3 -4 -6 -13 -11 -27c-12 -38 -18 -63 -18 -75c-5 0 -8 -9 -8 -28
c-1 -16 -4 -30 -7 -43s-7 -28 -11 -44c-22 -82 -33 -135 -35 -160c0 -12 1 -24 4 -37s11 -19 25 -19c6 0 10 1 14 4c1 0 2 -1 3 -3s2 -5 3 -8s1 -6 1 -9c0 -12 -5 -18 -14 -18z" />
    <glyph glyph-name=".notdef" horiz-adv-x="500" 
 />
    <glyph glyph-name=".null" horiz-adv-x="0" 
 />
    <glyph glyph-name=".null" horiz-adv-x="0" 
 />
    <glyph glyph-name="nonmarkingreturn" horiz-adv-x="508" 
 />
    <glyph glyph-name="space" unicode=" " horiz-adv-x="251" 
 />
    <glyph glyph-name="space" unicode="&#xa0;" horiz-adv-x="251" 
 />
    <glyph glyph-name="exclam" unicode="!" horiz-adv-x="287" 
d="M61 -65c-7 0 -7 10 -17 10l-2 -1c-2 0 -2 2 -2 7l9 82c20 0 48 -7 48 -35c-5 -41 -17 -63 -36 -63zM90 74h-12c-7 0 -11 11 -22 11c-3 0 -5 5 -7 16v9c0 73 16 135 25 172c0 15 11 21 11 39c0 16 9 18 9 29c0 7 7 23 12 23c0 0 6 41 18 64c9 9 7 23 11 31
c18 29 19 51 25 62c5 4 7 9 7 11c0 11 25 63 25 75c0 15 24 108 40 108c27 -4 32 -4 32 -13c0 -8 23 -13 23 -18c0 0 -2 -5 -2 -11c-7 -13 -12 -9 -12 -28c0 -11 -6 -17 -13 -31c0 -6 -7 -7 -12 -23c-4 -17 -25 -66 -25 -66c-11 -35 -9 -50 -18 -59s-18 -35 -34 -77
c-2 0 -4 -7 -6 -11c-8 -33 -25 -38 -25 -64l-25 -72c-6 0 -8 -32 -12 -37c-14 -43 -10 -56 -13 -102v-38zM194 568c2 0 9 23 9 32c0 4 6 7 10 15l-3 3c-10 0 -8 -12 -14 -32c-3 -5 -5 -10 -5 -13s1 -5 3 -5zM110 360c5 0 21 34 21 40c10 24 18 36 18 48v2c0 23 41 82 41 102
c0 4 -1 7 -5 7c-5 0 -7 -18 -11 -23c-9 -29 -3 -15 -16 -40c-5 0 -3 -19 -7 -19c-6 0 -6 -23 -14 -31c-12 -13 -8 -26 -20 -50l-9 -33c0 -2 0 -3 2 -3zM81 270c9 0 18 34 33 80l-5 5c-11 0 -28 -64 -28 -79v-6zM67 198c2 0 5 5 5 10l-1 5c-6 -8 -4 -5 -6 -14zM72 226
c7 14 13 26 13 31c0 4 0 6 -2 6c-8 -9 -11 -14 -11 -26v-11zM78 154c7 9 6 39 21 88c4 8 5 15 5 19s-1 6 -3 6c-14 0 -16 -42 -25 -106c0 -4 1 -7 2 -7zM103 271c8 0 18 25 18 41c0 9 23 61 23 72c0 8 10 8 14 32l-2 2l-7 -4c-5 -5 -8 -8 -8 -14l1 -9c0 -8 -11 -7 -11 -22
c0 -13 -11 -16 -16 -41c0 -23 -15 -34 -15 -50zM162 427c7 0 5 7 7 19c5 19 18 32 18 40c0 20 23 73 23 73c2 0 4 2 4 5c8 27 15 38 15 48c0 4 -1 5 -3 5c-10 -3 0 4 -22 -52l1 -1c0 -15 -4 -12 -13 -32c-3 -9 -7 -21 -9 -21l-5 -20c-5 -5 -14 -45 -18 -45
c-4 -3 -5 -6 -5 -9s1 -5 3 -7z" />
    <glyph glyph-name="quotedbl" unicode="&#x22;" horiz-adv-x="249" 
d="M139 343c-3 0 -4 2 -4 4c0 9 6 13 14 31c0 9 9 20 14 20l3 -2l2 4c0 4 -8 3 -8 7l8 20l-3 10c0 8 4 21 12 43l9 65l9 3c11 0 34 -16 34 -23c0 -2 2 -2 4 -2c7 0 16 -14 16 -21c-2 -21 -1 -28 -9 -43c-9 -4 -16 -29 -25 -38c-13 -27 -40 -68 -52 -68c-2 0 -9 -3 -14 -7z
M177 416c2 0 2 2 2 5v7c-3 0 -4 -4 -4 -7zM45 353c-3 0 -5 0 -5 2c28 77 37 55 37 77c0 29 36 117 36 135v1c0 7 0 7 14 7c13 0 16 -2 18 -11c12 -18 24 -20 24 -30l-4 -13c-4 -10 3 -25 -16 -48c-31 -54 -14 -27 -49 -82c0 -7 -48 -38 -55 -38zM96 412c5 6 6 7 6 11v2
c-7 -6 -4 -4 -7 -11zM109 432c2 0 5 4 5 8l-1 3c-6 -3 -4 0 -6 -7zM118 452v12l-2 -6z" />
    <glyph glyph-name="numbersign" unicode="#" horiz-adv-x="448" 
d="M68 35c-3 0 -6 4 -6 12c0 13 7 11 7 15l9 39c0 6 20 17 20 32l-5 9l1 2c0 9 -32 12 -32 18c0 7 -5 8 -22 30c15 15 6 20 45 20c37 0 48 5 48 18c0 7 -2 10 -3 10l-7 -1c-14 0 -38 15 -38 28c0 5 -9 4 -9 6c11 12 6 14 66 25c13 5 27 9 29 12l27 54c4 4 6 33 12 39
c14 34 10 45 25 49c14 0 12 -3 18 -7l2 1c5 0 18 -10 18 -29c0 -21 -15 -44 -38 -92h2c27 0 38 6 45 41c9 30 18 41 34 41c18 0 30 -18 30 -43c0 -16 -4 -20 -7 -29c0 -2 1 -3 4 -3c40 9 57 14 70 14c20 0 35 -9 35 -16c0 -5 0 -7 -2 -7c-23 0 -41 -4 -71 -11
c-52 -14 -54 -14 -59 -23c-14 -32 -26 -39 -29 -59c2 -7 4 -7 20 -9l18 2c0 4 6 2 17 4c8 0 6 -3 8 -6l7 1c6 0 7 -3 7 -10c0 -32 -109 -25 -113 -48c-12 -31 -50 -86 -64 -86c-4 0 -6 2 -6 4l7 18l-1 2l-5 -2c-3 0 -4 2 -4 6c0 8 4 15 7 15s3 -4 6 -11c7 18 14 19 14 36
s14 11 18 23l-2 2l-4 -2l-66 -7c-15 -7 -61 -110 -68 -113c-11 0 -11 -14 -15 -14zM149 235c9 4 14 6 14 11c0 1 -2 2 -5 2c-5 0 -12 -6 -12 -11c0 -2 1 -2 3 -2zM186 310c5 0 12 11 22 29c-11 -5 -23 -20 -23 -27zM207 221c33 4 31 30 37 30c0 2 4 9 4 18c0 0 -2 2 -7 2
c-28 -6 -31 0 -49 -27c-6 -9 -8 -15 -8 -18c1 -5 5 -5 23 -5zM245 230c4 0 17 15 17 21c0 2 -2 4 -5 4c-4 0 -14 -17 -14 -23l1 -2h1zM236 305c7 0 29 7 29 13c0 2 -1 3 -5 3c-7 0 -28 -11 -28 -14c0 -1 2 -2 4 -2zM325 197c5 0 6 3 10 6c0 1 -3 2 -7 2c-5 0 -9 -2 -9 -4
c0 -3 2 -4 6 -4zM351 318c26 5 44 6 44 10c0 1 -1 2 -2 2l-4 -1c-6 -2 -44 -6 -44 -9c0 -2 3 -2 6 -2zM366 348l-13 1c8 3 31 8 59 8c8 0 13 -1 13 -2c0 -5 -42 -3 -59 -7zM56 52l-3 3c2 4 1 5 4 5c1 0 2 -1 2 -3c0 -3 -1 -5 -3 -5z" />
    <glyph glyph-name="dollar" unicode="$" horiz-adv-x="482" 
d="M248 85l-3 1c4 5 6 8 10 8l4 -2c-5 -6 -6 -7 -11 -7zM320 151l-1 4c9 13 4 8 16 16l2 -1c-9 -12 -13 -19 -17 -19zM201 146l-4 1l4 8c2 0 4 -2 4 -4zM188 107l2 6l4 -3zM130 -280c-12 8 -14 14 -20 14c-3 0 -5 8 -5 19c4 37 8 71 14 71l-2 -43l-2 -6c16 5 10 11 22 86
c9 4 16 45 34 145c-5 0 -7 -7 -11 -7c-7 0 -7 -5 -11 -27c-6 -26 -10 -40 -12 -40c4 44 1 22 9 62l-22 -2c-37 0 -54 13 -71 30c-11 11 -13 15 -13 34c0 20 9 52 16 56c4 5 22 14 24 14l2 -4c0 -15 -9 -33 -15 -62c5 -14 9 -19 22 -19c44 4 80 20 80 34v3
c0 19 45 155 45 179c0 13 -27 13 -38 37c-11 21 -19 11 -22 37c0 17 4 41 10 49c19 34 28 48 34 54c9 14 32 43 41 52c75 75 73 71 80 96c12 36 18 44 36 111c8 41 9 32 24 37c7 0 6 -8 10 -8c11 0 26 -15 26 -24c-16 -61 -16 -45 -31 -98l46 2l7 2c29 0 45 -28 45 -48
c0 -23 -27 -47 -27 -51c0 -5 -27 -30 -44 -30c-10 0 -11 6 -15 6c-5 0 -6 -10 -12 -10c-4 0 -6 1 -6 4c6 27 -3 0 38 55c7 14 21 19 21 29c-1 3 -3 4 -6 4c-9 0 -17 -15 -53 -27c-21 -11 -30 -18 -30 -34c0 -8 -27 -42 -32 -70c-16 -50 -15 -60 -40 -124
c0 -14 101 -6 122 -23c10 -11 15 -17 15 -28c-4 -35 -14 -55 -31 -72c-13 -13 14 3 -82 -79c-63 -64 -68 -58 -72 -62c-29 -23 -39 -17 -39 -38c-2 -7 -2 -14 -4 -16c-27 -101 -43 -145 -43 -188c0 -11 1 -19 4 -25l3 -19c0 -17 -11 -38 -19 -38zM185 384c2 0 4 3 4 5v3
c-3 -2 -6 -2 -6 -5s2 -3 2 -3zM124 1l5 2l-3 2l-6 -2zM137 22c14 2 10 -2 15 10l-1 3c-5 0 -9 -5 -21 -13h7zM279 498l10 9l-2 2c-6 -2 -9 -4 -9 -9zM223 437c8 0 38 37 49 54l-1 2c-26 -22 -19 -26 -41 -41c-6 -6 -9 -11 -9 -13zM196 402c5 0 11 11 22 29
c-3 0 -22 -21 -22 -27v-2zM196 370c5 0 26 42 50 71c11 14 20 25 20 27c-37 -31 -31 -40 -40 -45c-7 0 -32 -38 -32 -50zM221 307c18 0 12 13 23 50c11 17 10 30 26 75l-3 3c-18 0 -17 -10 -28 -23c-15 -16 -15 -21 -25 -41c0 -17 -11 -15 -19 -43c0 -8 15 -21 19 -21h7z
M248 305c9 0 14 2 14 11c-2 5 -5 7 -9 7c-12 0 -10 -2 -14 -14c0 -3 3 -4 9 -4zM173 44l7 3c0 2 -2 2 -2 2c-2 0 -5 -2 -5 -5zM177 75c5 5 5 10 12 10c4 0 10 10 10 17l-1 4c5 14 12 12 12 31c0 15 7 41 30 108c0 3 -6 10 -12 10c-8 0 -11 -6 -14 -17c0 -8 12 -4 12 -10
c-3 -2 -5 -5 -9 -5l-2 1l-5 -7l-34 -125l-1 -10c0 -5 1 -7 2 -7zM198 31c6 8 7 11 21 20c15 5 23 21 27 21c7 0 100 90 100 101c0 2 -1 3 -5 3c-12 -1 -70 -47 -70 -57c0 -5 -12 -3 -20 -16c-20 -19 -46 -29 -46 -36c0 -3 1 -5 2 -5c16 11 8 8 26 13c0 -8 -29 -15 -35 -38
v-6zM351 182c7 5 11 6 11 10c0 2 -3 2 -5 2s-4 -2 -7 -7zM219 106c10 0 132 112 141 142c0 3 -9 3 -50 3h-18c-40 0 -36 -2 -44 -34c-5 -32 -11 -32 -18 -57l-13 -52c0 -2 0 -2 2 -2zM263 331c7 0 10 19 15 38c9 14 4 29 9 34c2 0 4 6 4 11c8 23 14 31 14 48c0 7 -1 6 -4 7
c-7 0 -19 -13 -19 -21c0 -11 1 -11 4 -12c-17 -17 -8 -11 -20 -31c0 -7 12 -5 12 -8c-19 -15 -16 -10 -18 -22c-5 -11 -7 -22 -7 -29c0 -13 7 -15 10 -15zM340 588c2 2 4 4 4 6l-3 3c-2 0 -4 -3 -4 -5s1 -4 2 -4h1zM121 -162c-1 0 -2 2 -2 5c0 12 6 32 11 59
c-2 -38 -4 -64 -9 -64zM137 -119c0 2 0 7 2 9z" />
    <glyph glyph-name="percent" unicode="%" horiz-adv-x="338" 
d="M247 422l2 1c1 0 2 1 2 2v3v2h-2s-2 0 -3 -1s-1 -3 -1 -4s0 -1 1 -2c0 -1 0 -1 1 -1zM288 91c2 0 5 3 9 10c4 6 8 13 11 21c3 7 5 13 5 18c0 1 0 1 -1 2s-1 2 -2 3c-1 0 -1 0 -2 1c-3 0 -8 -10 -14 -29c-1 -6 -3 -11 -4 -14s-2 -6 -3 -7c0 -1 0 -2 -1 -3zM201 12
c5 0 13 5 24 14s21 18 30 29s14 18 14 23c0 2 0 4 1 5l2 2c4 3 7 9 10 19c3 9 4 18 4 27c0 3 0 5 -1 7c-1 1 -2 3 -3 4s-1 3 -2 5s-1 5 -1 8c0 4 0 7 -1 8s-3 1 -6 1c-4 0 -7 0 -9 -1c-3 -1 -5 -4 -7 -7c-3 -3 -6 -9 -9 -16c-3 -5 -5 -9 -7 -12s-3 -5 -4 -6s-2 -2 -2 -3
c-1 -1 -1 -1 -1 -2c-3 -5 -6 -8 -8 -11s-3 -5 -4 -7s-1 -4 -2 -7c-1 -2 -3 -5 -4 -9c-3 -1 -4 -3 -5 -6s-2 -7 -3 -11c-1 -5 -2 -9 -3 -13c-3 -1 -4 -5 -5 -11s-2 -12 -2 -17c0 -6 1 -10 2 -12zM131 473c3 0 5 1 6 2s2 2 3 4c1 3 4 6 7 10c3 1 5 3 6 5s1 4 1 6c0 3 0 6 1 9
c1 2 2 4 4 6c1 2 2 5 4 8c0 3 -2 4 -5 4c-7 -7 -14 -16 -23 -27s-13 -20 -13 -27h9zM89 112c2 1 4 2 5 3s2 2 4 5c1 3 3 7 6 13c5 9 10 17 13 22s5 9 7 12l6 9c1 3 3 7 6 13c2 5 5 14 9 26v2h-2l-2 2c-1 0 -1 1 -1 2s1 2 2 2h3h1c6 0 13 8 20 24c3 6 8 13 13 22
c4 4 7 8 8 11s1 5 1 7c1 1 1 2 1 3s0 1 1 1c4 3 7 5 9 8c1 3 3 6 4 9c1 5 3 10 6 16c0 1 -1 2 -2 3c-2 1 -5 1 -8 1h-2c-4 0 -7 -1 -8 -3c-2 -2 -3 -5 -4 -8s-2 -6 -4 -10c-15 -22 -24 -36 -27 -43c-1 -2 -2 -4 -3 -5s-1 -2 -2 -2s-1 0 -1 -1c-1 -1 -1 -2 -1 -3
c0 -3 -2 -8 -6 -15c-4 -8 -9 -17 -14 -28c-9 -17 -18 -34 -27 -52s-13 -32 -13 -42c0 -3 1 -4 2 -4zM74 84c5 3 8 6 10 9c2 2 3 4 3 6c0 1 -1 2 -3 2s-4 -1 -5 -3c-2 -2 -4 -4 -5 -7s-2 -5 -2 -6zM206 335h6s3 1 3 2c6 13 11 24 15 31c5 7 7 12 7 16l-4 5c0 1 2 2 5 2
c1 0 2 1 3 3c1 1 1 4 1 9c0 6 0 9 -1 9c-3 -2 -5 -4 -6 -6c-1 -3 -2 -5 -3 -8c-1 -2 -1 -4 -2 -5s-2 -2 -4 -2c-4 -2 -6 -4 -7 -7s-2 -5 -2 -7v-3c-1 -1 -1 -1 -2 -1l-18 -36zM65 76c-1 0 -1 0 -1 1v1h-1c7 26 13 46 19 59c5 10 8 18 8 25c0 3 2 5 7 7c3 0 5 1 6 4
c1 2 2 5 3 9c1 3 1 6 2 10c5 6 9 12 10 19l4 10c4 5 7 9 9 12c1 3 2 5 2 7c1 3 2 5 3 6c4 6 6 11 6 16l-2 7c0 1 1 3 3 6c2 2 4 5 7 8c4 3 8 7 11 11s4 8 4 11s1 6 4 9c2 3 5 6 8 9c1 2 3 4 4 6c1 1 2 2 2 3c2 7 6 14 11 21c3 4 5 8 8 13s4 9 4 14c0 1 1 2 2 5c1 2 2 4 4 7
c2 4 4 8 7 12c2 4 3 7 3 10c0 2 1 5 2 8s1 5 2 6c18 32 30 55 36 70c6 14 9 25 10 32l2 18c2 2 3 6 3 12c0 5 1 11 4 17c2 5 7 9 16 12c9 0 14 -1 16 -3l2 -1c1 -1 3 -1 5 -2s4 -1 6 -1c5 -2 8 -4 9 -5c1 -2 2 -5 2 -8l1 -24c0 -5 -1 -8 -3 -11s-4 -6 -6 -8s-3 -4 -3 -5
c0 -3 -1 -6 -3 -10c-3 -4 -6 -8 -9 -13s-6 -9 -9 -13s-4 -7 -4 -10c0 -1 -1 -4 -3 -9c-3 -5 -6 -12 -10 -19c-5 -9 -9 -17 -13 -25s-6 -14 -6 -17c0 -1 -1 -3 -2 -5s-3 -4 -4 -6c-2 -3 -4 -5 -5 -7s-2 -4 -2 -5c0 -3 -2 -7 -6 -13s-9 -13 -14 -21c-7 -10 -13 -20 -19 -29
c-6 -10 -9 -18 -9 -23c0 -3 -1 -6 -3 -10c-3 -5 -7 -12 -13 -21c-11 -17 -32 -52 -63 -105c-13 -28 -25 -52 -36 -73c-11 -22 -16 -34 -16 -36c-3 -6 -6 -12 -8 -17c-6 -19 -12 -28 -19 -28c-3 0 -5 1 -7 3c-2 1 -3 3 -3 6l5 4l-5 7c2 2 3 4 4 5c0 1 0 1 1 2h2v1h1
c0 1 0 1 1 2c0 1 1 3 2 5c3 5 5 13 8 24c0 2 1 3 3 4c1 1 3 1 4 1c2 1 4 1 5 2c1 0 1 1 1 2s0 1 -1 2h-3h-3zM211 -31c-16 0 -29 6 -40 19c-11 12 -17 27 -17 45c0 17 4 36 12 59c7 23 16 43 26 60s18 26 25 26l18 -4c3 0 5 0 7 1c1 1 3 2 5 3c3 3 8 5 15 8s17 5 32 6
c9 0 16 -1 20 -3s8 -6 12 -13c5 -5 8 -10 10 -13c1 -3 2 -7 2 -12v-25c0 -6 -1 -11 -3 -14c-1 -5 -4 -13 -9 -24s-11 -22 -17 -33c-5 -9 -10 -18 -13 -25c-4 -8 -6 -13 -6 -15c-6 -4 -10 -7 -13 -10s-6 -5 -8 -6c-1 -1 -3 -2 -4 -3s-3 -3 -5 -4c-1 0 -2 0 -4 -1s-4 -3 -5 -6
c-11 -11 -25 -16 -40 -16zM114 405c-7 0 -12 1 -16 4s-7 5 -9 8s-4 4 -5 4c-5 0 -9 2 -10 5s-2 7 -2 11c0 3 1 7 2 10s2 6 3 8c2 7 4 14 5 19c2 7 4 13 6 17c1 4 4 8 7 11c1 1 3 3 5 6c1 3 3 6 5 10c1 3 2 6 2 9l-1 3c0 6 2 11 5 15s8 8 13 13c1 2 3 4 5 6c3 4 7 7 10 8
s8 1 15 1h12c3 -1 5 -1 6 -2s1 -3 2 -5c0 -1 1 -3 4 -5s6 -4 10 -6c7 -4 15 -9 22 -14s10 -11 10 -18c0 -19 -4 -33 -11 -43c-8 -10 -16 -18 -24 -24c-9 -5 -13 -11 -13 -17c0 -5 -16 -15 -48 -32z" />
    <glyph glyph-name="ampersand" unicode="&#x26;" horiz-adv-x="535" 
d="M345 -123h-1c-5 0 -7 6 -7 14c0 17 7 28 12 54c-8 55 -38 117 -59 121c-4 0 -9 -3 -15 -7c-22 -13 -102 -57 -111 -57h-2c-7 0 -35 -12 -37 -16c0 -4 -4 -7 -6 -7l-63 -12c-10 2 -16 9 -16 40c0 24 4 25 9 43l-1 4c0 14 22 28 39 50c9 19 29 33 59 64c0 5 16 16 38 34
c-9 46 -15 61 -15 86l5 29l-2 9l3 12v23c0 22 26 63 59 92c48 44 186 110 237 110l31 -3c33 -6 24 3 29 -32l3 -22c0 -27 -11 -59 -82 -121c-26 -22 -36 -29 -43 -29l-6 2l-1 -2l2 -5c0 -22 -134 -120 -134 -136c3 -21 20 -47 36 -47c12 0 56 38 62 38c7 0 39 33 57 50
c20 34 29 26 43 34c22 19 33 26 41 26c3 0 6 -1 9 -3c4 -3 7 -6 7 -11c-3 -11 -7 -18 -7 -39c0 -37 -31 -52 -39 -52c-9 -14 -60 -64 -86 -75c-14 -5 -43 -25 -45 -32c21 -53 37 -95 37 -132c-1 -9 0 -5 -3 -15l2 -5c0 -8 -11 -34 -16 -38c-7 -21 -18 -37 -23 -37zM341 299
l7 9c0 3 0 3 -3 3c-4 -5 -6 -6 -7 -10c0 -2 1 -2 3 -2zM392 518c6 0 17 2 19 6c0 4 -3 4 -7 5c-7 0 -16 -6 -16 -10zM345 494c15 8 22 10 22 15c0 2 -1 3 -4 3c-12 -3 -19 -10 -19 -15zM307 473c21 7 32 15 32 21h-7c-19 -12 -12 -4 -27 -20zM218 410c3 0 13 6 25 16l31 23
c3 0 17 12 19 16c-16 0 -67 -39 -75 -55zM253 247c16 0 27 50 33 50l2 -2l-2 -5l3 -2c17 5 11 5 34 27c18 14 20 37 24 37l1 -5c0 -4 3 -6 7 -6c13 0 35 38 43 38c4 0 15 22 20 22h2c9 0 16 34 30 34c9 0 20 23 38 37c12 9 18 15 18 20c0 2 -9 5 -18 5
c-40 -10 -61 -6 -81 -16c-37 -14 -40 -11 -75 -32c-9 -9 -18 -14 -21 -14c-11 0 -90 -68 -99 -88c-5 -8 -8 -16 -8 -25c0 -23 11 -28 26 -55c0 -4 4 -11 11 -15zM119 11c4 0 9 3 9 7l-3 2c-5 -5 -10 -7 -10 -8zM103 22c8 0 26 6 31 10c4 3 6 7 6 11l-1 2s-42 -14 -42 -19z
M141 81c19 0 88 38 92 47c-14 23 -6 13 -26 31c-10 0 -54 -71 -71 -76c0 -1 2 -1 3 -1zM176 35c5 0 7 24 20 24c9 5 16 18 29 23c7 1 13 6 13 9l-3 2c-16 -2 -80 -35 -80 -40c12 -4 20 0 20 -12zM259 142l3 9c0 14 -7 14 -18 30l-3 -4c0 -5 15 -35 18 -35zM345 25l3 2
c0 5 -23 49 -33 49c-3 0 -3 -2 -5 -7c0 -7 11 -7 22 -28c7 -11 11 -16 13 -16z" />
    <glyph glyph-name="quotesingle" unicode="'" horiz-adv-x="169" 
d="M45 353c-3 0 -5 0 -5 2c28 77 37 55 37 77c0 29 36 117 36 135v1c0 7 0 7 14 7c13 0 16 -2 18 -11c12 -18 24 -20 24 -30l-4 -13c-4 -10 3 -25 -16 -48c-31 -54 -14 -27 -49 -82c0 -7 -48 -38 -55 -38zM96 412c5 6 6 7 6 11v2c-7 -6 -4 -4 -7 -11zM109 432c2 0 5 4 5 8
l-1 3c-6 -3 -4 0 -6 -7zM118 452v12l-2 -6z" />
    <glyph glyph-name="parenleft" unicode="(" horiz-adv-x="344" 
d="M166 -18c-17 0 -54 9 -66 17c-11 7 -36 29 -36 32c-20 44 -21 34 -24 99c0 31 4 38 8 44l-6 14c0 5 2 10 4 13c19 39 19 73 25 86c16 24 28 66 41 88c0 10 34 60 34 68c6 18 15 23 22 39c77 140 89 142 100 154c13 8 17 23 31 23c7 0 10 -7 15 -7c6 0 22 -16 22 -25
c0 -4 8 -4 8 -7c0 -12 -71 -51 -78 -79c-14 -28 -49 -74 -63 -102c-7 -7 -23 -43 -30 -43c0 0 -6 -16 -17 -31l4 -8c0 -3 -17 -8 -17 -20l3 -5c0 -12 -16 -35 -27 -43c0 -5 6 -2 6 -8c0 -11 -5 -11 -12 -17l2 -7l-4 -4c-2 0 -2 3 -6 6v-4c0 -4 8 -5 8 -10
c0 -7 -6 -12 -17 -30l6 -15c-7 -37 -14 -53 -14 -88c4 -46 9 -69 24 -84c7 -6 69 -19 69 -28l-5 -7l2 -3c0 -7 -6 -7 -12 -8zM59 191l6 9l-3 1c-2 0 -5 -3 -5 -7c0 -2 1 -3 2 -3zM171 459c9 9 5 4 11 16h-7l-4 -9v-7zM149 420c1 0 9 10 9 11l-5 1c-3 0 -5 -2 -5 -7zM137 394
c4 0 11 11 11 18c0 0 -14 -9 -14 -16c0 -1 1 -2 3 -2zM103 320c4 11 16 29 16 38v2c-10 -5 -1 -10 -12 -21c-4 -4 -4 -11 -4 -14v-5zM91 291c3 3 3 5 3 7l-1 3c-3 -1 -4 0 -4 -7c0 -3 0 -3 2 -3zM66 125c4 4 5 5 5 15v3c-3 -5 -7 -7 -7 -15c0 -2 1 -3 2 -3zM69 155
c5 15 3 7 7 23c0 3 -1 5 -2 5c-5 -4 -5 -6 -5 -19v-9zM77 188v15l-5 -10zM76 258c8 6 13 13 13 22l-3 6c-8 -7 -4 -4 -8 -15zM83 231c3 0 11 18 12 23c0 2 -1 3 -3 3c-3 0 -9 -19 -9 -25v-1zM96 260c4 2 7 12 7 18v2c-12 -7 -7 -4 -11 -17c0 -2 1 -3 4 -3zM102 286
c6 0 26 37 26 49c0 3 -1 4 -3 4c-5 -8 -9 -11 -9 -20c-9 -12 -16 -28 -16 -30s1 -3 2 -3zM127 377c3 0 7 4 7 7v6c-6 -8 -9 -8 -9 -12zM133 355c13 5 31 44 31 54l-1 2c-9 -10 -15 -15 -15 -22c0 -5 -14 -20 -14 -29zM168 446l3 3c-2 4 -1 5 -4 5c-1 0 -2 -1 -2 -3
c0 -3 1 -5 3 -5zM171 425c5 0 10 15 16 21c4 0 6 6 6 13c0 3 0 5 -2 5c-6 0 -6 -10 -18 -27zM197 469c4 0 17 21 17 27l-1 1c-12 -11 -6 -7 -15 -20z" />
    <glyph glyph-name="parenright" unicode=")" horiz-adv-x="344" 
d="M218 659c17 0 54 -9 65 -17c12 -7 37 -29 37 -32c19 -44 21 -34 24 -100c0 -30 -4 -37 -8 -43l6 -14c0 -5 -2 -10 -4 -13c-20 -39 -19 -73 -25 -86c-16 -24 -28 -66 -41 -88c0 -10 -34 -60 -34 -68c-6 -18 -15 -23 -23 -39c-76 -140 -88 -142 -99 -154
c-13 -8 -18 -23 -31 -23c-7 0 -10 7 -15 7c-7 0 -22 16 -22 25c0 4 -8 4 -8 7c0 12 71 51 78 79c14 28 49 74 63 102c7 7 23 43 30 43c0 0 6 16 17 30l-4 9c0 3 16 8 16 20l-2 5c0 12 16 35 27 43c0 5 -6 2 -6 8c0 11 5 11 12 17l-2 7l3 4c3 0 3 -3 6 -6l1 4c0 4 -8 4 -8 10
c0 7 5 12 16 30l-5 15c7 37 14 53 14 88c-5 46 -9 69 -24 84c-7 6 -69 19 -69 28l5 7l-2 3c0 7 5 7 12 8zM325 450l-6 -9l3 -1c2 0 5 2 5 7c0 2 -1 3 -2 3zM213 182c-9 -9 -5 -4 -12 -16h8l4 9v7zM235 221c-1 0 -9 -10 -9 -11l5 -1c3 0 5 2 5 7zM247 247
c-4 0 -11 -11 -11 -18c0 0 14 9 14 16c0 1 -1 2 -3 2zM281 321c-4 -12 -16 -29 -16 -38v-2c10 5 1 10 12 21c4 4 4 11 4 13v6zM293 349c-3 -2 -3 -4 -3 -6l1 -4c3 2 4 1 4 8c0 2 0 2 -2 2zM318 516c-4 -4 -5 -6 -5 -15v-3c3 5 7 7 7 15c0 2 -1 3 -2 3zM315 486
c-6 -15 -3 -7 -7 -23c0 -3 1 -5 2 -5c4 4 5 6 5 18v10zM307 453v-15l5 10zM308 383c-9 -6 -13 -13 -13 -22l3 -6c8 7 4 4 8 15zM301 410c-3 0 -11 -18 -12 -23c0 -2 1 -3 3 -3c3 0 9 19 9 25v1zM288 381c-4 -2 -7 -13 -7 -18v-2c11 7 7 4 11 16c0 3 -1 4 -4 4zM282 355
c-6 0 -26 -37 -26 -49c0 -3 1 -4 2 -4c6 8 10 11 10 20c9 12 15 27 15 30c0 2 0 3 -1 3zM257 264c-3 0 -8 -4 -8 -7l1 -6c6 8 8 8 8 12zM251 286c-13 -5 -31 -44 -31 -54l1 -2c9 10 15 15 15 22c0 5 13 20 13 29zM216 195l-3 -3c2 -4 1 -5 4 -5c1 0 2 1 2 3c0 3 -1 5 -3 5z
M212 216c-4 0 -9 -15 -15 -21c-4 0 -7 -7 -7 -13c0 -3 0 -5 3 -5c6 0 5 10 18 27zM187 172c-4 0 -17 -22 -17 -27l1 -1c12 11 6 7 15 20z" />
    <glyph glyph-name="asterisk" unicode="*" horiz-adv-x="299" 
d="M183 443c-7 0 -14 19 -18 32c-4 0 -6 29 -12 34c-6 7 -10 27 -13 27c-4 0 -8 -5 -14 -12l-4 4c-3 0 -5 -4 -14 -12c-9 0 -43 -52 -52 -52l13 37c-2 0 -11 -24 -15 -28c-5 -6 -10 -10 -13 -10l-1 3c3 3 1 8 3 15l3 -4c29 52 13 32 49 82c4 5 6 9 9 9l9 13l6 -3
c2 9 4 2 10 9c0 8 -15 43 -28 51c-5 6 -7 8 -7 12l4 10l6 -3c17 0 18 -7 27 -7l22 -23c5 0 7 16 12 20c0 0 9 13 9 25c8 8 13 45 18 50c3 3 12 5 19 5c4 0 7 -1 8 -2c5 -3 16 -8 16 -19c-19 -48 -11 -23 -36 -70c2 0 4 0 4 5c15 17 25 19 55 38c1 2 4 3 9 3
c17 0 20 -5 29 -12c3 0 3 -2 3 -7c0 -12 -5 -9 -25 -22c0 -4 -31 -12 -55 -41l-43 -36c-7 -7 -9 -10 -9 -13c22 -54 17 -28 24 -83c0 -14 -3 -25 -8 -25zM78 510l4 6h-3c-1 0 -1 0 -3 -5z" />
    <glyph glyph-name="plus" unicode="+" horiz-adv-x="387" 
d="M127 73c-11 4 -15 6 -15 12c10 43 8 53 19 86c0 17 13 38 13 50v2c-1 6 -6 7 -12 7l-20 -2c-50 7 -61 18 -72 48c3 6 3 7 12 7l13 -1c29 0 39 3 77 5l15 -2c15 0 29 39 32 65c5 10 14 25 14 34c2 14 7 44 21 44c7 0 6 2 13 7c2 -15 12 -6 16 -14c0 -4 14 -2 14 -13
c-5 -29 -13 -74 -30 -107v-10c7 3 21 3 30 3c44 0 54 -5 88 -9l7 2c16 0 21 -13 25 -23c0 -11 -29 -14 -53 -14l-15 1c-14 0 -20 -4 -33 -8l-6 1c-13 0 -43 -5 -61 -5c-23 0 -17 -14 -34 -31c-18 -27 -12 -28 -23 -55v-4l-13 -34c-2 -12 -9 -42 -22 -42zM142 155
c7 0 14 18 14 22l-6 8c-2 0 -6 -7 -8 -9l-4 -16c0 -3 1 -5 4 -5zM156 192c10 0 17 21 25 38c0 2 -1 2 -5 3c-11 0 -9 -14 -14 -19c-3 -1 -10 -12 -10 -17zM206 299l2 2l-3 4c-2 0 -4 0 -4 -2z" />
    <glyph glyph-name="comma" unicode="," horiz-adv-x="169" 
d="M45 -132c-3 0 -5 0 -5 2c28 77 37 55 37 77c0 29 36 117 36 135v1c0 7 0 7 14 7c13 0 15 -2 18 -11c12 -18 24 -20 24 -30l-4 -13c-5 -10 3 -25 -16 -48c-31 -54 -14 -27 -50 -82c0 -7 -47 -38 -54 -38zM96 -73c5 6 6 7 6 11l-1 2c-6 -6 -3 -4 -6 -11zM109 -53
c2 0 5 4 5 8l-1 3c-7 -3 -4 0 -6 -7zM117 -33v12l-1 -6z" />
    <glyph glyph-name="hyphen" unicode="-" horiz-adv-x="334" 
d="M150 138h-95c-7 4 -15 14 -15 22l1 21l-1 9c0 7 3 10 14 10l65 -7l13 2c32 0 47 -2 47 -7l-1 -2c0 -8 6 -6 24 -9c9 2 14 3 14 5c-20 5 -29 6 -29 9c4 6 6 7 29 7c44 0 83 -15 93 -15l1 1c11 0 24 -20 24 -31c0 -3 -1 -5 -4 -6h-69c-6 -2 -14 -2 -18 -2
c-5 0 -39 -7 -93 -7zM253 179l2 3c0 5 -9 6 -23 6c-6 0 -10 -1 -10 -2c0 -4 27 -7 31 -7z" />
    <glyph glyph-name="hyphen" unicode="&#xad;" horiz-adv-x="334" 
d="M150 138h-95c-7 4 -15 14 -15 22l1 21l-1 9c0 7 3 10 14 10l65 -7l13 2c32 0 47 -2 47 -7l-1 -2c0 -8 6 -6 24 -9c9 2 14 3 14 5c-20 5 -29 6 -29 9c4 6 6 7 29 7c44 0 83 -15 93 -15l1 1c11 0 24 -20 24 -31c0 -3 -1 -5 -4 -6h-69c-6 -2 -14 -2 -18 -2
c-5 0 -39 -7 -93 -7zM253 179l2 3c0 5 -9 6 -23 6c-6 0 -10 -1 -10 -2c0 -4 27 -7 31 -7z" />
    <glyph glyph-name="period" unicode="." horiz-adv-x="129" 
d="M60 -25c-9 2 -8 16 -13 16c-4 2 -7 5 -7 12c3 25 2 12 10 38c5 5 8 16 8 25l3 23c3 2 12 3 21 3c40 0 47 -12 47 -27c-2 -29 -10 -25 -35 -65c-5 -2 -8 -6 -8 -9c0 -4 -19 -16 -26 -16z" />
    <glyph glyph-name="slash" unicode="/" horiz-adv-x="434" 
d="M87 -37c-20 0 -25 27 -34 27c-6 0 -13 5 -13 13c0 7 4 10 4 16c0 14 11 9 11 18c5 23 10 28 16 46c7 20 12 27 21 50c7 13 20 38 43 97c50 80 20 39 70 132c48 104 73 127 109 197c0 2 5 7 9 11c14 39 23 37 55 100c0 9 6 14 18 25c4 -7 4 -11 16 -11c4 0 22 -16 22 -30
c0 -13 -9 -18 -20 -41c-9 0 -23 -27 -55 -90c0 -12 -13 -25 -31 -50c-5 -27 -30 -36 -30 -59c0 -16 -23 -23 -23 -34c0 -9 -6 -7 -6 -11c0 -5 -5 -5 -9 -7c0 -5 4 -5 4 -7c0 -7 -16 -30 -16 -30c-4 0 -11 -18 -11 -24c0 -9 -4 -7 -25 -25l-2 -5l9 -9c-5 -20 -14 -18 -27 -48
c0 -9 -21 -43 -25 -43l-3 9c-4 0 -13 -18 -18 -38c0 -2 0 -2 2 -2c3 0 14 22 14 22l2 -2c0 -9 -6 -16 -18 -34l-4 2c-5 0 -12 -13 -12 -20s9 -2 9 -7c-2 -7 -2 -11 -6 -11c-5 0 -5 6 -7 6c-5 0 -9 -9 -12 -24l3 -3l9 12c2 0 2 -3 2 -5c-5 -21 -1 -13 -16 -43
c-2 -2 -4 -2 -4 -7c0 -27 -2 -20 -7 -38c-2 -16 -7 -23 -14 -25zM105 42l3 3l-1 3c-3 -3 -3 -2 -3 -4c0 -1 0 -2 1 -2zM185 221c2 0 2 5 2 7c0 5 0 5 -2 5l-3 -7zM291 423c2 0 3 1 3 3l-1 3c-3 -3 -3 -2 -3 -4c0 -1 0 -2 1 -2zM69 19c6 0 21 26 27 55c15 40 10 23 30 63
c4 7 16 32 16 37c0 10 24 39 29 59c0 7 32 61 32 68c0 0 27 44 27 52c0 4 14 21 14 29c0 9 22 31 31 59c0 9 10 14 10 18c0 7 18 28 18 41l-2 1c-12 -8 -28 -36 -28 -46c0 -3 -2 -5 -4 -5c0 0 -19 -21 -28 -47c0 -10 -15 -21 -15 -30c0 -8 -13 -20 -16 -32
c-5 -2 -18 -27 -18 -34c0 -2 -3 -6 -7 -9c-26 -47 -66 -123 -66 -129l-23 -54c0 -4 -15 -33 -29 -84c0 -5 0 -9 2 -12zM307 513l6 10c-6 0 -6 -3 -6 -7v-3zM319 536c9 6 4 3 11 12c0 1 -1 2 -2 2c-5 0 -9 -7 -9 -11v-3z" />
    <glyph glyph-name="zero" unicode="0" horiz-adv-x="330" 
d="M127 -48c-30 2 -60 11 -73 38c-12 25 -14 34 -14 45c0 26 11 56 20 98c5 4 4 13 10 27c9 0 17 32 29 79c5 5 3 14 25 52c4 10 7 16 7 21l-5 54c18 35 19 37 27 50c0 17 53 46 91 46c27 0 19 -4 36 -14c14 0 30 -30 37 -43c10 -18 10 -47 13 -110c0 -10 -2 -14 -4 -19
c-8 -36 -12 -59 -31 -103l1 -4c0 -2 -2 -9 -4 -11l-27 -52c0 -11 -19 -32 -19 -32c-17 -33 -11 -16 -27 -48c-5 -5 -2 -9 -7 -9c-8 0 -36 -65 -85 -65zM301 354c1 0 2 2 2 3c0 2 -1 4 -2 4s-2 -2 -2 -4zM149 357c5 0 2 2 4 7c9 0 5 5 10 14l20 28c0 1 0 1 -2 1
c-6 0 -24 -27 -34 -49zM110 228c3 0 3 2 3 5l-1 1l-3 -6h1zM94 187l3 7h-3v-7zM74 130c15 30 6 14 16 48c-12 -19 -17 -37 -17 -46zM66 35c7 23 3 11 6 35c0 3 0 4 -1 4c-4 0 -4 -2 -4 -5c0 -5 -4 -10 -4 -20c0 -7 1 -14 3 -14zM74 81c9 0 6 15 30 81c3 23 1 12 11 34
c15 42 25 60 33 87c-2 -4 -6 -6 -6 -10c0 0 -42 -72 -72 -185zM90 -8c10 10 31 7 57 39c13 13 18 7 18 11c0 3 9 8 29 48c5 0 16 22 16 29c11 23 10 5 34 66c3 0 10 44 21 54c7 16 13 36 13 41c-2 0 -2 2 -2 7c3 11 4 29 4 48c0 70 -16 93 -22 93c-4 0 -6 -1 -6 -3l8 -14
c0 -4 -3 -6 -7 -6c-26 -6 -35 -22 -63 -73c-7 -7 -16 -25 -16 -29c5 -10 9 -11 9 -23c0 -2 -1 -4 -2 -4l-15 4c-15 0 -17 -38 -26 -47c-11 -12 -12 -41 -18 -41c-16 -81 -18 -41 -37 -114c-5 -5 -2 -9 -7 -57c0 -21 5 -29 12 -29zM208 58c2 0 4 2 4 4l-1 2
c-4 -2 -5 -4 -5 -4c0 -2 2 -2 2 -2zM236 106c6 2 4 6 10 6c5 3 5 5 5 12c0 4 -2 6 -3 6zM253 133l9 9c6 0 9 7 11 19l-2 3c-4 0 -5 -21 -11 -21l-5 1v-7zM280 179c5 2 5 4 5 8v4l-7 -11zM288 194l4 3c0 7 -1 17 -2 17c-3 0 -5 -6 -5 -12s0 -8 2 -8h1zM216 65c4 9 1 13 5 13
c2 0 10 15 10 18h-1c-3 0 -4 -6 -11 -13l-2 2c6 19 14 27 14 27c26 53 27 36 49 93c0 7 14 30 14 52c3 0 5 7 5 11c3 31 2 26 10 54l-4 10c-2 -7 -2 -15 -9 -15c-4 3 -4 20 -4 38l1 14c0 30 -8 52 -21 58l-2 -2c8 -22 12 -36 15 -79c0 -40 5 -28 5 -37
c-13 -125 -23 -92 -23 -104c-2 0 -2 -2 -5 -7c-3 -34 -18 -49 -31 -68c0 -14 -21 -24 -24 -38c0 -13 6 -27 9 -27zM295 214c23 37 24 72 24 105l-2 11v-8c0 -28 -9 -62 -14 -74c-6 -12 -4 -21 -9 -31c0 -2 1 -3 1 -3zM319 339c0 2 0 7 -2 11z" />
    <glyph glyph-name="one" unicode="1" horiz-adv-x="217" 
d="M81 -21c-14 7 -14 16 -23 16c-11 0 -18 18 -18 32l16 68c7 0 4 13 11 34c2 2 2 7 2 9c16 34 7 18 21 56l45 139c0 2 -4 2 -11 2h-7c-14 0 -20 9 -20 27l2 23c4 0 25 29 29 29c5 0 5 12 12 12c2 0 4 2 4 4c9 25 18 16 18 28c7 0 7 13 12 18c9 0 9 -5 20 -9
c9 0 12 -7 16 -12c6 0 6 -1 6 -5l1 -8c-14 -32 -7 -16 -16 -48c-11 0 -14 -50 -32 -86l-25 -95c0 -12 -13 -25 -13 -48c0 -7 0 -14 -3 -14c-6 -27 -2 -13 -11 -40c-2 -3 -2 -7 -2 -9c-7 -19 -23 -107 -30 -121zM92 170c6 15 4 8 7 24c-7 -14 -6 -7 -11 -24h4zM79 132
c2 0 2 6 9 19l-1 10l-2 -1zM67 90l1 6l-3 -6h2zM69 20l32 104c0 6 12 26 12 36c0 0 2 12 9 30c0 4 2 11 4 14c13 46 23 65 23 94c0 5 -1 8 -2 8c0 0 -57 -165 -57 -182c0 -2 0 -4 -2 -4c-8 -25 -21 -59 -21 -93c0 -5 1 -7 2 -7zM152 313c7 7 7 5 14 53
c-10 -9 -17 -48 -17 -51z" />
    <glyph glyph-name="two" unicode="2" horiz-adv-x="336" 
d="M137 74l12 14c9 9 15 16 19 18c14 10 24 21 30 32c1 2 5 6 12 13c5 4 8 7 8 9c26 26 39 47 39 62c-1 -2 -4 -5 -8 -9c-3 -5 -6 -7 -8 -7v2l-2 -2c0 -4 -1 -7 -2 -9c-4 -5 -8 -8 -12 -9c0 -4 -2 -7 -5 -10s-7 -6 -11 -11c-4 -8 -17 -25 -40 -51c-19 -22 -30 -36 -32 -42z
M264 233c4 7 6 13 6 18c-2 0 -5 -5 -8 -16zM137 108c5 11 10 16 15 16c0 -2 -2 -4 -6 -7c-3 -4 -7 -6 -9 -9zM125 93c0 1 1 3 2 5l4 4s2 2 3 2zM62 -5c-5 3 -8 7 -10 12c-1 5 -3 10 -6 13c-4 1 -6 5 -6 10s1 9 4 12c2 2 3 4 4 5c1 5 6 8 13 11c20 6 35 9 44 9
c1 0 10 8 25 23c39 40 68 73 87 99l-4 4c0 4 4 11 13 18c9 8 13 13 13 15c6 16 14 27 22 33c2 1 6 8 11 21s8 20 9 21c0 1 1 3 2 6c3 13 5 22 5 25s0 5 1 8c1 2 2 5 3 10s3 11 6 19c1 4 2 9 3 15c1 5 1 16 1 33c-19 0 -32 -2 -39 -5s-17 -10 -28 -20c-5 -5 -12 -10 -20 -15
c-8 -6 -14 -12 -18 -18c-5 -6 -8 -12 -11 -17c-3 -6 -6 -9 -9 -9c-8 0 -13 3 -15 8c-3 8 -5 18 -5 30c2 7 5 14 10 19c7 10 10 18 10 24c5 9 19 19 41 30c1 3 3 4 5 5s4 1 6 2c2 0 3 1 3 2c6 6 15 10 27 11l16 3c15 0 26 -5 33 -15c7 -11 14 -23 19 -38c5 0 8 -15 9 -45
c-3 -26 -6 -46 -9 -59c-1 -7 -2 -13 -2 -16l-17 -40l-17 -32c-2 -8 -8 -17 -18 -27c-19 -24 -32 -40 -39 -47c-49 -51 -73 -78 -73 -82c10 -1 18 -2 25 -3c6 -1 12 -1 19 -1c6 -1 15 -2 26 -3c3 1 6 2 9 4l27 1c4 0 6 -1 6 -3v-3c0 -5 1 -8 2 -8c3 -3 4 -7 4 -14
c0 -9 1 -14 3 -14l1 -8l-1 -10c-2 -2 -4 -3 -5 -3c-14 3 -24 6 -30 8c-7 1 -12 3 -17 4s-12 1 -19 2h-31c-41 0 -78 -6 -109 -18z" />
    <glyph glyph-name="three" unicode="3" horiz-adv-x="326" 
d="M187 -21c-35 0 -44 4 -80 18c-18 6 -66 48 -66 80l-1 9c4 15 7 20 14 20l3 -3l-2 -6c0 -18 27 -41 39 -44l-3 -6c10 -9 65 -24 100 -28c19 6 32 10 36 19l28 18c11 5 22 25 31 55c3 13 7 29 9 31l2 19c0 20 -3 47 -6 54c-7 7 -25 16 -39 16c-78 0 -53 -7 -65 -7
c-28 0 -15 -3 -37 -5c-27 0 -26 9 -31 21c-3 11 -5 10 -5 25c0 20 38 48 42 48c1 0 1 -1 1 -3c0 -7 -6 -4 -8 -12l8 8l3 -1c6 0 6 6 22 19c14 12 20 17 20 19l-2 1c-13 0 -9 -6 -13 -11l-8 -2l-4 2v2c18 10 23 17 27 17l5 -5c27 25 48 36 48 45l-2 5c3 3 4 0 4 4l-2 1
c-11 0 -64 -20 -86 -20c-19 2 -27 5 -28 29c0 4 1 7 12 19c6 11 75 18 90 25c12 4 30 7 44 7c10 0 18 -2 20 -4l-2 -9c12 -17 21 -21 21 -36c-8 -38 -6 -25 -31 -42c-11 -16 -33 -32 -88 -72c-4 -4 -16 -16 -16 -18l25 -5c2 -2 14 -2 23 -4c32 -3 52 -24 52 -32
c28 -22 29 -62 33 -123l-1 -13l-7 -2c-2 0 -2 -3 -2 -14l1 -13c-5 -22 -1 -13 -13 -32c-5 0 4 -1 -32 -37c-3 -3 -21 -11 -49 -18c-12 -7 -19 -9 -34 -9zM196 438c4 0 11 2 11 4h-9l-5 -2zM138 284c5 3 4 1 6 5l-7 -2c0 -2 0 -3 1 -3zM181 -6c41 0 53 16 71 28
c3 0 12 14 12 16c-30 -20 -53 -38 -80 -38l-16 2c-13 0 -20 -1 -20 -2l20 -5zM284 38c13 16 8 8 13 26c-2 0 -5 -11 -8 -15zM182 310l6 1c4 0 5 0 23 15c39 20 30 23 37 36l-25 -18c-9 0 -30 -27 -32 -27c-4 0 -5 -3 -9 -7zM166 321l-2 1v1l3 2l2 -2c0 -1 -1 -2 -3 -2z
M230 374v2s0 2 2 2v-2c0 -2 0 -2 -2 -2zM247 386l-2 2c0 1 1 2 2 2l2 -2z" />
    <glyph glyph-name="four" unicode="4" horiz-adv-x="335" 
d="M230 -23c-9 0 -18 11 -18 11l-2 -1c-17 8 -20 22 -20 39c4 31 11 44 11 60l9 38c6 12 3 24 7 27l7 28c0 1 -2 2 -4 2c-84 -24 -58 -31 -152 -51c-17 9 -28 9 -28 33c0 21 19 6 43 50c11 17 18 19 32 47c0 6 7 11 18 32c5 0 4 9 9 9c0 12 2 7 18 34c4 4 3 16 9 23
c2 0 5 2 5 4l-1 3c0 19 21 34 48 102c4 0 11 20 16 20c3 16 3 25 18 25c7 0 25 -11 30 -18c3 -6 5 -15 5 -22c0 -4 -1 -7 -3 -8c0 0 -19 -17 -43 -56c-10 -11 -35 -54 -43 -75c-5 -15 -17 -28 -23 -39c-3 -11 -26 -42 -41 -61c0 -5 -2 -9 -4 -9c-6 -4 -18 -28 -18 -33l50 19
c4 5 11 7 13 7c6 0 0 5 25 5c9 4 5 4 23 9c0 2 2 2 7 2c28 9 27 79 38 79l14 43c2 7 2 10 7 10c9 0 9 -12 9 -12c4 0 1 9 6 9c14 -10 8 -4 19 -18c2 0 4 -9 4 -17s-1 -15 -4 -17c-8 -26 -1 -16 -14 -41c0 -4 -3 -10 -8 -25c0 -6 6 0 6 -9c0 -8 11 0 11 -11
c5 -10 14 -6 14 -11c-5 -13 0 -9 -46 -14c-14 -22 -9 -18 -13 -34c-21 -52 -15 -50 -21 -66c-15 -75 -12 -37 -15 -107c0 -11 -4 -15 -10 -15zM97 190c0 0 58 66 72 109c3 3 21 29 21 38l-1 3c-20 -23 -8 -12 -24 -39c0 -3 -14 -22 -41 -66c-23 -23 -18 -21 -30 -43
c0 -1 1 -2 3 -2zM219 11c12 43 10 65 14 68c7 23 3 13 7 36c13 14 3 28 22 66l3 9c0 3 -1 6 -3 6c-24 -19 -11 -29 -32 -90c-6 -19 -13 -64 -13 -84c0 -7 0 -11 2 -11zM106 256l-1 2l2 2l1 -2z" />
    <glyph glyph-name="five" unicode="5" horiz-adv-x="471" 
d="M263 18v2h-2c0 -1 1 -2 2 -2zM193 256c5 0 12 14 21 43c1 3 2 6 2 9c-2 0 -5 -3 -8 -9c-5 -14 -10 -28 -16 -42zM291 36l7 6c9 5 13 9 13 11c0 3 5 9 15 19c19 17 28 30 28 39l7 19c-15 -19 -28 -35 -40 -49c-21 -24 -32 -39 -32 -44zM281 29v1c0 1 0 1 1 1l-1 2l-2 -4h2
zM233 23c29 13 49 25 60 35c10 9 17 19 22 28l-2 2v-1c-1 -1 -1 -2 -2 -3c0 -2 -8 -8 -22 -20c-20 -18 -34 -28 -43 -31c-9 -4 -13 -8 -13 -10zM310 273l-15 5l14 1c3 0 4 -1 4 -3s-1 -3 -3 -3zM266 272h-3v2v1c0 1 1 1 3 1v-4zM175 -7c-22 1 -40 4 -55 9s-30 14 -45 29
c-23 22 -35 39 -35 53c1 5 2 10 2 16c1 6 5 11 13 14l5 3c4 -1 7 -1 10 -1c2 0 3 -1 3 -3s0 -3 1 -4c0 0 1 -1 1 -4l-8 -30c2 -11 6 -17 13 -17c7 -3 11 -5 13 -6c1 -1 3 -2 4 -2c1 -1 3 -1 6 -2c2 -1 6 -3 11 -5c-8 0 -18 2 -30 6c0 -1 1 -2 3 -3c1 -1 3 -3 6 -4
c3 -2 5 -3 7 -3c2 -1 5 -2 9 -3c10 -4 29 -8 57 -12c26 0 49 5 70 14c17 0 37 14 61 42l-9 -3c0 3 4 8 13 17c3 2 5 5 8 8c0 6 1 9 4 9c5 7 11 14 18 21c6 7 10 31 13 74c0 8 0 14 -1 19s-5 7 -10 7c-40 -7 -71 -15 -92 -23c-10 -4 -19 -7 -25 -8c-11 0 -17 1 -20 2
c-2 1 -4 4 -5 9c-1 0 -2 0 -4 1c-2 0 -3 1 -3 4c-10 5 -16 16 -20 35c0 13 14 46 42 100c16 32 24 50 24 53l-14 -6c0 4 6 11 18 21c6 6 9 9 9 10l-3 3c0 2 1 4 4 5c10 4 18 15 24 33c0 2 2 3 5 3c6 -1 10 -3 11 -4c2 -2 5 -4 9 -6c4 0 7 -2 8 -5s2 -6 4 -8
c5 -6 10 -9 15 -9l5 1l-3 -4l7 -1c57 5 88 8 91 10l18 -2c2 0 4 -2 7 -7c0 -2 2 -5 7 -8c7 -7 11 -13 11 -17s1 -7 4 -8c2 -1 3 -2 4 -3l-1 -7c-2 -2 -8 -3 -18 -3l-23 1c-24 0 -49 -1 -74 -4c-21 -2 -44 -3 -69 -3c-5 0 -13 -13 -26 -38l-27 -50c-11 -23 -16 -35 -17 -35
l-2 2l2 3v6c3 2 5 7 8 14l-1 3c-1 0 -4 -5 -8 -15c-4 -11 -6 -18 -6 -21l4 4l10 -4c14 9 38 13 72 13c11 0 18 -1 23 -2s8 -2 10 -3c1 -1 3 -2 4 -3s2 -1 4 -1c5 -2 11 -6 17 -13s11 -15 16 -22c4 -7 6 -12 7 -14c0 -3 1 -5 3 -8c1 -3 3 -7 4 -10s1 -8 1 -15
c0 -43 -6 -66 -18 -69l2 -3c0 -1 0 -3 -1 -6s-2 -5 -3 -7s-2 -3 -3 -3l-2 2l2 3c-3 -1 -4 -2 -5 -3s-2 -3 -3 -4l1 -2c0 -2 -3 -6 -10 -11c-13 -13 -19 -20 -19 -23c-3 -3 -6 -6 -8 -7l-5 -5c-2 -1 -4 -3 -6 -5c-3 -2 -6 -5 -11 -8c-7 0 -12 -3 -16 -9c-3 -3 -6 -5 -7 -5
c-4 0 -8 -1 -12 -2l-3 2c-1 0 -4 -1 -7 -2c-9 -5 -14 -9 -14 -12c-8 -2 -29 -4 -61 -6z" />
    <glyph glyph-name="six" unicode="6" horiz-adv-x="346" 
d="M176 60c-2 0 -2 1 -2 2l3 3l1 -3c0 -1 -1 -2 -2 -2zM160 -18c-32 3 -75 19 -75 31c-8 0 -45 59 -45 98c2 44 11 52 11 52c0 27 19 59 68 147c15 22 15 25 18 25c34 43 51 68 55 68l62 50c0 2 -3 2 -9 3c6 7 11 2 30 7c9 0 25 -7 30 -12c36 -33 36 -45 41 -66l-36 5
c0 3 -1 3 -4 3h-2c-1 0 -4 0 -6 1c0 6 3 2 4 8l-1 8c-41 -9 -34 -9 -57 -27c-4 0 -18 -23 -23 -23c-6 -7 -59 -75 -63 -86c-19 -19 -17 -22 -32 -55c0 -1 1 -2 3 -2l33 7c5 0 7 0 7 2c0 4 2 5 7 5c8 -2 5 1 11 -4c1 3 2 4 3 4l2 -1c7 -2 12 -11 23 -11l3 1l-1 2c0 2 2 2 4 2
c0 0 72 -39 80 -79l3 -21c-5 -19 -2 -10 -10 -27c-4 -4 -27 -31 -27 -41s-9 -18 -37 -32c-10 0 -21 -6 -43 -34c0 -2 -4 -4 -9 -6zM108 231l-1 6l-4 -4zM92 204c2 0 2 2 2 4v3zM67 181c2 0 2 2 2 4l-1 2c-4 -2 -5 -4 -5 -4c0 -2 2 -2 4 -2zM280 139c1 0 3 1 3 3
c0 5 0 5 -3 5l-2 -5c0 -2 1 -3 2 -3zM251 71c11 3 36 29 36 42c-6 0 -10 -8 -27 -30c-7 -5 -10 -9 -10 -11zM203 49c15 8 18 9 25 16c0 7 50 52 50 64c0 4 -2 4 -2 4c-8 0 -59 -63 -59 -63c-2 0 -14 -18 -14 -21zM162 185c5 5 3 2 6 6l-3 1c-6 -3 -4 0 -6 -6zM114 39
c28 0 34 10 53 19v-2c0 -4 0 -4 4 -4c12 3 19 23 25 29c5 2 7 7 7 7c14 13 23 10 23 20c7 0 30 26 30 40c-3 18 -2 27 -7 27l-5 -1c-9 2 -4 0 -12 4c-5 -6 -62 -7 -97 -29c-34 -22 -19 -12 -47 -41c-5 0 -5 -4 -7 -13l-2 -29c2 -17 2 -27 35 -27zM102 161c9 2 17 2 17 6
l29 19c-16 -2 -34 -14 -47 -21c0 -3 0 -4 1 -4zM122 258l-1 8l-2 -1c0 -5 0 -7 3 -7z" />
    <glyph glyph-name="seven" unicode="7" horiz-adv-x="347" 
d="M70 -53c-16 4 -20 22 -25 28c-4 1 -5 9 -5 19c0 16 3 35 5 35s2 2 2 2c0 6 14 39 14 39c0 2 2 4 4 7c17 44 25 49 25 56c21 39 22 52 32 61c29 59 57 79 57 93c6 12 13 17 18 30l34 48c8 16 21 18 21 23l-1 2c-34 -4 -46 -8 -78 -8c-44 0 -62 12 -76 23
c-11 9 -9 7 -11 32c0 5 0 7 2 7l7 2c4 0 4 -7 9 -7c3 -1 24 -3 46 -3c56 2 151 9 151 27h-1c-5 0 -22 -4 -24 -8l-11 1c0 2 14 7 43 15c2 0 2 -2 2 -4l5 -7c2 0 2 2 2 4v3c10 0 13 -21 20 -21c6 -11 10 -13 10 -20c0 -11 -25 -10 -32 -21c-5 -9 -21 -25 -30 -36
c-4 -4 -59 -89 -59 -97c-7 -14 -21 -28 -21 -33l1 -1c0 -10 -8 -21 -25 -44v-4c-16 -23 -8 -11 -18 -36c-16 -40 -18 -26 -18 -32l-23 -45c0 -11 -8 -17 -14 -37c0 0 -11 -21 -20 -47c0 -3 0 -5 -2 -5c0 0 -6 -41 -16 -41zM61 9c2 4 2 2 2 6c0 0 -2 -1 -4 -5zM101 62l3 3
l-2 2l-3 -4zM144 150l1 4l-2 1zM151 163v2c0 2 0 2 -2 2v-2c0 -2 0 -2 2 -2zM156 172c0 5 0 3 2 7c-3 0 -4 -1 -4 -5zM160 183c4 3 5 7 5 7l-3 1zM167 194l3 5s0 2 -3 2v-7zM65 22c16 21 13 11 16 36c27 28 18 20 34 59c0 4 5 3 5 7c0 2 -3 2 -3 2l-4 3c0 3 9 2 9 9l-2 5
l1 1l3 -2c5 0 14 14 14 18c42 81 18 36 75 132c0 2 2 7 6 11l45 78l-1 4c-5 0 -36 -61 -50 -61c0 0 4 -2 4 -7l-3 -4l-3 3c-2 -4 -3 -7 -3 -10l2 -6c-13 -10 -22 -14 -22 -22l2 -3l7 5l-7 -14l-2 1c-3 10 1 7 -7 11l3 -8c-8 -15 -24 -23 -24 -32l-15 -34
c-8 0 -6 -21 -12 -21c-9 0 -16 -27 -16 -27c-3 -13 -12 -20 -12 -29l-26 -57c-8 -8 -5 -27 -12 -34z" />
    <glyph glyph-name="eight" unicode="8" horiz-adv-x="369" 
d="M163 -22c-27 8 -41 28 -44 55c0 9 2 19 4 32c0 7 -4 4 -6 12c0 11 4 16 11 27c0 11 15 27 25 43l2 -2l-3 -8l1 -1l18 31c3 3 5 7 5 12l-1 2c5 8 8 7 8 27c-49 29 -62 22 -62 27c0 3 -2 3 -6 3c-16 2 -32 9 -48 22c-27 27 -21 13 -26 43c0 13 2 10 19 37c0 5 32 34 41 42
v-2c-24 -27 -42 -56 -42 -72l1 -2c24 37 65 88 75 88c-6 -13 -12 -17 -12 -20c3 0 8 4 14 9c28 21 14 10 43 29c10 5 16 12 19 12c8 6 7 1 10 11c-5 0 -19 -11 -29 -11c-2 0 -4 -3 -4 -5c-23 -17 -12 -6 -35 -24l-2 2c0 18 29 21 51 36c2 0 4 0 4 2c40 20 33 14 60 25
c-42 -7 -45 -8 -83 -27c-4 0 -16 -10 -27 -16c4 10 4 8 12 16c28 0 21 7 29 11c0 9 57 21 81 21c25 0 27 -3 43 -10c2 0 3 2 3 5v2c9 0 27 -27 36 -32c15 -14 21 -46 21 -81c-5 -57 -4 -47 -14 -66c-2 -2 -4 -5 -4 -7l-7 -20c-3 0 -3 -5 -5 -7c-22 -47 -11 -27 -38 -70
c-6 -6 -6 -9 -16 -30c0 -6 -15 -12 -15 -30l1 -8c-6 -60 -16 -58 -47 -98c-5 -5 -7 -14 -21 -23c-26 -14 -25 -10 -40 -12zM251 451c0 1 -1 2 -2 2zM234 444l7 4h-2c-2 0 -4 0 -6 -2zM217 436c5 0 9 4 13 8h-2c-7 0 -14 -5 -14 -7zM95 344c2 0 4 2 6 5c15 15 9 7 21 23
c0 1 -1 2 -3 2c-4 0 -25 -25 -25 -30h1zM153 20l12 4c0 6 15 9 38 37c31 31 24 45 31 69c-7 29 -11 31 -20 49c-9 -15 -40 -58 -40 -82c-7 0 -4 -10 -12 -30c-4 -11 -13 -40 -13 -45c0 -1 1 -2 4 -2zM233 92c5 0 11 21 11 28c-2 0 -3 -4 -5 -9c-2 -7 -4 -14 -6 -14v-5z
M214 47c29 9 23 36 34 48c-12 0 -9 -9 -18 -23c0 -2 -2 -7 -4 -7zM264 147c8 0 6 6 9 16c23 35 30 52 30 52c0 8 16 39 23 45l3 43c-2 -4 -3 -5 -3 -9c-9 -28 -1 -15 -16 -41c0 -4 -5 -9 -5 -9v-4l-38 -73c-3 -2 -3 -4 -3 -7v-13zM332 254l7 6v9zM251 167c15 0 9 36 50 77
c0 10 4 16 14 34h-3c-5 -11 -6 -16 -9 -16c-1 0 -2 2 -2 5l18 39c7 22 11 19 11 72c0 48 0 52 -25 55c-7 1 -12 2 -12 3l1 2c0 1 -1 1 -2 1l-14 -6c-5 0 -7 0 -7 2l5 2l-8 2c-17 -4 -29 -2 -42 -15h9c0 -15 -23 6 -61 -32c-3 -5 -7 -5 -7 -5l2 4l-2 1c-7 0 -7 -16 -14 -16
c-9 -9 -12 -17 -19 -17c-2 1 -1 1 -2 3c-2 -7 -13 -23 -17 -23l2 8c-5 0 -16 -17 -25 -30c-9 -9 -14 -23 -14 -39c0 -14 43 -10 102 -50c2 -1 10 -5 14 -5c4 1 7 2 7 5l-1 4c0 3 3 3 8 3c4 -2 4 -2 4 -7c0 -6 12 -5 18 -11l5 -9c0 -4 -3 -5 -9 -14c13 -18 19 -27 25 -27z
M341 274l4 4h-1s-3 0 -3 -2v-2zM353 319l2 2v7l-2 -2v-7zM187 397c-1 0 -3 0 -3 1l6 2zM157 150l-1 1s0 3 2 3zM251 173l-1 3c0 1 2 3 3 3v-5zM242 426l-5 2l13 2zM307 463l-42 13c28 -1 30 -3 42 -9v-4zM255 469l-5 3s1 1 3 1l5 -2zM131 406v2c0 4 1 4 5 4zM228 465l-1 1h4
c0 -1 -1 -1 -3 -1z" />
    <glyph glyph-name="nine" unicode="9" horiz-adv-x="335" 
d="M106 -139c-18 0 -32 25 -36 50c11 20 9 18 20 59c5 11 7 16 7 23c0 0 5 16 16 36c2 9 41 111 68 154c4 0 9 7 11 16c23 50 14 27 34 79c-13 -2 -13 -11 -20 -18c-5 -11 -18 -11 -25 -22l-14 -14c-6 -7 -20 -32 -40 -39c-16 -6 -16 -13 -39 -13l-5 -2c-4 0 -13 4 -18 9
c-23 17 -25 23 -25 43v11c0 30 12 27 12 45c0 0 34 46 40 50c0 3 5 5 5 12c5 9 18 20 45 52c5 0 5 0 32 27c21 14 18 9 30 16c9 9 40 7 40 11c0 5 1 3 5 5c7 -3 5 0 9 -5l5 5c11 -9 25 -9 54 -32c9 -9 18 -25 18 -32c0 -2 -2 -4 -4 -4c-10 0 -12 7 -21 7c-2 0 -16 2 -16 4
c7 0 7 2 7 9s-7 7 -36 7h-32c-66 -36 -45 -27 -77 -57c-34 -38 -23 -16 -50 -61c0 -2 -4 -7 -7 -9c-22 -36 -13 -20 -29 -66c25 0 18 2 25 9c44 24 11 13 61 43c0 5 5 9 14 14l-3 -5c0 -4 0 -4 3 -4c9 4 18 18 18 20c0 12 25 27 25 32c2 5 4 7 6 7c32 29 44 43 44 47
c0 5 4 12 6 12c3 0 3 -2 3 -2c0 -3 0 -3 2 -3c9 0 9 -9 14 -9c9 -4 13 -9 18 -20c-9 -23 -28 -41 -28 -61l-36 -75s-20 -55 -63 -139c-5 -4 -5 -18 -9 -22c-16 -34 -14 -16 -21 -52c0 -3 0 -3 -2 -3c-7 -11 -9 -22 -9 -27c0 0 -16 -48 -23 -88c-2 -3 -2 -9 -2 -14
c0 -10 0 -16 -7 -16zM192 260v3h-2c0 -3 0 -3 2 -3zM208 276c2 0 2 0 2 2h-4zM121 9c1 0 6 15 6 15h-1c-4 0 -7 -5 -7 -9zM109 -23c1 0 2 3 4 9v5c-3 -4 -5 -4 -5 -12zM104 -87l52 141c45 82 45 118 54 118c5 19 7 8 12 27c0 8 9 8 9 18c0 11 4 10 7 18l-3 3
c-7 0 -5 -7 -11 -23c-10 -15 -12 -28 -23 -52c-2 -3 -4 -7 -4 -12c-71 -142 -93 -224 -93 -238zM129 31c52 91 22 56 72 157c3 2 3 6 3 9c9 19 7 8 11 27c4 4 21 43 21 49h-1c-3 0 -10 -11 -20 -38c-17 -45 -17 -23 -23 -54c0 -22 -41 -72 -41 -91c0 -14 -5 -13 -13 -29
c-2 -3 -9 -23 -9 -30zM159 265l1 2l-2 2l-1 -2zM152 244c8 0 51 53 63 59l11 9c0 7 23 23 23 33v1l-7 -4c-1 0 -2 0 -2 2l-8 -13l-2 2c-5 0 -13 -17 -15 -17h-2c-3 0 -5 -2 -5 -4l3 -3c-14 -9 -14 -15 -39 -40zM118 215c11 4 27 16 27 24h-1c-2 0 -9 -6 -17 -13z" />
    <glyph glyph-name="colon" unicode=":" horiz-adv-x="129" 
d="M59 -25c-8 2 -7 16 -12 16c-4 2 -7 5 -7 12c3 25 2 12 10 38c5 5 8 16 8 25l3 23c3 2 12 3 21 3c40 0 47 -12 47 -27c-2 -29 -10 -25 -35 -65c-5 -2 -8 -6 -8 -9c0 -4 -19 -16 -27 -16zM59 164c-8 2 -7 16 -12 16c-4 2 -7 5 -7 12c3 25 2 12 10 38c5 5 8 16 8 25l3 23
c3 2 12 3 21 3c40 0 47 -12 47 -27c-2 -29 -10 -25 -35 -65c-5 -2 -8 -6 -8 -9c0 -4 -19 -16 -27 -16z" />
    <glyph glyph-name="semicolon" unicode=";" horiz-adv-x="179" 
d="M109 164c-8 2 -7 16 -12 16c-4 2 -7 5 -7 12c3 25 2 12 10 38c5 5 8 16 8 25l3 23c3 2 12 3 21 3c40 0 47 -12 47 -27c-2 -29 -10 -25 -35 -65c-5 -2 -8 -6 -8 -9c0 -4 -19 -16 -27 -16zM45 -132c-4 0 -5 0 -5 2c28 77 37 55 37 77c0 29 36 117 36 135v1c0 7 0 7 14 7
c13 0 15 -2 18 -11c11 -18 24 -20 24 -30l-4 -13c-5 -10 3 -25 -16 -48c-31 -54 -14 -27 -50 -82c0 -7 -47 -38 -54 -38zM96 -73c5 6 6 7 6 11l-1 2c-6 -6 -3 -4 -6 -11zM109 -53c2 0 5 4 5 8l-1 3c-7 -3 -4 0 -6 -7zM117 -33v12l-1 -6z" />
    <glyph glyph-name="semicolon" unicode="&#x37e;" horiz-adv-x="179" 
d="M109 164c-8 2 -7 16 -12 16c-4 2 -7 5 -7 12c3 25 2 12 10 38c5 5 8 16 8 25l3 23c3 2 12 3 21 3c40 0 47 -12 47 -27c-2 -29 -10 -25 -35 -65c-5 -2 -8 -6 -8 -9c0 -4 -19 -16 -27 -16zM45 -132c-4 0 -5 0 -5 2c28 77 37 55 37 77c0 29 36 117 36 135v1c0 7 0 7 14 7
c13 0 15 -2 18 -11c11 -18 24 -20 24 -30l-4 -13c-5 -10 3 -25 -16 -48c-31 -54 -14 -27 -50 -82c0 -7 -47 -38 -54 -38zM96 -73c5 6 6 7 6 11l-1 2c-6 -6 -3 -4 -6 -11zM109 -53c2 0 5 4 5 8l-1 3c-7 -3 -4 0 -6 -7zM117 -33v12l-1 -6z" />
    <glyph glyph-name="less" unicode="&#x3c;" horiz-adv-x="280" 
d="M212 123c-24 6 5 28 -78 72l-57 29c-14 9 -27 23 -27 30v2c0 5 -5 15 -10 37c4 26 18 11 60 36c36 20 68 38 73 43c66 38 61 35 74 39c23 -9 19 -18 33 -50c-7 -15 -13 -5 -35 -21c-57 -29 -124 -56 -124 -67c0 -7 67 -50 86 -92c8 -13 13 -34 13 -46l-2 -8z" />
    <glyph glyph-name="equal" unicode="=" horiz-adv-x="354" 
d="M147 222h-92c-7 4 -14 14 -14 22v21l-1 9c0 7 4 10 14 10l63 -7l13 2c31 0 46 -2 46 -7l-1 -2c0 -8 6 -6 23 -9c9 2 14 3 14 5c-20 5 -28 6 -28 9c4 6 6 7 28 7c43 0 81 -15 90 -15l2 1c10 0 23 -20 23 -31c0 -3 -1 -5 -3 -6h-68c-6 -2 -14 -2 -18 -2c-5 0 -38 -7 -91 -7
zM248 263l2 3c0 5 -9 6 -23 6c-6 0 -9 -1 -9 -2c0 -4 26 -7 30 -7zM175 330h-93c-7 4 -14 14 -14 22v21l-1 9c0 7 4 10 15 10l63 -7l12 2c32 0 46 -2 46 -7l-1 -2c0 -8 6 -6 24 -9c8 2 13 3 13 5c-20 5 -28 6 -28 9c4 6 6 7 28 7c43 0 81 -15 91 -15l1 1c10 0 23 -20 23 -31
c0 -3 -1 -5 -3 -6h-68c-6 -2 -13 -2 -17 -2c-6 0 -38 -7 -91 -7zM275 371l2 3c0 5 -8 6 -22 6c-6 0 -10 -1 -10 -2c0 -4 26 -7 30 -7z" />
    <glyph glyph-name="greater" unicode="&#x3e;" horiz-adv-x="281" 
d="M108 411c25 -6 -4 -28 78 -72l57 -29c15 -8 27 -23 27 -30v-2c0 -4 6 -15 11 -37c-5 -26 -19 -11 -61 -35c-36 -21 -68 -39 -72 -43c-67 -38 -62 -35 -75 -40c-23 9 -19 19 -33 51c7 14 14 4 35 20c57 29 124 56 124 67c0 8 -67 50 -85 92c-9 14 -13 34 -13 46l1 9z" />
    <glyph glyph-name="question" unicode="?" horiz-adv-x="320" 
d="M93 138c-16 0 -14 7 -27 18c-14 9 -21 23 -21 36c0 16 9 25 16 43c0 5 62 71 75 71l2 -3c-4 -11 -31 -34 -31 -40c6 0 38 29 63 61c30 36 43 43 43 54c-6 0 -37 -38 -43 -38c-7 0 -20 -28 -29 -28c0 13 66 76 104 139c4 11 11 22 14 25c11 25 20 47 25 70
c0 9 0 18 -28 18c-34 0 -97 -29 -97 -43l2 -2c-3 -6 -6 -9 -16 -9c-7 0 -11 2 -18 4c-11 9 -20 32 -20 46c0 11 18 29 27 29c11 0 47 16 91 16c27 -2 34 -5 49 -11c42 -23 44 -42 46 -98l-5 -11c-4 -5 -4 -25 -11 -32c-5 -5 -9 -25 -14 -25c-18 -27 -18 -23 -36 -50
c-34 -54 -66 -66 -66 -79c-36 -46 -20 -25 -59 -68c-13 -9 -9 -16 -22 -34c-7 -9 -12 -14 -12 -21c0 -9 14 -18 14 -22c-7 -12 -9 -16 -16 -16zM217 383l18 21l-1 1c-5 0 -19 -15 -19 -18c0 -2 1 -4 2 -4zM82 227c4 0 8 5 13 19l-2 1c-2 0 -7 -5 -9 -12zM98 219
c2 0 20 21 20 23c-8 0 -2 -4 -16 -11c-4 -2 -7 -6 -7 -9c0 -1 1 -3 3 -3zM123 249c4 0 70 77 74 77c8 15 51 57 51 72c-81 -83 -48 -52 -129 -147zM254 403c2 0 5 2 5 5c0 1 -2 3 -3 3c-4 -2 -2 -1 -4 -6c0 -2 2 -2 2 -2zM266 422c2 0 5 2 6 4v6c-7 -3 -11 -3 -11 -6
c0 -2 2 -4 5 -4zM278 442l3 5c0 2 -1 4 -2 4l-4 -6c0 -1 1 -3 3 -3zM79 -29c-5 0 -15 7 -31 24c-6 6 -8 8 -8 17l1 21c0 28 0 32 9 37c4 4 11 7 14 7c16 0 28 -22 31 -42c-4 -13 -9 -14 -9 -45c0 -13 -1 -19 -7 -19z" />
    <glyph glyph-name="at" unicode="@" horiz-adv-x="521" 
d="M319 -2h-10c0 1 3 2 10 4c7 0 9 0 9 -2s-5 -2 -9 -2zM219 -21c0 5 14 4 39 6h3l-6 -3zM224 -68c-28 0 -55 4 -73 16c-20 11 -68 50 -68 56c0 5 -14 14 -14 19c0 15 -20 36 -22 59c0 27 -5 22 -7 38c4 79 4 73 29 120c0 5 5 9 7 9l5 14c9 0 11 14 31 36c10 7 14 14 14 16
c0 0 50 61 64 61c6 0 22 16 22 21c0 6 3 11 9 11c5 0 5 -4 12 -4c16 0 90 29 136 29c27 0 56 -7 84 -20c18 -9 54 -43 54 -55c0 -9 11 -22 11 -68c-2 -61 3 -32 -11 -95c-4 -9 -7 -21 -7 -25c-9 -27 -4 -16 -18 -41c-23 -54 -54 -88 -104 -122l-7 -3c-26 9 -29 15 -29 23
c0 2 0 2 -3 2c-7 0 -18 19 -20 30l-5 38l3 14c2 2 4 9 4 16s-2 13 -4 13c-49 -51 -26 -32 -87 -68c-4 -2 -9 -6 -13 -6c-9 0 -43 22 -48 31c-2 5 -4 9 -9 12c-2 0 -4 2 -4 7c4 24 11 49 18 56c22 34 9 18 36 52c7 7 11 14 11 16c5 9 9 7 9 21c0 13 14 6 14 11s18 9 18 18
c4 10 22 12 42 12l19 -1c21 0 43 -29 57 -29c9 0 27 -11 27 -18c0 -5 -11 -14 -11 -18c0 -21 -39 -98 -39 -154l-2 -12c5 -7 2 -4 9 -9c12 5 16 9 36 30c16 20 19 25 23 25h2c19 56 12 34 34 74l-6 -27c0 -11 -14 -11 -14 -18c0 -5 2 -7 7 -7c9 0 11 9 18 21l20 45
c14 25 7 66 12 66c4 0 7 4 7 11c0 16 -5 25 -14 45c0 5 0 3 4 7c-4 5 -9 7 -9 18c0 9 -13 12 -13 16c0 9 -27 27 -80 27c-176 0 -288 -179 -288 -179c-20 -56 -27 -52 -27 -90c7 -73 5 -84 36 -116c7 -11 37 -27 50 -32c37 -7 21 -7 59 -7c39 0 87 23 116 23
c14 0 23 -7 23 -9c-14 -25 -23 -20 -66 -39c-18 -9 -43 -13 -70 -13zM63 198l4 5l-4 3l-3 -5c0 -2 1 -3 2 -3h1zM67 174l2 1c2 4 3 3 3 6l-1 1l-2 -1l-3 -5zM210 122c2 0 5 3 5 5c32 13 115 71 115 102c0 13 5 13 7 23c0 6 -3 11 -9 11c-25 0 -109 -100 -109 -111
c-7 -12 -12 -11 -12 -23c0 -4 1 -7 3 -7zM476 241h-1c-1 0 -2 1 -2 3c0 3 2 5 4 5l3 -3c0 -1 -2 -4 -4 -5z" />
    <glyph glyph-name="A" unicode="A" horiz-adv-x="560" 
d="M392 547l6 6l7 -2c2 0 3 3 3 8c-1 11 -4 16 -7 16c-4 0 -8 -9 -13 -26zM432 284c7 6 12 13 16 23s8 17 14 22c4 5 7 10 9 13c1 3 2 8 2 15v3c0 2 2 6 6 10c5 5 7 9 7 13c0 11 3 21 10 32l9 21c5 5 7 10 7 14l-1 4c0 3 0 6 1 9s1 5 2 8c1 2 1 4 2 7l-2 2
c-5 -4 -8 -8 -10 -13s-4 -11 -5 -16c-1 -6 -3 -10 -6 -13s-5 -8 -8 -14c-3 -7 -5 -13 -7 -19c-2 -7 -4 -12 -5 -15c-3 -3 -5 -7 -8 -14s-7 -15 -10 -24c-4 -12 -8 -23 -12 -32c-5 -9 -9 -14 -12 -14s-5 -1 -5 -3c1 -5 2 -9 3 -12c0 -3 0 -4 1 -5c0 -1 1 -2 2 -2zM373 141
l10 19c6 13 9 21 9 24s-1 4 -3 4c-13 0 -19 -13 -19 -38c0 -3 0 -5 1 -6c0 -2 1 -3 2 -3zM324 467c1 1 3 1 4 2c2 1 3 1 3 2s0 3 1 5c0 3 -3 5 -9 5c-5 0 -7 -1 -7 -3c1 -7 4 -11 8 -11zM339 499c2 0 3 1 3 4l-3 5l-4 -2c0 -5 1 -7 4 -7zM167 170l28 8l7 -2c3 2 6 4 8 6
c8 4 15 6 21 6c5 0 12 3 20 10c14 9 24 13 31 13l23 9c2 3 8 6 20 8c8 0 12 1 12 3c2 2 7 4 14 6s13 4 20 7c10 4 16 10 20 17c17 22 25 38 25 50c0 2 2 6 7 13c12 18 18 33 18 44c0 1 2 5 5 12c27 57 40 90 40 101c14 22 21 37 23 45c1 5 3 14 7 27c10 30 15 52 15 65
c0 8 -2 13 -6 15c-4 0 -9 -3 -15 -8c-10 -9 -31 -18 -62 -28c-5 0 -7 -2 -7 -7c0 -7 -2 -14 -7 -19c-5 -6 -13 -15 -25 -27c-3 0 -6 -3 -10 -8l-3 -3c-1 2 -2 4 -2 5c-1 1 -1 2 -1 3c-1 0 -1 0 -1 1c-1 1 -1 2 -2 3l-2 2c-1 -1 -1 -2 -1 -3c-5 -19 -9 -28 -12 -28
c-3 2 -4 3 -4 3c0 1 0 1 -1 2c0 0 -1 2 -2 5c-1 0 -2 -3 -2 -10c0 -10 -1 -15 -2 -15l-12 3c-4 0 -6 -2 -6 -5l3 -19c0 -7 -3 -14 -9 -22s-13 -15 -21 -21c-9 -7 -17 -10 -24 -11c6 -2 9 -8 9 -16s-15 -33 -46 -73c-15 -18 -23 -30 -23 -34c0 -5 -3 -11 -10 -18
c-7 -8 -15 -20 -24 -35c-6 -17 -14 -32 -23 -45c-5 -8 -11 -18 -17 -29c0 -1 2 -3 6 -6zM31 -128c-5 0 -12 8 -19 23c-8 15 -12 30 -12 47c0 13 4 25 11 35c7 9 10 21 10 36c0 9 -3 19 -9 30s-10 25 -12 41c0 8 3 14 10 18s15 8 25 12c28 11 55 36 80 73s47 75 66 112
c21 41 38 67 49 78c2 1 5 5 9 12c2 7 7 17 16 28c11 15 18 26 21 33s6 10 9 10l18 21c24 28 36 44 36 50c2 3 4 6 7 8c10 10 19 21 29 35c35 46 63 76 82 89c7 5 14 12 22 19c7 7 22 12 44 13c11 0 22 -9 31 -28s14 -41 16 -66c0 -42 -8 -80 -23 -116l-4 -11
c-2 -13 -4 -22 -7 -29l-9 -19c0 -13 -6 -31 -19 -54l-15 -27l-10 -30c-5 -14 -8 -23 -8 -27c2 -3 5 -5 10 -5c9 1 16 2 22 2c5 0 10 0 14 1s8 3 11 6s6 5 10 6c3 1 6 1 8 1c4 0 10 -3 18 -8c7 -5 14 -13 21 -22c6 -9 9 -20 9 -31s-2 -18 -5 -20c-2 0 -6 1 -13 3
c-7 1 -14 3 -23 5c-9 1 -17 2 -24 2s-12 0 -17 -1s-11 -3 -17 -4c-7 -1 -14 -3 -21 -4c-5 0 -9 3 -11 9c-1 3 -3 4 -4 4s-2 -1 -2 -3l1 -6c0 -3 -2 -6 -6 -9c-5 -3 -10 -5 -15 -5c-17 0 -32 -27 -45 -82c-6 -6 -13 -21 -20 -44c-4 -11 -7 -19 -10 -24c-5 -8 -7 -14 -7 -19
s-2 -12 -5 -21c-9 -23 -16 -36 -21 -37c-9 0 -14 11 -15 33c0 18 3 37 9 58s12 40 19 58c7 17 10 29 10 34s-2 8 -6 8s-9 -2 -14 -6c-9 -5 -15 -8 -20 -8c-4 0 -11 -1 -20 -4c-23 -7 -39 -14 -48 -21c0 -4 -18 -13 -53 -28c-23 -10 -42 -19 -55 -26c-9 -9 -17 -14 -23 -14
l-14 -9c-3 -6 -6 -12 -10 -19c-21 -34 -38 -78 -52 -133l2 -15c0 -1 0 -1 -1 -1c-3 -11 -6 -17 -11 -17z" />
    <glyph glyph-name="B" unicode="B" horiz-adv-x="575" 
d="M470 647l-2 2c4 7 5 5 22 13c7 6 19 11 29 11l8 -2c0 -4 -49 -24 -57 -24zM544 567l-5 1c0 2 6 5 19 12l2 -2c-4 -7 -4 -11 -16 -11zM565 683l-6 2l5 2l4 -3zM436 536c-1 2 0 1 -2 2c5 8 5 12 11 12c3 -1 4 -1 4 -2c-4 -9 -8 -12 -13 -12zM467 561l-3 3c0 3 6 10 10 10
c2 0 2 -1 2 -3l-4 -8zM535 674h-4c3 4 5 6 9 6l2 -4c-2 -2 -5 -2 -7 -2zM255 35c-1 0 -3 2 -3 4s1 3 3 3s4 -1 4 -3s-2 -4 -4 -4zM286 49c-2 0 -5 1 -5 3s2 3 5 3s5 -1 5 -3s-2 -3 -5 -3zM433 513c-2 0 -4 2 -4 4c0 7 22 19 35 22l1 -1c0 -4 -24 -25 -32 -25zM485 129
c0 4 3 5 3 5c2 0 2 0 2 -2c0 -3 -2 -3 -5 -3zM397 75l-3 3l3 4c2 0 2 -2 2 -2zM506 138c-3 0 -6 3 -7 7c0 5 4 14 9 14c3 0 4 -6 4 -11l-2 -7zM467 544c0 3 18 16 23 16c2 0 4 0 4 -1l-13 -12zM585 607c-6 3 -9 2 -9 5c0 5 2 7 5 7c4 0 6 0 6 -7zM290 32l-2 2
c25 23 11 9 43 27c7 0 11 5 11 7c0 12 55 32 55 36c-9 0 -11 3 -11 5s4 7 15 9c3 0 3 -2 3 -7l-3 -2l3 -2c25 7 22 11 50 34c-23 0 -32 -18 -41 -18c-3 0 -5 0 -5 2c0 9 9 2 43 36c14 21 48 36 68 86c7 16 9 23 9 30c-4 22 -11 38 -36 47c-16 5 -47 7 -72 7l-105 5
c-7 -7 -29 -50 -29 -61c0 -7 -12 -19 -12 -25c0 -14 -31 -82 -31 -105c0 -11 -18 -38 -18 -72s-3 -30 -12 -32c-4 0 -7 2 -9 7c0 4 -25 22 -25 41c5 27 7 40 14 52c0 11 18 27 18 31c-5 7 -7 7 -7 16c0 16 7 23 14 46c0 2 2 4 7 4h6l3 3c-3 6 -9 2 -9 9l9 18v-9
c2 0 4 2 11 11l-6 10l-1 8c0 2 0 5 2 5l5 -5c9 5 11 11 11 16c0 2 0 5 -2 5c-7 -7 -7 -12 -9 -12l-5 7c0 5 25 29 25 43s-20 34 -20 45c4 14 7 21 43 46c23 13 27 27 48 59c6 9 13 20 13 22c0 14 12 23 12 30l-3 2c5 5 23 32 23 46l-2 9c0 6 13 18 13 22c0 3 0 3 -4 3
c-32 -3 -41 -14 -77 -37c-7 0 -5 -11 -18 -11c-9 0 -34 -11 -34 -20c0 -10 -50 -23 -50 -32l2 -2c9 0 16 2 27 4v-2c-9 -9 -23 -18 -32 -18l1 7c0 1 -1 2 -3 2c-11 0 -25 -7 -27 -16c0 0 0 -2 2 -2l16 4l2 -2c0 -7 -161 -120 -161 -157c0 -13 23 -4 28 -13
c0 -12 6 -12 11 -32c0 -5 -2 -7 -7 -7c-57 14 -66 23 -68 61c0 21 11 50 23 59c20 14 72 64 81 64c7 0 37 27 77 54c10 9 34 18 34 23c3 5 5 5 7 5c14 6 37 24 43 24c5 0 21 21 37 25c18 5 27 19 34 19c11 0 124 59 124 59c0 9 21 9 48 15c27 9 52 16 73 16
c36 0 45 -20 45 -47c-2 -28 -11 -50 -27 -50l-3 2l3 9v11c-9 0 -39 -34 -84 -74l-16 -9c-5 0 -5 11 -11 11c-3 0 -5 0 -5 2c0 7 104 93 104 107c0 7 5 9 5 16c0 2 -7 4 -16 4c-25 0 -118 -32 -125 -38c-4 -5 -22 -5 -22 -14c0 -5 6 -9 16 -9h4c2 0 5 0 5 -2l-16 -9l7 -21
c-5 -13 -39 -72 -39 -79c0 -2 2 -2 7 -2h2c2 0 5 0 5 -3c0 -2 -16 -11 -16 -16c0 -4 16 -2 16 -6c0 -5 -44 -30 -44 -39l3 -2c2 0 9 4 11 9c0 11 25 18 36 29l71 48c4 0 11 -2 11 -5c0 -6 -29 -29 -39 -29c-4 0 -9 -2 -11 -7c-25 -23 -32 -27 -36 -27c0 0 -21 -21 -25 -21
c-9 0 -25 -2 -48 -47c-7 -9 -9 -18 -9 -23c0 -7 7 -9 23 -9c41 0 79 -16 104 -20c16 0 89 -32 89 -116c0 -15 -8 -43 -14 -43c-11 -23 -16 -36 -23 -36c-4 4 -4 9 -9 9c-9 0 -59 -57 -70 -57l-48 -32c-29 -13 -25 -22 -34 -22c-34 -9 -34 -19 -38 -19c-5 0 -25 -13 -30 -13z
M161 488c2 0 5 2 5 4s-2 3 -3 3c-3 -1 -4 -1 -4 -5c0 -2 2 -2 2 -2zM218 193c1 1 3 6 3 9l-1 2c-2 0 -2 -2 -5 -7c0 -2 0 -4 3 -4zM205 95c3 0 6 4 6 10v4c0 8 12 17 12 31l-1 8c0 14 9 22 9 31c0 21 58 134 58 158c0 2 -1 4 -3 4l-2 -1c-5 -4 -12 1 -12 -18
c0 -12 -11 -18 -11 -29v-2c-6 -14 -12 -17 -12 -32l1 -5c0 -9 -10 -15 -10 -27c-7 -30 -7 -17 -10 -23l1 -4c0 -12 -7 -26 -16 -48zM467 152c2 0 5 0 5 2h-7l-2 -1zM516 180c22 26 16 22 21 45v11c-18 -19 -24 -19 -24 -43zM390 361c7 0 11 0 11 1c-26 9 -13 9 -41 11
c-9 0 -15 -2 -15 -5s25 -7 45 -7zM466 336c-5 10 -61 14 -101 14c-16 0 -27 -1 -27 -3s11 -2 25 -2c27 0 86 -7 97 -9h6zM361 501c2 0 4 4 9 12c0 1 -1 2 -5 2c0 -4 -4 -2 -4 -9v-5zM398 497l6 4l-9 -2zM508 581c5 0 9 0 9 2l2 4l-2 3c-10 -5 -14 -7 -14 -9h5zM284 558l-3 1
c0 1 4 4 9 6l44 22l2 -2c-12 -15 -36 -27 -52 -27zM347 590l-3 2l3 5c2 0 2 -3 2 -3zM268 547l-3 3l3 4l4 -4c0 -2 -2 -3 -4 -3zM361 89c-3 0 -5 2 -5 4c1 4 3 5 5 5s4 -1 4 -5c0 -2 -2 -4 -4 -4zM367 601l-7 1l1 1c2 0 6 0 6 -2zM272 25l-5 3l1 2c2 2 6 2 9 2
c4 0 4 -2 4 -5zM254 14c-5 1 -7 3 -7 5c0 3 3 3 10 6c2 0 2 -2 4 -7c0 -4 -2 -4 -7 -4zM102 -32c-25 0 -57 12 -79 34c-12 9 -23 34 -23 43c0 19 18 32 18 48c0 9 -2 9 -7 14c0 7 14 4 14 9c0 4 11 13 34 22c7 0 5 0 7 -2l2 9l5 -2c2 0 4 0 4 2c0 12 34 41 102 71
c5 0 5 -3 5 -7c0 -12 -86 -64 -86 -84c0 -16 -16 -9 -16 -21c0 -15 -21 -38 -32 -38c-8 0 -20 -14 -20 -30c0 -15 15 -27 24 -31c3 -3 7 -5 25 -5c114 2 84 14 105 14l16 -5c13 0 11 16 20 16l9 -2c0 -5 -4 -2 -4 -16c0 -25 -21 -31 -75 -34zM166 -15l15 4l-14 8
c-5 -5 -3 -2 -5 -9c0 -2 1 -3 4 -3zM198 -8c11 1 16 3 16 6c-18 0 -8 0 -27 3c-1 0 -2 -1 -2 -2l1 -3c1 -3 7 -4 12 -4z" />
    <glyph glyph-name="C" unicode="C" horiz-adv-x="408" 
d="M306 130v1c0 2 3 5 5 7c21 10 22 13 49 29c0 -10 -50 -37 -54 -37zM258 100c0 3 8 6 22 14c1 0 1 -1 1 -4c0 -2 -2 -4 -7 -4zM358 88l-4 2c4 6 8 7 11 7l2 -2c-3 -4 -4 -7 -9 -7zM98 366l-2 3c2 10 1 18 11 18c3 0 5 -1 5 -4c-6 -13 -9 -17 -14 -17zM86 335
c-2 0 -4 0 -4 4c0 8 3 8 6 10v-3c0 -4 0 -9 -2 -11zM126 -24c-28 0 -30 4 -40 16l36 -4c8 2 6 0 9 7l-36 6l-21 -4c-17 0 -56 50 -56 63c0 5 -2 12 -4 14c-7 11 -14 45 -14 64c0 50 41 156 50 156c0 0 5 20 18 20l2 -2c-3 -11 -7 -18 -11 -18c-11 0 -10 -43 -25 -66
c-6 -5 -9 -12 -9 -17c0 -3 2 -6 4 -8c5 0 23 35 23 43c0 21 17 42 34 68c19 19 12 37 16 37c7 0 33 33 42 48l-1 4c0 11 6 19 15 36v1c-5 0 -36 -44 -41 -44c-1 0 -1 2 -1 7s20 26 20 34c0 5 20 38 32 50c9 5 27 43 36 47c39 45 54 72 70 77c12 8 8 25 14 30
c42 42 34 22 48 41l34 20c0 2 7 3 16 3c33 0 53 -6 67 -30c10 -16 12 -18 12 -45c0 -72 -61 -113 -61 -136c-5 -17 -34 -29 -39 -39l-4 -3c-5 0 -15 20 -18 50c0 9 11 8 11 26c0 11 18 17 18 22c0 7 32 28 32 46c0 9 24 36 24 55c0 9 -3 15 -9 15c-7 0 -46 -34 -54 -34
c-12 0 -24 -30 -41 -41c-7 -2 -13 -7 -13 -9c-43 -40 -20 -22 -66 -57c-11 -8 -19 -16 -19 -20h9c2 0 3 0 3 -2c-6 -9 -2 -6 -12 -11l-4 2c-9 0 -39 -42 -43 -55c-2 0 -2 0 -2 -4l1 -2c-9 -1 -13 -3 -26 -31l1 -1l6 2c2 0 3 0 3 -2c0 -5 -21 -35 -29 -35l-3 1l1 -5
c0 -7 -34 -86 -40 -86c-3 11 -4 16 -7 16c-11 -11 -6 -25 -12 -25c-4 0 -16 -27 -16 -33l2 -2c4 0 6 3 13 11c1 0 1 -1 1 -3c-5 -25 -9 -36 -17 -36c-3 0 -2 3 -5 11c-3 -2 -4 -6 -4 -9c0 -9 9 -5 9 -12c-11 -48 -17 -66 -17 -91c1 -26 6 -39 10 -43c16 -13 43 -15 86 -20
c17 0 26 12 33 12c4 0 6 -2 6 -7l-1 -9c0 -3 1 -5 4 -5c18 7 21 14 44 14c38 9 47 23 91 52c90 59 117 90 124 90c4 0 7 18 18 18c8 0 14 -11 14 -17c0 -14 -73 -60 -84 -71c-4 -13 -37 -15 -37 -27l2 -7c0 -14 -67 -45 -112 -77c-31 -19 -78 -30 -110 -30zM246 549
c2 3 6 3 6 6l-5 2l-2 -4zM177 469c9 2 16 4 16 9c0 3 -1 5 -2 5l-7 -5zM165 444c2 0 6 10 6 15c-1 3 0 2 -2 4c-4 -7 -7 -10 -7 -15c0 -3 1 -4 3 -4zM115 338l2 9c-1 0 -2 -2 -3 -5l-1 -2c0 -1 1 -2 2 -2zM18 151c0 14 3 13 10 36l-1 2c-5 -3 -10 -15 -10 -31z" />
    <glyph glyph-name="D" unicode="D" horiz-adv-x="474" 
d="M177 311l7 35c1 0 2 -3 2 -8s0 -11 -3 -14zM290 96v2c0 2 0 4 2 4s5 0 5 -2zM293 119l-3 4c0 6 10 14 21 17l1 -1c-9 -13 -13 -20 -19 -20zM312 119c-2 0 -4 1 -4 4c0 6 7 4 13 5c-2 -6 -4 -9 -9 -9zM328 135l-2 3c0 5 34 37 34 44l-5 11l7 -1c9 0 28 22 28 30
c0 16 5 11 27 43c6 7 22 46 29 46c7 21 13 41 21 41c1 0 2 -2 2 -5c-3 -7 -14 -16 -18 -45c-8 -25 -11 -23 -23 -43c-28 -57 -20 -36 -47 -71c-11 -10 -45 -53 -53 -53zM165 -63c-4 0 -23 20 -23 36c0 14 -4 18 -20 23c-4 0 -20 6 -34 15c-32 16 -70 64 -77 91
c-7 32 -11 64 -11 89c0 65 34 95 52 104l2 -2c-5 -30 -7 -39 -11 -48c-12 -20 -16 -61 -16 -95c0 -77 34 -86 93 -109c0 -2 4 -5 7 -5c18 0 22 102 27 109c2 3 4 12 4 16c5 32 9 41 9 64c0 9 12 25 12 34s11 25 11 36s11 25 11 43c3 9 5 20 7 23c5 0 16 47 21 52
c4 4 9 43 13 43c5 4 3 18 7 23c6 5 7 29 7 40c-4 0 -7 0 -7 -11c0 -4 -4 -11 -11 -23c0 -15 -9 -20 -9 -22c0 -5 -12 -34 -14 -34c0 14 14 48 23 77c0 22 20 27 34 97l-3 5c-9 0 -77 -43 -77 -50c-11 -11 -11 -7 -22 -18c-18 -9 -91 -100 -96 -116c0 -20 3 -20 7 -34
c0 -16 -9 -13 -20 -16c-30 0 -43 21 -48 55c0 11 5 22 18 36c5 5 3 23 9 23c5 0 28 27 41 31c14 3 23 10 23 23c0 9 4 16 14 16c15 0 9 14 13 14c2 -5 0 -7 5 -7c2 0 31 20 31 34c5 16 48 18 48 34c0 7 18 7 23 16c4 4 18 2 22 16c0 11 28 2 34 15c5 5 21 5 25 10
c3 16 11 18 32 18c7 0 11 0 11 2c0 7 25 11 62 11c68 0 111 -22 127 -88c3 -8 4 -40 4 -93c0 -44 -1 -59 -18 -100c-4 -14 -7 -34 -11 -52c-5 -7 -9 -25 -12 -34c-6 -18 -18 -39 -25 -39c-6 0 9 -16 -34 -59c-13 -20 -11 -31 -29 -43c-9 -4 -14 -11 -14 -13c0 -3 7 -3 7 -7
c0 -7 -13 -11 -23 -21c-4 -13 -15 -9 -15 -18c-5 -13 -34 -38 -34 -43c0 -7 -12 -16 -16 -16l-7 3c-5 -9 -14 -30 -27 -34c-5 -3 -12 -7 -12 -12c-9 -18 -31 -31 -77 -45c-36 -11 -47 -16 -47 -32l6 -34zM199 284c2 0 4 2 4 4l-2 4c-3 -3 -4 -3 -4 -6c0 -1 1 -2 2 -2z
M192 246v10c-2 0 -4 -2 -4 -5c0 -1 0 -3 2 -4zM183 213c3 0 3 3 3 3c0 3 -1 6 -5 7l-2 -3c0 -4 2 -7 4 -7zM217 32c16 0 46 32 50 32c5 0 16 16 23 16c16 0 18 27 25 27c11 0 68 79 77 79s11 25 25 34c12 12 12 14 12 16l1 5c5 4 -4 9 16 29c21 20 14 27 18 34
c18 32 14 13 39 84c5 2 5 7 5 11c0 18 31 84 31 105l-2 4c-9 0 -9 -7 -41 -100c-2 -9 -9 -13 -9 -13l-2 2c0 11 34 91 34 102c0 5 14 27 14 54c-5 68 2 70 -14 103c-11 20 -14 22 -30 27l-27 9c-4 4 -7 4 -11 4l-43 -9c-32 0 -34 -18 -50 -18c-11 0 -16 -4 -16 -11
c5 -14 5 -7 5 -21c0 -13 -32 -70 -37 -90l-16 -32c-14 -22 -6 -22 -22 -68c0 0 -12 -21 -12 -34c0 -18 -25 -68 -31 -102c-3 -9 -7 -23 -12 -27c-9 -32 -13 -34 -13 -57c0 -45 -37 -41 -37 -55l5 -24c0 -41 -11 -25 -14 -75c0 -12 0 -16 5 -16c27 13 34 0 63 23
c12 6 19 9 23 9h2c-16 -32 -34 -30 -54 -39c-24 -12 -32 -10 -32 -14s2 -4 11 -4c16 0 14 4 25 9c7 0 7 -9 16 -9z" />
    <glyph glyph-name="E" unicode="E" horiz-adv-x="360" 
d="M120 -31c-34 0 -63 12 -77 29c-11 22 -27 31 -27 74c0 52 17 129 48 216c0 2 -2 4 -6 4l-37 -7c-9 0 -14 14 -14 24c0 6 -7 5 -7 17c0 15 0 32 82 78c8 0 11 11 23 11c19 0 23 23 27 23c5 0 9 20 25 54c4 2 20 39 22 48c0 6 -1 9 -4 9c-18 -9 -24 -15 -50 -16
c-14 0 -21 5 -21 16l1 4c0 11 -5 9 -6 14c0 9 5 31 10 34c17 9 109 34 132 66c22 22 17 35 33 35c11 0 20 -8 33 -11c21 0 104 36 104 44c0 9 41 7 54 20c4 4 9 5 15 5c8 0 11 -2 13 -7c-3 -7 0 -4 -6 -10c50 10 33 -6 77 24c-23 0 -35 1 -35 6c0 4 8 7 23 8
c20 0 38 -11 38 -28c-1 -22 -19 -21 -116 -54c-41 -14 -52 -16 -56 -16l-1 1c0 10 57 19 71 33s33 13 66 29c-47 -10 -47 -14 -78 -19c-2 0 -3 1 -3 3l3 10c0 2 -2 3 -4 3c-46 -17 -84 -26 -84 -35l3 -2c9 0 64 22 70 22l2 -3c0 -8 -21 -11 -68 -31c-12 -8 -34 -6 -34 -11
c-2 -3 -7 -5 -11 -5c-2 0 -3 1 -3 1c0 5 34 21 34 23c-30 -3 -70 -20 -70 -31l1 -6c12 7 17 13 23 13l3 -4c-21 -14 -34 -15 -34 -30c0 -3 3 -5 7 -5c5 0 11 3 16 7c29 15 42 16 54 28c3 4 5 7 9 7l16 -5c-13 -5 -22 -11 -22 -11c-5 0 -13 -16 -19 -16
c-19 0 -33 -16 -86 -46c-16 -8 -22 -32 -54 -90c-15 -24 -22 -39 -22 -46c0 -3 1 -4 4 -4c0 0 18 12 33 12l15 -2c7 0 6 17 20 17c13 0 20 11 27 11c12 0 15 14 31 14c20 0 48 -9 48 -19l-1 -9l5 -20c0 -11 -23 -6 -33 -16c-23 -11 -146 -59 -198 -97
c-13 -10 -45 -66 -45 -77c0 -4 -7 -9 -13 -27c0 -11 -10 -14 -10 -34c-4 -22 -19 -47 -19 -53l4 -11c0 -16 -22 -76 -22 -103c0 -21 9 -28 26 -28c30 0 91 38 98 45c6 4 67 30 72 30v-1c0 -2 -3 -5 -7 -9c-4 -7 -6 -12 -6 -15c0 -2 0 -3 2 -3c7 0 29 16 43 30
c0 0 103 79 114 79c2 0 3 0 3 -2c0 -4 -6 -17 -26 -31c-11 -11 -118 -94 -118 -94c-19 -14 -23 -26 -93 -61c-21 -14 -16 -20 -37 -20zM59 238c12 11 10 13 13 30c-1 0 -2 -3 -6 -9zM64 204c2 0 4 2 4 5c0 10 19 61 21 63l3 7l-3 2c-3 0 -5 -4 -5 -9
c-13 -35 -22 -50 -22 -63c0 -3 0 -5 2 -5zM219 50l4 2l1 8c0 4 -1 8 -4 8c-2 0 -4 -4 -4 -9c0 -6 1 -9 3 -9z" />
    <glyph glyph-name="F" unicode="F" horiz-adv-x="233" 
d="M115 -40c-5 0 -11 9 -29 33c3 62 4 87 9 116c13 33 12 62 23 91c13 41 18 54 18 61c0 12 4 11 9 27c0 20 8 33 18 61c0 1 -12 7 -30 7s-42 -6 -63 -32c-6 -8 -11 -11 -16 -11c-26 0 -27 38 -34 45c-2 1 -3 6 -3 10c0 6 2 13 6 15c8 9 124 57 135 57l3 -1c4 0 2 3 5 7
l14 -2c9 0 24 23 29 32c4 32 40 121 40 136c-22 -3 -13 1 -36 -5c0 0 2 2 7 5c17 12 28 10 38 24c0 1 -2 1 -6 1c-11 0 -24 -11 -32 -11c-20 -10 -12 -3 -26 -18l3 -6c0 -12 -33 -23 -84 -49c-4 0 -27 -22 -27 -29c0 -13 -14 -22 -46 -23c-21 0 -31 7 -31 21
c0 5 -9 12 -9 20c0 11 9 12 9 21c0 4 20 27 27 27c10 0 88 39 102 39l4 -1c7 0 14 23 32 23c23 0 67 25 75 25c28 9 28 47 49 47c24 -6 35 -10 51 -10c18 0 39 13 86 26c28 9 151 35 179 35c14 -1 19 -4 19 -7l-5 -12c5 0 9 -11 9 -20c-3 -9 -5 -12 -14 -12c-7 0 -9 4 -19 6
c-25 0 -116 -22 -132 -28l-74 -17c-3 0 -4 1 -4 6c0 3 5 3 9 8l-6 1c-18 -5 -27 -8 -27 -11c8 -2 15 -3 15 -8c-4 -5 -10 -5 -30 -8l-1 1c4 5 7 7 7 10s-2 4 -5 4c-7 0 -13 -7 -13 -11l2 -3c0 -6 -34 -43 -34 -47c0 -15 -48 -124 -59 -152c39 5 39 15 83 25
c92 27 121 42 138 42c6 0 9 -3 14 -6c14 -6 14 -6 14 -25c0 -20 0 -20 -43 -29c-16 -2 -34 -7 -41 -11l-29 -10l-12 1c5 8 21 12 46 20c7 7 27 8 38 13c7 6 9 8 9 9l-4 1c-107 -27 -96 -27 -134 -46c-16 -4 -30 -13 -30 -20l1 -8c0 -5 -2 -6 -5 -8c-43 -16 -82 -41 -82 -52
c0 -18 -20 -33 -20 -61c-22 -75 -38 -133 -43 -139c-5 -28 -1 -41 -12 -52c-5 -11 -5 -27 -9 -38c-5 -16 -11 -59 -11 -82v-32zM170 593c3 0 7 1 11 4l3 2c0 2 -3 5 -8 5c-6 -1 -11 -4 -11 -7s2 -4 5 -4zM119 96c2 0 3 2 3 6c0 0 -2 2 -6 2l-5 -1zM122 154c3 0 3 5 3 9l-1 6
c-3 -6 -5 -8 -5 -12c0 -2 1 -3 3 -3zM129 191c4 0 10 8 10 13l-2 6l3 9c-7 0 -8 -10 -13 -26zM134 154c4 0 5 5 10 14l-1 2l-7 -7zM145 188c2 0 2 3 2 7c0 5 0 7 -2 7s-3 -3 -3 -6s1 -7 3 -8zM150 211c9 15 4 8 9 25c0 4 -6 -2 -12 9c0 2 0 3 -2 3s-7 -6 -7 -12
c0 -7 12 -7 12 -14v-11zM161 256c5 0 9 2 9 5c0 9 -7 7 -7 11c0 6 21 23 21 35c-1 4 -5 6 -12 6c-12 0 -13 -14 -22 -52c2 -3 7 -5 11 -5zM181 329c9 0 12 2 12 9s-4 6 -7 8l2 3c0 3 -2 5 -7 5c-4 0 -11 -14 -11 -23c0 0 4 -2 11 -2zM229 486c8 0 11 4 13 14l-4 6
c-5 0 -11 -9 -11 -16zM260 457l5 3c0 3 -2 3 -2 3c-2 0 -5 -3 -5 -5zM251 425c8 2 13 1 13 3l-6 2l-6 -4zM434 701c11 0 31 7 31 13c-28 0 -41 -3 -41 -8c0 -2 2 -4 7 -5h3z" />
    <glyph glyph-name="G" unicode="G" horiz-adv-x="396" 
d="M217 -154c-9 0 -15 25 -15 48c1 48 7 61 17 140l-1 11c-11 0 -52 -58 -84 -58c-18 0 -30 -4 -47 -7c-15 0 -26 12 -51 47c-27 43 -36 68 -36 118c0 102 71 306 79 306c6 0 6 30 25 57c31 62 76 140 134 197c11 14 16 14 48 16c27 0 36 0 43 -7l16 -11c6 -6 29 -31 29 -95
l1 -23c0 -54 -32 -107 -47 -107c-6 0 -12 14 -17 14s-8 3 -8 9s4 15 10 25c13 21 24 76 24 110c-2 29 -6 45 -19 45c-10 0 -29 -28 -35 -28s-40 -32 -59 -52c-18 -20 -38 -54 -38 -61c0 -5 0 -7 -2 -7c-9 0 -68 -102 -68 -116c-11 -30 -19 -44 -19 -49
c-7 -15 -13 -20 -13 -37c0 -16 -25 -51 -25 -70c-14 -58 -19 -43 -23 -123c0 -83 12 -58 12 -68c0 -24 8 -35 28 -40c39 0 123 84 134 84c-15 -30 -26 -45 -26 -50l1 -1c34 0 74 112 74 128c5 11 27 56 27 70c0 3 -3 5 -8 5c-13 0 -25 -7 -50 -19c-11 0 -13 30 -33 71
c18 8 30 15 77 29c11 2 25 7 34 11c22 7 39 11 51 11c13 0 19 -4 19 -11c0 -4 -4 -6 -15 -6h-7c-9 0 -13 -3 -13 -7c5 -9 6 -13 24 -13c11 0 27 3 43 8c30 15 66 15 66 23v3c0 3 1 4 4 4c18 -5 27 -8 27 -18c0 -4 -4 -8 -11 -12c-88 -20 -124 -36 -124 -47
c0 -33 -32 -61 -32 -80c0 -13 -15 -37 -39 -104c-7 -8 -19 -53 -25 -64c-4 -4 -4 -34 -9 -34c-8 0 -8 -57 -13 -72c-5 -9 -9 -23 -12 -39c-8 -39 -16 -54 -23 -54zM155 569c3 0 6 8 11 18c-3 0 -5 -2 -10 -6zM135 532c5 0 5 7 11 21l-1 2c-11 -10 -11 -18 -11 -22zM120 502
c3 0 9 7 9 13c0 4 0 7 -2 7c-4 0 -10 -10 -10 -16zM39 236c4 0 15 39 20 61c0 23 27 70 33 99c0 4 -1 7 -4 8c-7 0 -7 -16 -13 -36c-5 -5 -9 -16 -12 -28c-18 -51 -26 -75 -26 -98c0 -4 0 -6 2 -6zM97 463c12 7 19 4 19 13c-1 10 0 5 -5 14c-4 0 -7 -7 -14 -25v-2zM27 184
c3 0 5 9 7 25l-1 11c-6 -11 -9 -16 -9 -26c0 -4 1 -8 3 -10zM12 183c24 74 17 76 36 141c15 31 16 59 25 75l13 27c1 4 2 6 4 6c5 -9 7 -15 11 -15c3 0 6 4 6 12c0 7 -2 10 -4 10l-3 -1c-9 0 -6 14 -9 14c-4 0 -28 -42 -28 -60c0 -19 -18 -47 -22 -65
c-9 -21 -25 -100 -30 -127zM167 47c7 0 8 8 12 18c-13 -8 -7 -3 -14 -16zM207 -128l6 24s-7 -2 -7 -16zM212 -92c0 0 1 2 1 6s-2 7 -2 7l-2 -5zM214 -67l5 14l-4 3s-2 -4 -2 -11zM223 -2l5 18c-3 -4 -6 -7 -6 -14zM249 92c5 10 2 4 4 15c-1 0 -3 -3 -7 -11l1 -3z" />
    <glyph glyph-name="H" unicode="H" horiz-adv-x="460" 
d="M322 415c-4 0 -6 0 -6 1c3 6 5 6 13 6c2 -2 5 -2 5 -5c-3 -2 -7 -2 -12 -2zM186 259l-1 -1l-2 4c0 4 2 8 5 13zM117 -39c-6 0 -10 5 -10 46c0 43 7 37 7 50c0 18 1 16 4 23l-5 18c0 3 10 -1 10 11c0 16 17 99 23 121c0 9 -10 3 -10 17c0 7 2 12 5 12c4 0 5 -4 12 -9
c3 0 4 4 4 11v9c0 23 1 20 13 29c-33 -4 -60 -20 -140 -41c-18 0 -23 23 -27 28l-3 7c0 28 168 57 175 90c12 51 9 36 50 159c9 18 72 172 79 172c15 0 8 -7 27 -20c9 -4 14 -7 14 -11s-3 -8 -9 -14c-7 -7 -57 -147 -57 -150c-22 -44 -47 -100 -47 -122l2 -1
c10 0 28 6 63 15l5 -4c0 -9 -67 -23 -72 -37l2 -2c15 0 88 31 142 52c5 4 12 6 14 6s16 21 16 25l20 53c10 14 4 20 18 32l-3 -12v-1l6 1c4 0 6 -2 6 -6c-4 -14 -25 -10 -25 -30l2 -3c3 0 5 4 9 10l1 -5c0 -20 -19 -26 -21 -38c0 -3 2 -3 7 -3c21 0 22 58 37 68
c4 10 4 17 6 36c3 0 4 2 4 4l-4 11l-5 -7c-1 0 -1 2 -1 4c-10 -14 -12 -24 -17 -24l-2 2c0 10 34 92 62 147c4 13 9 22 11 24c0 0 9 30 14 30c0 0 9 32 22 32c32 -9 43 -17 43 -28l-2 -13c-5 -5 -11 -23 -27 -52c-7 0 -33 -54 -39 -84c-4 -10 -25 -27 -25 -43
s-21 -13 -25 -32c0 -6 12 -5 12 -11c0 -10 -32 -35 -32 -50l2 -7c2 -3 6 -5 17 -5l35 1c18 0 26 -3 26 -10c0 -6 -5 -9 -16 -9c-30 0 -91 -18 -91 -27c-7 -7 -6 -13 -13 -34c0 -4 3 -7 8 -7c3 0 5 -2 5 -7c0 -6 -14 -13 -14 -29v-5c0 -6 -2 -9 -4 -9c-14 0 -9 -38 -25 -86
c-8 -16 -2 -23 -9 -46l4 -11c-4 -13 -7 -19 -7 -31c0 -10 1 -11 5 -12c5 0 1 12 7 43c1 0 3 -7 3 -22l-1 -21c0 -89 9 -101 24 -133c0 -2 -1 -3 -3 -3c-7 0 -32 30 -41 48c-9 20 -9 20 -9 77c0 83 12 65 12 70c-5 7 -2 4 -11 8c-3 0 -5 -3 -6 -10c-1 0 -2 8 -2 18
c0 49 29 33 29 52c-2 12 -3 17 -7 17s-7 -12 -11 -12l-1 8c0 22 6 35 12 67c0 16 7 15 7 32c0 9 14 27 21 27c2 0 2 -5 2 -14l-2 -9c0 -3 2 -4 4 -4c5 0 5 4 5 11l5 19c0 4 -5 4 -26 4c-30 0 -31 -7 -63 -16c-43 -14 -59 -23 -66 -30c-32 -15 -54 -19 -54 -32
c0 -8 -11 -34 -16 -34c-3 15 -2 8 -3 24c-9 -16 -15 -3 -15 -28c0 -24 -9 -32 -9 -45l1 -5l-26 -100l2 -7c11 0 11 53 32 105c2 7 4 11 6 11c-20 -100 -5 -43 -34 -147c-4 -14 -2 -32 -6 -46c-11 -52 -13 -91 -22 -91zM373 277l6 4c0 3 -2 3 -5 3c-2 0 -2 -3 -2 -5zM362 208
c7 4 5 1 7 9c-2 7 1 4 -5 9l-5 -14c0 -3 1 -4 3 -4zM386 327c3 0 6 4 6 8s-3 6 -8 8c-3 0 -2 -4 -4 -12c0 -3 3 -4 6 -4zM394 346c5 0 10 5 10 12c0 0 -2 3 -7 3c-7 0 -9 -3 -9 -7c0 -6 3 -8 6 -8z" />
    <glyph glyph-name="I" unicode="I" 
d="M123 343l-2 1l4 8c3 0 3 -3 3 -5s-3 -4 -5 -4zM150 358h-6c-11 6 -16 1 -16 14l9 18c6 -7 3 -4 11 -8l4 2l3 -10c0 -6 -2 -13 -5 -16zM143 401c-3 0 -4 4 -5 12c0 5 3 7 8 7c3 0 5 -3 5 -6s-2 -7 -5 -10zM116 -48c-8 0 -30 20 -34 32c-1 16 -3 21 -9 21
c-20 -5 -30 -7 -43 -7c-20 0 -16 16 -20 16c-7 5 -10 14 -10 25c2 31 3 36 28 36c21 0 32 8 54 16l1 29c4 -10 6 -16 9 -16c4 0 6 10 6 30c0 42 -14 25 -14 34c3 11 1 6 7 14c3 0 3 -4 10 -10c3 0 6 5 6 14c0 8 0 11 -3 11l-10 -3c-2 0 -3 2 -3 5c2 16 0 35 9 35
c2 0 4 -3 4 -7l-2 -13c0 -4 1 -6 2 -6c3 0 7 9 9 26c0 9 -11 17 -11 27c5 31 2 14 10 45c0 5 1 7 2 7c3 0 6 -4 7 -11l-10 -33c0 -4 2 -6 5 -6c7 0 8 45 28 91v-18c0 -9 -3 -21 -5 -23c-27 -109 -33 -158 -33 -177l2 -4c6 0 8 42 29 124c2 7 4 19 4 28l18 72
c11 11 12 36 23 80c5 8 9 31 9 42c0 3 -1 6 -1 6c-10 -17 -6 -10 -10 -28c-5 -7 -7 -16 -7 -18c0 -9 -4 -15 -9 -30c-1 -11 -4 -17 -7 -17c-1 0 -2 3 -2 8c0 16 5 17 5 22c0 8 -13 10 -13 25c2 7 0 5 6 8c3 0 7 -3 7 -7l-1 -9c11 0 10 24 18 48l-2 2c-5 0 -11 -25 -17 -25
c-2 0 -3 2 -3 7c0 2 0 6 2 6l35 117c-6 11 -7 16 -13 16l-11 -3c-87 -54 -99 -64 -113 -74c-18 7 -26 16 -26 31c5 29 32 58 47 65c4 0 63 34 68 41c4 5 6 7 9 7l1 -6c0 -10 -2 -13 -7 -19c0 -3 4 -5 10 -5c8 0 15 16 32 16c8 0 14 2 19 9l-6 2l-27 -7c-7 0 -14 8 -14 11
c0 2 3 4 7 4l5 -1c5 0 0 13 20 21c18 9 42 20 64 25c37 0 35 6 61 16c15 4 32 6 48 6c36 0 50 -14 50 -20l-4 -8c6 -12 10 -14 10 -30c0 -35 -57 -33 -77 -46c-7 -3 -12 -5 -16 -5c-6 0 -9 3 -9 10l1 9c0 3 -2 4 -5 4c-11 0 -39 -11 -45 -22c-10 -12 -34 -73 -34 -84
c0 -19 -23 -52 -23 -68c0 -13 -11 -27 -18 -48c-17 -49 -12 -69 -23 -91c-5 -4 -5 -11 -5 -18c0 -12 -13 -38 -13 -43l-21 -91c-4 -4 0 -45 -9 -54c-2 -2 -4 -11 -4 -20l2 -16c32 4 52 16 70 16c9 0 30 11 55 11c31 0 49 -13 49 -20c0 -5 -3 -4 -7 -7c4 -3 8 3 8 -12
c0 -12 2 -16 4 -29c-1 -4 -3 -6 -6 -6l-15 2c-36 0 -84 -25 -126 -32c-32 -7 -37 -8 -37 -25l2 -42c0 -7 -1 -11 -4 -11zM132 635l2 3l-6 3l-4 -4c0 -2 2 -3 4 -3zM107 107v13l-2 -2v-9zM223 98c6 0 10 3 10 5l-1 1s-6 -1 -11 -6h2zM171 77c4 3 6 6 6 9l-4 3
c-11 -5 -8 0 -15 -9c0 -2 3 -3 7 -3h6zM187 504c2 2 4 9 4 18v16c-8 -15 -13 -21 -13 -30c0 -3 1 -5 4 -5zM196 492c4 0 11 18 11 30l-1 7c-7 -6 -12 -21 -12 -33zM309 706c6 0 14 5 14 8s-5 5 -9 5c-7 0 -12 -3 -12 -7l3 -4zM362 720l-1 1h-11l-1 -1h13z" />
    <glyph glyph-name="J" unicode="J" horiz-adv-x="302" 
d="M120 -19c-18 0 -37 4 -55 12c-39 18 -48 37 -54 102c-6 35 -11 43 -11 68c0 13 1 25 4 25c11 0 17 -101 25 -108c2 -5 4 -10 4 -14s9 -9 9 -16c0 -5 21 -26 46 -26c33 0 72 43 72 76c7 20 15 25 18 43c0 24 24 86 37 145l25 98c2 18 6 38 11 47c19 70 27 92 34 157
c-22 0 -27 -15 -58 -15c-35 3 -44 9 -44 35c4 55 0 37 95 100c9 6 14 10 19 10c11 0 21 -9 45 -26c41 10 60 17 71 17l1 -1l-3 -15l1 -2c29 5 28 43 60 47c13 0 35 -27 35 -53l-2 -22c-12 -3 -14 0 -32 -12c-11 -11 -39 -7 -61 -18c-9 -4 -20 -9 -25 -9
c-44 0 -41 -29 -61 -95c-35 -104 -51 -181 -57 -193c-16 -28 -25 -70 -25 -100c6 19 3 10 11 27c-2 -20 1 -27 -9 -31c-4 0 -10 -11 -14 -26c4 -10 7 -10 7 -19c0 -13 -20 -19 -20 -40v-4c-11 -33 -19 -46 -19 -56c0 -3 1 -4 2 -4l4 1c2 0 4 0 4 -6c-2 -12 -9 -23 -18 -25
c-9 0 -6 -9 -9 -23c6 16 3 8 11 23c0 -39 -30 -74 -74 -74zM138 16c4 0 6 0 6 2c0 5 -2 7 -4 7c-5 0 -7 -2 -7 -7v-1c0 -1 3 -1 5 -1zM151 34c24 0 18 49 30 61c27 92 33 124 43 164c4 11 7 23 7 30c0 4 -1 6 -3 6c-4 0 -9 -34 -13 -39c-29 -129 -34 -131 -41 -152
c0 -20 -10 -18 -24 -67zM233 309c0 0 12 26 20 75l-1 5c-3 -3 -21 -67 -24 -76c0 -2 3 -4 5 -4zM257 398c6 7 9 22 10 51c-6 -11 -11 -36 -11 -48z" />
    <glyph glyph-name="K" unicode="K" horiz-adv-x="349" 
d="M66 -52l-2 -1c-5 0 -25 24 -30 24c-8 0 -12 17 -12 42c0 32 9 109 17 116l27 75c4 9 7 23 9 27c0 22 -48 9 -48 23c-2 7 -4 11 -6 11c-5 0 -21 32 -21 41c0 7 65 27 79 41c16 15 24 17 39 27c0 3 5 5 7 5c12 3 34 39 81 165c3 12 7 21 10 21c2 2 2 7 2 11c0 5 -2 7 -2 7
l-3 -1c-3 0 -3 2 -3 6c2 25 21 37 21 56c0 7 0 12 3 12c12 0 33 84 56 84c23 -8 34 -11 34 -34c0 -22 -13 -44 -25 -96c0 -9 -22 -50 -27 -68c-2 -7 -4 -13 -7 -13c0 0 -1 -19 -19 -48v-1c4 0 19 10 53 33c10 6 19 13 19 18c0 8 78 56 81 66c0 3 1 -4 27 15c9 6 13 9 17 9
c15 -7 32 -25 36 -52c0 -23 -148 -97 -148 -104s-13 -9 -45 -32c-15 -7 -26 -18 -61 -45c-22 -14 -37 -28 -37 -34v-2l8 -2c46 6 70 12 123 12c68 0 89 -25 98 -56c5 -11 5 -22 5 -22c-18 3 -16 8 -66 8c-130 0 -203 -37 -211 -42c-12 -9 -17 -34 -45 -118
c-25 -75 -25 -77 -30 -132c0 -25 -4 -50 -4 -52zM48 23c9 0 21 81 34 109l9 25c0 4 27 60 27 81l1 2c-3 4 0 4 -5 5c-26 0 -26 -11 -29 -31c0 -4 2 -5 4 -5c4 0 5 -2 5 -5s-3 -8 -8 -9c-6 0 -14 -5 -21 -38c0 -12 3 -9 6 -17c0 -9 -11 -6 -17 -17l8 -16
c-9 -8 -14 -2 -14 -27l2 -28l2 -5c-6 -11 -11 -15 -11 -21c0 -2 1 -4 4 -4zM86 333c5 0 12 3 14 5c17 15 26 18 26 26l-3 4c-9 0 -11 -19 -43 -32zM161 389c4 0 9 5 9 8l-1 2c-9 -3 -5 -1 -10 -9zM220 333c10 0 31 8 31 11l-1 1c-6 0 -39 -5 -39 -9c0 -1 3 -3 9 -3zM234 526
c9 5 8 7 11 10l5 -1l-4 6c0 9 21 24 21 27c-9 5 -10 6 -20 6l-5 -6l1 -1c-12 -23 -7 -12 -16 -37c0 -3 1 -4 4 -4h3zM182 427c19 11 38 30 38 45c0 4 12 21 12 30c0 8 -3 9 -10 12c-5 0 -9 -8 -9 -18v-6c0 -9 -2 -14 -7 -16c-2 0 -6 -4 -6 -9zM233 441c7 0 24 15 46 34
c0 1 -2 1 -7 2c-11 0 -41 -31 -41 -35zM286 481c6 0 25 16 25 20l-3 1c-15 -7 -25 -12 -25 -19c0 -1 1 -2 3 -2z" />
    <glyph glyph-name="L" unicode="L" horiz-adv-x="487" 
d="M98 -50h-2c-12 0 -21 23 -21 57l-27 -2c-38 0 -39 16 -39 22l-4 12c-2 2 -5 11 -5 22c0 23 12 28 50 28c11 0 27 2 34 4c16 5 16 7 34 70c24 72 44 141 66 214c0 6 7 25 14 43l52 186c30 97 27 113 42 113c12 -7 37 -16 37 -36l-25 -100c-17 -42 -15 -37 -36 -120
c-32 -84 -32 -118 -41 -127c-15 -51 -6 -25 -25 -77c-12 -6 -6 -36 -25 -59c-9 -19 -6 -38 -24 -79l8 -19c0 -3 4 -4 8 -4c15 0 14 14 25 14l20 -2c22 0 86 31 101 31c26 0 90 26 92 33l-9 2l-40 -3l-4 1c19 11 30 12 66 17c15 0 14 -20 29 -25c7 -5 12 -9 12 -14l4 -34
c-113 -16 -188 -41 -197 -50c-13 -9 -134 -38 -138 -43c-12 -8 -16 -69 -32 -75zM125 107c6 0 12 18 27 52c22 44 32 110 46 143c2 0 4 11 9 22c26 99 10 49 38 141c4 12 7 31 7 46c0 10 -2 18 -5 18c-11 -23 -5 -14 -11 -37c-20 -39 -13 -40 -20 -54
c-11 -17 -8 -31 -12 -39c-4 -2 -4 -9 -4 -16l1 -6c0 -12 -13 -21 -13 -25c0 -5 -13 -43 -13 -53c0 -8 -14 -23 -14 -38c0 -17 -18 -44 -18 -61c0 -9 -7 -6 -7 -21c0 -13 -6 -18 -6 -22v-4c0 -5 -2 -10 -5 -15l-6 -23c0 -5 2 -8 6 -8zM200 66c6 0 27 8 27 13
c-21 -2 -31 -5 -31 -11zM243 80c9 0 16 2 16 2l1 3c0 1 -2 2 -5 2c-8 0 -12 -2 -26 -7h14zM173 111c-5 0 -8 1 -8 2l13 10c2 0 4 -2 4 -7c0 -2 -5 -5 -9 -5z" />
    <glyph glyph-name="M" unicode="M" horiz-adv-x="469" 
d="M384 322v2c0 14 7 32 10 32l3 -5c0 -10 -11 -29 -13 -29zM19 -66c-12 0 -19 28 -19 80c1 49 2 79 5 79c0 0 2 17 2 43c2 0 5 12 5 25c2 26 12 52 19 52h3c4 0 7 6 7 11l-2 5c-2 2 -7 2 -11 2h-3c-2 0 -2 3 -2 12c0 11 0 16 7 16c6 0 9 -10 12 -10c10 0 13 26 24 60
c7 10 8 24 10 43c0 4 0 5 -3 5c-7 -1 -14 -3 -14 -10c0 -9 -9 -27 -11 -27s-5 4 -7 11c0 9 0 14 5 18c4 4 5 35 11 41c9 19 12 50 43 143c0 21 21 131 53 131c36 -12 57 -6 64 -67c0 -13 -13 -34 -13 -44l-2 -151c0 -121 0 -143 5 -148l11 -2c7 4 41 54 41 61
c0 5 14 19 18 32c6 15 11 21 15 21c7 0 12 -12 15 -12c10 0 58 99 58 120l-6 17c0 2 1 3 3 3l8 -2c6 0 11 5 11 12l-5 13c0 7 17 -1 21 25c7 27 23 19 23 41c0 11 11 9 11 16c11 20 21 23 21 41l11 16c8 4 22 52 27 52c13 22 12 31 22 31c29 -8 37 -3 37 -38
c-4 -25 -4 -41 -9 -41c0 0 -2 -9 -2 -20c0 -26 -14 -36 -14 -46s-6 -15 -18 -52c-4 -20 -14 -43 -16 -50c-3 -18 1 -17 -9 -36c-7 -4 -10 -36 -16 -41c-16 -48 -38 -96 -38 -129c-10 -38 -27 -92 -27 -139c0 -41 4 -31 9 -47c0 -4 -1 -7 -5 -7c-19 6 -23 1 -29 23
c-5 14 -12 27 -19 56c1 4 4 4 4 14l-1 7c0 42 11 108 20 112c2 0 4 -5 4 -11l-4 -26l3 -2c4 0 7 24 13 47c4 9 7 20 7 25c17 41 7 53 22 68c16 54 14 25 23 73c0 6 12 29 12 36l-1 2c-11 0 -15 -45 -27 -45c-2 0 -3 0 -3 2c0 8 16 40 28 73c6 0 9 31 13 31l1 -2
c0 -26 -7 -21 -12 -52c14 20 15 17 28 70l-1 7l-8 -7c-3 0 0 18 -5 18s-34 -52 -34 -52c-5 0 -18 -27 -23 -41c0 -4 -22 -45 -22 -49c-25 -46 -23 -48 -28 -62c-19 0 -21 -57 -95 -190c0 -12 -25 -41 -47 -48c-9 0 -31 17 -46 41c-20 45 -14 229 -22 229l-3 -2
c-34 -78 -45 -103 -45 -120c0 -12 -36 -111 -36 -123c0 -8 -14 -31 -14 -41c0 -6 -2 -16 -4 -20c-12 -71 -14 -126 -25 -126l-1 7c-3 -2 -5 -5 -5 -17c0 -29 3 -25 6 -48c0 -16 0 -16 -9 -16zM17 111c2 0 3 2 3 5s-1 5 -3 5l-3 -5zM32 184l2 4c0 4 -1 4 -4 6l-2 -6
c0 -2 2 -4 4 -4zM80 368l6 18c0 5 -2 8 -5 8c-6 -2 -9 -3 -9 -8l3 -12zM83 411l4 2l1 9l-1 7c-4 0 -8 -6 -8 -12l1 -4zM291 322l2 5c0 2 -2 2 -2 2c-3 0 -5 -2 -5 -5c0 -1 1 -3 3 -3zM372 226l6 14l-4 6c-2 0 -2 -4 -2 -10v-10zM407 386c-3 2 -3 0 -4 5c0 5 4 17 8 17
c2 0 3 -4 3 -8c0 -5 -1 -10 -3 -12zM417 423l-2 4c1 12 8 33 14 33c2 0 2 0 2 -2c-5 -24 -8 -35 -14 -35zM307 373l-10 4v2c0 11 7 15 16 32c0 6 3 13 5 13s3 -2 3 -6c0 -7 -10 -20 -10 -37c0 -5 -1 -8 -4 -8zM407 617l-2 3c4 11 0 7 9 16c1 0 1 -2 1 -5c0 -5 -2 -10 -4 -12
zM372 556c-2 0 -3 1 -3 3c0 8 19 40 24 40l1 -1c-9 -25 -16 -42 -22 -42zM342 491l-3 5l5 4c5 -1 3 0 5 -4l-2 -4zM43 284c-8 0 -10 5 -14 18c0 3 2 4 6 5c7 0 15 -6 15 -12c0 -5 -4 -9 -7 -11zM342 433c-1 0 -1 1 -1 5c2 4 2 9 4 9l3 -1zM336 440l-4 -1c-4 0 -8 3 -10 8
c0 2 3 4 7 4c6 0 9 -3 9 -6z" />
    <glyph glyph-name="N" unicode="N" horiz-adv-x="416" 
d="M42 264l-2 1l1 10c1 0 1 -4 1 -7v-4zM33 231h-1c-2 0 -3 3 -3 10c0 8 1 13 4 13c6 -9 4 -4 6 -15c0 -4 -2 -6 -6 -8zM28 213l-2 3v6l2 1v-10zM391 442c-2 0 -4 3 -4 5c0 4 2 7 4 9h1c2 0 2 -3 2 -7s0 -7 -3 -7zM378 407l-4 4c0 3 2 5 4 5s3 -2 3 -5c0 -2 -1 -4 -3 -4z
M332 260c4 8 2 4 8 11c1 0 2 -1 2 -3c0 -3 -3 -5 -7 -7zM322 222l-1 3c5 13 1 7 9 20v-7c0 -4 0 -11 -4 -13zM353 281h-2c-5 0 -16 7 -16 9c0 4 4 8 10 12l6 -7zM353 327c-2 0 -5 2 -5 4c2 5 4 7 6 7l3 -5c0 -4 -2 -6 -4 -6zM417 532l-4 6c0 5 4 12 8 12c4 -2 7 -3 7 -6
l-5 -9zM295 112c-2 0 -3 3 -3 8s2 7 4 7c3 0 5 -1 5 -4zM318 -51c-11 0 -19 22 -31 28c-12 7 -19 44 -19 84c0 39 11 75 11 99c0 36 -27 73 -37 103c-36 112 -52 213 -66 220c-8 0 -27 -67 -27 -81c0 -6 -21 -35 -21 -50c0 -16 -14 -31 -18 -59c-2 -25 -13 -64 -18 -64
c-19 -76 -19 -111 -29 -131c-8 -15 -6 -83 -13 -85c-5 0 -4 8 -12 8s-3 11 -16 11c-12 0 -16 9 -16 27c0 16 -4 19 -6 27c5 41 5 44 13 80c11 16 5 32 9 36c3 0 4 -6 4 -14c0 -21 -5 -34 -9 -60c0 -3 1 -6 3 -8c3 0 9 27 11 48c0 21 18 53 18 77c0 5 2 16 5 20l18 50
c4 9 4 41 9 50c4 5 1 37 11 57c5 7 7 18 7 23l-1 4c-2 0 -15 -43 -19 -47l-11 -42c0 -10 -10 -24 -21 -65c-2 0 -2 7 -2 16c6 27 7 32 13 52c9 13 7 25 16 52c23 58 14 49 32 102c6 12 16 57 19 77c0 14 -13 28 -13 36c0 5 4 8 14 8l7 -1c7 0 9 3 16 23c11 48 13 52 25 57
c6 4 13 5 18 5c11 0 13 -17 18 -17s27 -27 27 -34c0 -12 -33 -70 -33 -107c0 -19 15 -43 15 -54c0 -9 5 -13 9 -27l30 -115c11 -22 7 -38 11 -50c5 -10 7 -35 11 -43c8 -31 7 -45 13 -45s7 12 17 38c17 35 19 90 32 90h1c1 0 2 -3 2 -7c0 -14 -12 -27 -12 -45
c-9 -35 -28 -78 -28 -104l1 -5c5 3 6 6 10 6c2 0 4 -3 4 -6c-4 -13 -10 -7 -10 -11c0 -10 4 -19 12 -24c9 0 13 22 22 60c7 11 5 61 20 68c8 0 6 30 12 41c3 8 6 16 7 28c0 5 -2 7 -8 7l-8 -1c-4 0 -6 4 -6 9c0 9 3 11 11 13c3 0 3 -13 13 -13c9 0 13 7 13 23c0 8 6 14 6 23
l-1 4c0 18 16 25 16 59c0 5 -2 8 -5 8l-7 -2c-7 4 -4 1 -11 7c-12 0 -8 -22 -50 -130c0 40 41 137 55 203c4 18 18 49 18 59s6 10 6 18c10 30 16 38 16 50c0 14 9 19 33 22c11 0 7 -13 15 -13c10 0 7 -13 16 -18c3 -2 5 -4 5 -8c0 -19 -53 -104 -53 -141
c0 -11 -10 -36 -29 -98c-5 -18 -9 -11 -9 -29c0 -13 -7 -9 -12 -28c-19 -76 -27 -77 -27 -93c0 -4 0 -11 -2 -13c-15 -8 -32 -107 -45 -163c-9 -22 -13 -54 -17 -122c0 -10 1 -16 3 -24l2 -18zM31 68c4 0 9 5 9 14l-3 5c-4 -2 -8 -7 -8 -15c0 -2 1 -4 2 -4zM39 101l3 6
c0 4 -1 7 -3 7s-3 -3 -3 -7c0 -3 1 -6 3 -6zM55 131l1 5c0 17 -6 15 -8 30c-3 0 -5 -13 -8 -31c0 -3 0 -4 2 -4c6 7 4 3 7 12c5 -8 4 -12 6 -12zM55 210c7 0 10 12 17 33c0 2 -1 2 -3 2c-6 0 -15 -18 -18 -25c0 -6 2 -10 4 -10zM68 264c8 3 5 21 11 26c2 2 11 38 11 46v2h-5
c-13 -45 -8 -22 -19 -71zM96 360c9 9 12 15 12 20c0 4 -1 6 -5 6c-6 0 -6 -10 -8 -23zM101 458c6 6 6 6 6 9l1 7c-9 -7 -5 -4 -9 -14zM117 417l2 5l-2 5l-2 -3zM282 -5c7 6 5 102 12 102l4 -6c-3 -11 -6 -17 -6 -42c0 -21 3 -42 6 -42s3 4 3 11l-1 11c0 31 11 68 11 82
c0 16 -11 32 -17 32c-5 0 -7 -2 -7 -5c-6 -23 -11 -12 -11 -70c0 -36 4 -73 6 -73zM418 498l3 1c7 4 13 10 13 16c-2 7 -6 9 -6 15c0 9 13 13 13 19c0 2 -4 7 -6 9l-7 14c0 7 6 6 16 9c-12 3 -16 6 -16 11c-9 -4 -5 -3 -9 -11c-13 -37 -21 -55 -21 -71l1 -9c7 9 4 5 13 12
c3 0 1 -15 6 -15z" />
    <glyph glyph-name="O" unicode="O" horiz-adv-x="306" 
d="M335 597h-1l-4 7c0 3 2 4 4 4c1 0 3 -2 3 -6c0 -3 -1 -5 -2 -5zM79 -27c-30 0 -35 28 -48 34c-13 3 -24 38 -25 78c0 35 17 125 23 137c4 5 5 10 5 15c0 13 -23 27 -23 38c0 10 -11 38 -11 77c5 49 49 148 70 179c25 37 26 51 54 72c10 10 17 19 17 21
c-9 -3 -10 -7 -21 -7c-4 0 -7 0 -7 1c53 70 58 66 127 98c22 -12 71 -5 104 -38c12 -9 18 -18 18 -20c0 -5 3 -9 7 -14c3 -5 5 -48 5 -87c0 -55 -5 -82 -14 -103c-19 -83 -35 -132 -44 -132l-6 3c-5 0 -9 -12 -15 -30c1 0 2 2 6 7l7 9l1 -2c-14 -39 -11 -59 -31 -59
c-5 0 -8 -2 -8 -5l6 -15c0 -4 -3 -8 -5 -8l-4 1c-6 0 0 -19 -14 -37c-17 -39 -31 -53 -31 -61c-41 -54 -13 -51 -102 -141c-16 -9 -25 -11 -41 -11zM153 633l14 14l-16 -12c0 -1 1 -2 2 -2zM42 286c16 0 16 21 26 47c25 51 11 29 20 53c26 73 68 126 95 181c0 6 11 17 23 36
l-2 1c-65 -34 -104 -108 -125 -144c-2 -4 -7 -9 -9 -9s-3 2 -3 5c0 8 14 20 14 29c0 7 2 12 5 14c14 7 19 35 40 50c12 7 11 13 14 27c5 0 25 25 25 30l-1 1c-32 -15 -28 -35 -40 -35c-19 0 -42 -61 -54 -73c-20 -20 -12 -25 -16 -25c-8 0 -39 -99 -39 -127
c0 -9 2 -15 6 -16l6 5c11 40 7 20 16 63c0 14 8 22 23 38v-1c-4 -11 -8 -15 -8 -25c0 -6 -23 -58 -23 -104c0 -10 1 -17 3 -19zM120 374c6 0 8 12 12 32l-3 14c7 36 36 68 36 83l-2 3c-12 0 -21 -44 -32 -50c-21 -50 -27 -50 -27 -65c0 -5 2 -10 4 -10l3 1c2 0 4 -2 4 -3z
M77 270c22 0 17 23 22 23s4 33 9 43c4 6 6 14 6 21c0 15 -10 9 -10 13l-3 3c-8 0 -12 -27 -22 -46c-7 -12 -14 -41 -14 -52c0 -3 5 -5 12 -5zM113 34c9 6 18 18 18 23l-2 2c-4 0 -19 -21 -19 -25h3zM145 77c2 0 6 3 6 5v9c-7 -8 -5 -4 -10 -13zM157 96l7 5l-7 3l-3 -6z
M72 41c14 4 52 39 77 73c11 18 21 27 23 27l2 -3l-2 -9c0 -2 0 -4 4 -4c9 0 21 34 34 47c7 5 9 12 9 16c0 9 -4 16 -6 30l2 9c2 0 4 -7 11 -7c14 0 16 7 16 18c-4 0 -4 3 -4 7c0 2 2 7 6 7c16 0 19 50 30 50c9 0 13 38 23 56c9 10 4 37 13 41c5 0 16 27 16 34
c-2 9 -4 12 -9 12l-9 -5c-2 0 -2 2 -2 5c0 6 4 18 6 18l10 -7c11 0 11 84 15 100c7 20 7 11 7 31c0 25 -7 59 -20 66c-5 3 -14 5 -23 5c-25 0 -32 -14 -57 -25c-13 -5 -20 -9 -20 -14c0 -2 2 -4 7 -4h16c13 0 29 -32 29 -46c-2 -13 -23 -4 -34 -16c-2 -4 -9 -11 -11 -13
c-25 -25 -68 -107 -84 -150c-27 -47 -18 -41 -27 -66c-9 -27 -14 -38 -14 -47c7 -21 2 -12 14 -27c4 0 13 -19 13 -25c0 -7 -25 -12 -52 -14c-20 0 -32 18 -38 18c-3 0 -3 -3 -3 -7c0 -5 0 -10 -2 -13c-11 -30 -16 -68 -16 -98c0 -29 7 -45 12 -45c2 0 2 14 6 38
c0 3 0 3 -2 3c-4 0 -4 -16 -9 -21c-2 0 -2 3 -2 7c2 25 2 32 7 32h6c7 0 16 11 16 32c0 20 9 36 16 36c0 -13 -3 -31 -9 -36c-5 -34 -5 -55 -9 -59l-5 -30c0 -18 7 -27 16 -27h7z" />
    <glyph glyph-name="P" unicode="P" horiz-adv-x="299" 
d="M103 -21c-6 2 -12 3 -19 3c-3 0 -5 1 -5 13c3 68 0 99 10 109c5 6 3 34 16 50l6 16c0 5 -13 1 -13 9c0 14 -45 0 -68 23c-10 9 -14 19 -14 30v5c0 2 0 1 3 6c13 -8 17 -11 41 -11c26 0 59 8 70 20c10 15 59 172 79 233c0 10 36 70 44 114c-6 0 -34 -17 -49 -32
c-72 -61 -95 -86 -131 -141c-22 -29 -31 -47 -31 -60c5 -15 0 -10 13 -19c4 0 20 -30 20 -39c0 -5 -1 -2 -5 -4c-13 0 -46 21 -56 41c-9 16 -14 37 -14 56c0 55 27 76 32 87c32 55 120 126 172 163c6 10 124 71 149 71c4 0 7 -1 8 -3c56 -11 75 -16 102 -59
c19 -24 20 -37 21 -65c0 -24 -2 -56 -5 -60c-4 0 -3 4 -7 11l-4 -4c-5 -21 -3 -29 -10 -36c-9 0 -10 -16 -24 -46c-9 -12 -13 -19 -13 -23c0 -1 1 -2 3 -2c5 1 7 3 7 10c0 4 11 17 29 37c1 0 1 -3 1 -8c0 -17 -16 -23 -16 -27c0 -14 -11 -14 -11 -21c0 -8 -90 -98 -96 -108
c0 -7 -20 -21 -52 -46c-24 -24 -118 -74 -118 -77c0 -10 -14 -53 -21 -53l-8 2c-4 0 -5 -2 -5 -6c0 -6 11 -4 11 -10c0 -12 -23 -19 -23 -28c0 -6 12 -3 12 -11s-18 -3 -18 -14l-2 -9c0 -2 1 -3 2 -3c3 0 3 4 10 12v-1c-5 -31 -15 -95 -23 -95zM100 112c3 3 3 3 3 5
s-1 3 -3 3l-3 -4zM109 143c0 0 3 2 3 11c-3 0 -5 -3 -5 -6c0 -2 1 -4 2 -5zM93 517c7 0 10 0 10 2l-2 8c0 5 7 10 7 13l-2 2c-13 -7 -13 -7 -22 -23c0 -2 2 -2 9 -2zM120 552c14 6 18 12 18 20c0 2 -1 4 -4 4c-9 0 -20 -11 -20 -16s2 -8 6 -8zM141 578c16 8 -7 -2 97 66
c-7 4 -12 5 -20 5c-22 -11 -40 -41 -52 -41c-2 0 -9 -5 -14 -14zM264 660c10 0 22 6 22 14c0 4 0 6 4 6l19 -2l-3 5c0 4 3 7 7 7c3 0 7 0 7 2s-2 4 -4 4c-13 -5 -13 -13 -30 -13c-14 -5 -22 -10 -36 -18l9 -5h5zM207 256c17 0 31 18 38 25c32 21 57 56 70 56l10 -2
c5 0 8 2 8 4c-6 5 -9 4 -9 8c6 14 5 9 32 30c8 7 12 11 14 11l1 -3c0 -3 -2 -4 -3 -4c-5 -2 -18 -18 -18 -23c0 -2 0 -4 1 -4c27 25 36 35 36 44l-3 10c0 3 2 5 6 5l12 -4l6 8c-8 5 -19 11 -19 15c4 4 6 4 8 4c5 0 18 15 18 22c0 2 0 5 -2 7c-4 0 -12 -8 -20 -18
c-46 -50 -71 -82 -84 -89c-18 -27 -41 -49 -46 -49c-24 -33 -24 -20 -60 -53h4zM240 300l10 12l-2 1zM213 304c15 0 31 10 55 34c9 17 27 6 27 20c42 55 82 89 82 96s58 71 61 109l5 20c1 2 2 7 2 13c0 37 -25 55 -64 55c-36 0 -40 -11 -70 -23c10 -15 15 -19 15 -33
c-3 -21 -36 -89 -49 -105c-7 -14 -34 -71 -38 -91c-14 -54 -32 -76 -32 -90c0 -3 2 -5 6 -5z" />
    <glyph glyph-name="Q" unicode="Q" horiz-adv-x="539" 
d="M49 -45c-27 0 -38 18 -38 32c0 4 -5 6 -11 13l6 14c-4 4 -4 2 -4 7c0 9 25 31 29 31c9 0 43 12 93 30c3 0 3 2 3 7c0 9 -23 29 -23 38c0 5 -9 18 -9 41c0 14 2 29 4 38c34 89 43 105 48 105v-14c9 0 20 36 45 68c50 68 64 89 64 95c0 3 -2 3 -5 3c-4 0 -9 -7 -13 -14
c-13 -19 -21 -25 -28 -25c0 14 121 166 157 166c32 0 27 -43 34 -46l2 -4c0 -9 -18 -7 -29 -23c-28 -27 -93 -95 -130 -149c-70 -112 -68 -134 -74 -134c0 0 -7 -14 -12 -34c-7 -5 -16 -34 -16 -43c3 -9 9 -14 19 -14c61 0 113 45 247 204c0 9 45 66 45 79c0 7 14 30 18 30
l2 -5c0 -31 -49 -99 -49 -99c-7 0 -37 -57 -44 -57c-9 0 -47 -77 -65 -77c-9 0 -37 -30 -41 -30c-5 0 -18 -20 -23 -20c-34 -25 -54 -30 -54 -39c0 -6 20 -6 20 -11c0 -2 2 -4 5 -4c13 0 52 18 52 24c0 5 0 5 -5 5l-25 -5c19 23 23 19 50 41c7 12 12 5 25 25
c5 7 12 14 16 14c11 7 66 79 77 86c12 0 16 23 32 54c14 19 14 32 18 37c9 4 7 22 11 27c12 11 10 29 19 52c-12 -7 -7 -2 -14 -11c-2 0 -2 4 -2 13c4 23 20 3 25 25l2 18l-2 5c-9 -16 -9 -25 -14 -25l-2 5c2 11 4 25 4 49c0 66 -22 98 -56 98c-32 0 -118 -27 -157 -52
c-22 -18 -27 -14 -32 -23c-4 -9 -38 -34 -45 -34c-2 0 -2 0 -2 2c4 12 0 9 11 14c8 0 34 32 41 32c0 0 68 45 79 45c5 0 18 14 18 16c-10 0 -56 -15 -56 -20s-25 0 -30 -12c-2 -4 -11 -11 -18 -16c-18 -9 -54 -52 -54 -61c0 -2 0 -7 4 -7c3 -2 5 -9 5 -27
c0 -14 0 -25 -2 -25c-9 0 -8 5 -32 23v27c0 45 25 48 32 61c4 5 11 3 20 16c9 21 39 23 39 27c0 5 38 16 38 28l-4 6c-5 -4 -7 -6 -12 -6c-4 0 -7 0 -7 2c0 11 46 29 46 29c0 5 13 3 27 12c9 4 23 9 32 9c16 0 18 -12 27 -12c7 0 7 5 11 5c9 0 50 -27 64 -43
c25 -30 50 -75 50 -157c0 -22 -3 -43 -5 -50c-2 -4 -7 -11 -7 -18c0 -22 -59 -133 -59 -133c-18 -32 -54 -87 -127 -155l-11 -13c86 7 127 16 152 16c18 0 18 -5 18 -9c0 -8 22 -24 23 -61c0 -6 -2 -7 -59 -7c-61 0 -73 -12 -91 -12c-32 0 -93 -20 -127 -27l-79 -27
c-18 -3 -46 -21 -55 -32c-9 -18 -31 -7 -31 -20c0 -7 0 -7 -19 -7zM331 690c11 2 18 3 18 8c0 2 -1 3 -5 3c-2 0 -7 -2 -9 -7zM278 497c2 0 32 32 32 34s-2 2 -2 2c-4 0 -30 -31 -30 -36zM262 472c8 8 12 7 12 17c0 4 -1 8 -5 8s-9 -12 -9 -18c0 -5 1 -7 2 -7zM236 394l4 1
c3 1 5 3 5 5l-1 2c-5 -5 -2 -3 -8 -8zM172 279c25 0 11 36 52 77c9 12 13 21 13 25c0 3 -1 5 -4 5c-12 0 -24 -35 -45 -64l-21 -41c0 -2 2 -2 5 -2zM151 234c7 0 12 11 12 22c0 7 0 10 -1 10c-9 -8 -12 -16 -12 -28c0 -3 0 -4 1 -4zM120 227l3 7c0 1 0 2 -1 2l-2 -1l-3 -6
c0 -1 1 -2 2 -2h1zM129 251l2 1l2 4l-2 3c-2 0 -4 -3 -4 -5c0 -1 1 -3 2 -3zM81 46c27 8 40 15 50 15c5 0 6 1 9 7c0 3 -3 5 -9 5c-9 0 -50 -22 -50 -27zM185 61c8 0 21 4 25 10l-2 1c-16 -5 -25 -7 -25 -11h2zM294 159c3 0 5 2 5 4c-2 3 -5 3 -7 3l-5 -5c0 -1 2 -2 7 -2z
M256 80c15 1 27 7 27 10l-5 3c-11 0 -36 -10 -36 -13h14zM390 107c7 0 11 0 11 1c0 3 -7 6 -14 6s-11 -3 -11 -5zM301 89c22 5 27 7 43 18l-45 -5c39 20 72 14 93 21l20 3l12 -2c9 0 15 5 15 14c0 3 -2 4 -10 4c-66 -3 -68 -13 -105 -13c-34 -4 -30 -11 -39 -15
c-5 -3 -7 -5 -7 -7c0 -4 6 -2 13 -7l-3 -8c0 -2 4 -3 13 -3zM363 221l3 4l-2 4c-2 -3 -4 -3 -4 -6c0 -1 1 -2 3 -2zM225 123l-8 2c0 4 18 13 23 13c2 0 2 -1 2 -3l-4 -10zM157 333c0 7 22 48 24 48s2 -1 2 -3c0 -9 -4 -10 -9 -22c0 -8 -12 -23 -17 -23zM193 395h-1
c-1 0 -2 1 -2 2l3 5c2 0 3 -1 3 -2zM207 406c-2 0 -4 1 -4 4c0 2 2 4 4 4l3 -4c0 -3 -2 -4 -3 -4z" />
    <glyph glyph-name="R" unicode="R" horiz-adv-x="493" 
d="M346 410c-2 1 -4 3 -4 5c0 7 6 13 18 19c-3 -16 -8 -24 -14 -24zM243 211l-4 2c3 5 6 7 8 7c1 -1 2 -4 2 -7zM264 221l-9 1l5 2zM281 229l-3 1c1 1 1 2 2 3c0 1 1 1 2 1l6 2l2 -1c-3 -4 -6 -6 -9 -6zM385 254v2c0 1 0 2 1 3h6zM413 275l-4 1l5 2l3 -1zM274 338
c-1 0 -2 1 -2 2l4 6l1 -4c0 -3 -1 -4 -3 -4zM242 310c-1 0 -2 1 -2 3c0 5 3 8 10 8l4 -1c0 -2 -4 -5 -12 -10zM312 377l-1 2c0 2 0 3 1 4h5zM483 560c3 0 5 3 5 9c0 2 0 4 -1 6c-1 1 -2 2 -3 2c-2 -1 -3 -3 -3 -4v-8c0 -3 1 -5 2 -5zM192 182c3 1 7 2 14 3l30 7
c27 5 41 11 41 17c0 3 6 4 18 4c10 1 17 3 22 5c8 2 12 8 12 18c1 1 1 3 1 5s-1 3 -3 3l-21 -2c0 4 16 10 48 18c3 1 7 2 11 3c7 5 12 7 15 7c2 0 3 -1 3 -2c0 -3 -6 -7 -18 -11c-7 -3 -17 -7 -28 -12c0 -2 2 -4 5 -6s6 -3 9 -3c6 0 11 1 14 2s6 3 7 6c1 2 1 4 2 5
c0 1 0 2 1 3c0 1 1 1 2 1l14 -5c4 0 9 1 14 2s9 3 12 6s5 5 5 8s0 5 1 6s4 1 11 1h10c8 0 12 1 12 2c-1 3 -2 4 -4 5c-3 1 -6 1 -11 1s-12 0 -19 1c9 6 16 10 23 12c6 1 9 3 9 5c0 1 -1 1 -2 2c-1 0 -5 1 -12 2c-12 -4 -23 -7 -32 -8c-7 -1 -14 -2 -23 -4s-61 -22 -158 -58
c-17 -6 -25 -13 -25 -22c0 -3 1 -5 3 -6c5 2 9 4 11 5c1 1 2 2 3 2s2 0 3 1c8 0 12 0 12 -1c0 -2 -7 -6 -20 -13c-14 -7 -21 -11 -21 -12s-1 -2 -1 -3zM200 279c4 0 6 4 6 11c0 8 -2 12 -6 12c-3 0 -5 -1 -6 -4c-1 -2 -2 -7 -2 -13c0 -4 2 -6 6 -6h2zM175 261c3 0 5 3 7 10
l8 31l-4 8c-4 -3 -6 -9 -8 -20c0 -5 -1 -9 -3 -13c-3 -1 -4 -4 -4 -9s1 -7 4 -7zM206 322l3 5c0 2 -1 4 -3 6l-1 -4zM193 329c1 0 3 3 6 9c2 6 4 12 6 19c1 7 2 11 2 14c0 4 -1 6 -3 6c-3 -6 -4 -10 -5 -13s-2 -5 -3 -6s-1 -3 -1 -4c-1 -1 -1 -3 -2 -6s-3 -8 -5 -15
c0 -3 2 -4 5 -4zM222 344c3 0 5 1 6 3c-4 5 -6 10 -6 14l1 4c0 3 -1 4 -3 4c-6 -5 -9 -11 -9 -17c0 -5 2 -7 7 -7zM214 394l4 8l-3 4c-3 0 -4 -2 -4 -7zM224 393c3 0 4 1 4 4s-1 4 -4 4l-3 -4c0 -3 1 -4 3 -4zM215 270c5 0 17 10 35 30c16 16 26 25 30 28c4 2 7 7 10 14
c2 3 4 5 5 7s3 3 4 3c6 0 27 22 64 65s56 68 56 77c-2 0 -10 -8 -24 -24c-17 -21 -27 -31 -29 -31l-1 3c0 2 5 11 16 28c41 57 66 103 77 139c3 8 6 14 7 17s1 6 2 10c0 13 -8 19 -23 19c-34 0 -71 -10 -113 -30l-25 -10c-21 -8 -32 -17 -32 -27c0 -5 3 -12 10 -20
c6 -10 9 -16 9 -19l-8 -38c-9 -36 -16 -57 -20 -62c-2 -2 -4 -11 -6 -25c-1 -9 -3 -16 -5 -20c-5 -5 -7 -9 -7 -12c0 -4 -1 -9 -2 -15c-3 -16 -6 -26 -9 -30c-1 -9 -2 -18 -2 -25c0 -17 -4 -29 -13 -38c-4 -4 -6 -9 -6 -14zM281 637c5 0 8 1 10 3s4 4 6 8c-3 -1 -5 -2 -8 -3
s-6 -1 -7 -2c-2 -1 -3 -2 -3 -3zM319 655c2 0 5 1 8 2s5 2 8 3c2 1 3 1 3 2l-3 2c-12 -1 -18 -4 -18 -8zM156 565c7 3 12 5 17 8c4 3 6 6 6 11l-4 -1c-3 0 -5 1 -5 2c0 5 5 10 15 16c9 6 20 11 33 14c4 0 7 -2 9 -7c0 -2 1 -3 2 -3s3 1 4 3s5 6 10 13l-17 -3l-2 1
c0 3 2 5 5 8c8 7 15 10 21 10s16 5 31 14c11 7 28 17 52 29l4 8l-2 3c-15 -5 -24 -8 -26 -9c-11 -7 -19 -11 -25 -11c-5 0 -10 -2 -15 -6s-11 -9 -20 -14c-31 -14 -51 -27 -61 -39l-10 -5c-13 -5 -19 -11 -19 -17c0 -2 1 -3 2 -3s3 -1 6 -2zM137 543c2 1 4 1 5 2l2 2
c1 0 3 3 7 8c0 1 -2 4 -6 9c-1 1 -2 3 -2 5l1 4l-3 1c-9 -3 -13 -8 -13 -16zM361 685c3 0 5 1 5 4c0 2 -2 4 -5 7l-6 -9c0 -1 2 -2 6 -2zM361 667c8 3 12 5 12 6l-10 1l-5 -5zM376 689c2 0 5 1 9 4s11 6 22 10l6 -2c5 0 7 1 7 2c-2 5 -6 7 -14 7c-11 0 -19 -4 -23 -12
c-1 -4 -3 -6 -6 -6s-5 -1 -5 -2zM115 30c2 0 3 2 3 6c0 3 -1 5 -3 5l-4 -7c0 -3 1 -4 4 -4zM127 14c4 0 7 6 9 18c0 5 -2 7 -7 7c-1 0 -3 -1 -4 -2c-1 -2 -3 -4 -4 -6s-2 -4 -2 -5c2 -5 4 -9 8 -12zM134 55c5 0 7 4 7 13c0 5 -1 7 -2 7c-5 -5 -8 -10 -8 -16c0 -3 1 -4 3 -4z
M359 354h-1l2 6l2 2l3 1c0 -6 -2 -9 -6 -9zM109 587l-1 3c0 3 2 5 5 5l4 -3c-2 -3 -5 -5 -8 -5zM125 -38c-4 0 -7 2 -8 5c-2 3 -3 7 -4 11c-1 3 -3 7 -4 10s-4 4 -7 4l-4 -1c-2 0 -3 11 -3 34c0 26 3 44 10 55l3 10c0 5 -4 9 -11 12c-8 3 -13 9 -15 18c0 8 -2 14 -6 18
c-1 1 -2 3 -2 4c-1 1 -1 2 -1 3c0 8 -4 16 -11 23c-2 2 -3 3 -3 4c0 3 2 6 5 10c8 10 15 15 20 15s14 4 25 12c30 23 48 45 52 66c6 23 12 41 17 54l15 62c11 50 17 78 18 85c2 12 3 18 4 18c3 2 8 16 15 43c3 10 4 20 4 30c-1 1 -2 1 -3 1c-6 -1 -11 -3 -17 -7l-12 -8
c-1 0 -1 0 -1 -1c-11 -8 -26 -20 -46 -37c-31 -26 -46 -39 -46 -42c0 -2 -1 -3 -4 -3s-12 -8 -27 -23c-13 -14 -23 -33 -31 -55c-5 -13 -8 -22 -8 -27c0 -1 0 -1 1 -1c1 -1 2 -1 4 -2c10 -2 15 -8 15 -19c3 -11 6 -18 9 -23c2 -5 3 -10 3 -13c0 -2 -2 -3 -5 -3
c-9 0 -19 5 -30 15c-16 13 -27 26 -33 40c-2 5 -3 18 -3 38c0 26 2 41 7 43c1 1 3 2 4 5c0 3 5 12 16 27c10 15 21 29 33 43l-4 -9c0 -2 1 -3 4 -3c1 0 2 0 3 1c1 0 1 0 2 1v1c0 1 1 2 2 3l-2 7c0 6 3 9 8 9c1 -1 2 -1 3 -2c0 -1 0 -1 1 -1c1 -1 2 -1 3 -1c5 0 8 3 11 8
c0 4 -1 7 -2 10l-6 11c7 1 10 4 10 11c0 3 -1 5 -2 7c-2 1 -4 3 -5 4c-2 1 -3 2 -3 3c5 5 12 8 19 8c8 0 22 6 43 19s32 21 32 24l41 20c2 0 29 14 79 41l13 3c7 0 13 2 17 6c1 3 6 6 17 9c30 8 53 12 69 12s27 -1 34 -4s14 -10 22 -21c11 -11 17 -16 19 -16l5 -10
c10 -17 15 -35 15 -55c0 -14 -1 -25 -3 -32l-15 -35c0 -5 -5 -17 -16 -34l-5 3l5 23c-11 -13 -17 -23 -17 -30c0 -4 1 -6 4 -7l6 1l2 -2c0 -4 -10 -20 -29 -46c-20 -26 -31 -39 -35 -39l-1 1c5 11 12 22 21 33c11 15 17 25 17 31l-2 2c-4 0 -9 -5 -15 -16
c-4 -8 -10 -16 -19 -24c-8 -9 -14 -18 -18 -27c-1 -5 -3 -7 -5 -7c-6 -7 -12 -14 -17 -19c-15 -21 -26 -31 -35 -31l-3 1c-3 0 -7 -4 -14 -13s-12 -13 -14 -13c-2 -1 -5 -3 -8 -6c-9 -9 -13 -16 -13 -21c0 -3 -1 -6 -3 -10c-5 -10 -9 -15 -13 -15l-2 2l2 5v6l-2 1
c-2 0 -4 -1 -6 -4c-5 -9 -8 -15 -8 -20c0 -4 -1 -6 -2 -6h-2c-3 0 -7 -1 -10 -2c-4 -2 -7 -4 -10 -6s-5 -4 -5 -5c0 -4 3 -6 9 -7c23 7 46 15 69 25c38 19 93 36 166 53c7 0 13 -1 20 -3c6 -2 9 -4 9 -5c-1 -2 -2 -3 -3 -4s-2 -1 -3 -2s-1 -1 -1 -2c0 -2 3 -4 8 -6
c9 -5 14 -9 15 -12c1 -2 2 -3 3 -4c0 -1 0 -1 1 -1l2 -2c0 -1 0 -3 1 -5s1 -5 2 -8s1 -7 2 -12c0 -8 -6 -12 -17 -12l-15 1c-15 -3 -27 -7 -36 -10c-14 -5 -26 -7 -37 -7c-19 -4 -38 -11 -57 -21c-9 -4 -22 -9 -39 -16c-55 -22 -91 -39 -108 -52c-7 -3 -13 -6 -18 -7
c-10 -2 -15 -6 -16 -13c-5 -7 -8 -10 -9 -10c-2 3 -4 6 -7 7s-8 1 -13 1c-10 0 -16 -2 -18 -5c-3 -4 -4 -9 -5 -16s-2 -15 -4 -23c5 4 8 9 8 15c0 5 2 8 6 8l9 -6c3 -3 5 -4 8 -4s5 1 6 3c1 1 2 3 3 6c1 2 2 4 3 5c1 0 1 -2 1 -5s0 -7 1 -12c-5 -21 -9 -34 -14 -39
c-5 0 -7 -6 -7 -19c0 -7 -1 -17 -2 -28c-3 -7 -5 -13 -6 -18s-3 -8 -4 -11s-3 -5 -6 -5z" />
    <glyph glyph-name="S" unicode="S" horiz-adv-x="361" 
d="M29 -33c-8 0 -3 13 -17 22c-8 5 -12 12 -12 20c0 14 16 37 32 37l5 -1c28 0 54 18 107 64c4 0 36 30 86 70c4 9 25 4 25 14c4 9 11 9 11 18c0 3 -1 4 -9 4l-48 -3c-36 0 -99 17 -108 22c-16 11 -43 45 -48 61c-3 10 -5 23 -5 34c0 22 4 25 8 40c0 4 -1 6 -3 6l-3 -1
c-2 0 -3 3 -3 7c0 10 8 26 12 26l-4 -19c0 -2 1 -3 3 -3c15 9 10 32 18 32c3 7 36 63 70 105c7 6 65 75 86 97c5 2 9 9 9 12c5 8 10 7 28 20c9 7 18 14 20 14c8 10 11 20 25 20c7 2 14 5 14 7c0 3 -8 5 -15 5c-14 -1 -7 0 -19 -6c3 11 34 24 64 26c37 0 64 -48 64 -73
c0 -13 -11 -21 -15 -29c-3 -6 -4 -9 -7 -9c-23 8 -42 3 -42 20l6 20l-7 2c-19 -3 -27 -2 -34 -13c-17 -17 -20 -17 -66 -57c-11 -6 -56 -56 -56 -61c0 -4 -3 -7 -5 -7c-7 0 -4 -12 -43 -52c-33 -45 -39 -50 -39 -56c-22 -45 -26 -69 -31 -93c5 -28 17 -37 133 -37
c68 0 87 -2 87 -11c0 -12 34 -41 34 -54c0 -14 -28 -53 -43 -57l-25 -30c-5 0 -12 -4 -14 -11c-12 -9 -56 -26 -66 -45c-8 -16 -36 -13 -36 -23s-43 -32 -91 -64c-4 -4 -16 -9 -22 -9zM88 39c11 0 21 11 42 30c0 1 -1 1 -2 1c-2 0 -36 -25 -41 -29zM46 -7c7 0 12 3 12 12
l-2 1c-12 -3 -7 -1 -15 -10c0 -2 1 -3 5 -3zM65 5c15 0 88 38 88 52c0 2 4 4 7 4c18 0 29 26 41 32c12 0 0 11 22 23c16 7 43 38 43 47c0 5 -2 7 -11 7c-24 0 -25 -13 -57 -45c-5 -6 -9 -10 -9 -12v-2c5 0 18 16 23 16v-1c0 -2 -3 -5 -7 -8c-5 -5 -9 -8 -13 -8l-5 1
c-12 0 -20 -14 -32 -20c-7 -2 -11 -7 -11 -9l1 -1l40 23l2 -4c0 -4 -18 -9 -30 -20c-10 -14 -95 -63 -95 -73c0 -1 1 -2 3 -2zM227 221l30 1l2 3c-3 4 -11 4 -22 4c-9 -2 -16 -4 -16 -7c0 -1 1 -1 6 -1zM68 344c18 10 29 69 46 92c10 9 34 61 43 65c5 10 6 21 19 30
c10 7 2 9 31 38c11 11 17 18 17 21c0 1 -1 2 -3 2c-11 0 -97 -122 -109 -134c-7 -9 -14 -25 -23 -43c-8 -18 -22 -45 -22 -61c0 -7 0 -10 1 -10zM236 143c-2 0 -4 1 -4 4c1 4 3 7 7 7c3 0 5 -1 5 -4l-3 -5zM74 431l-2 3c3 12 4 19 9 19c5 -2 3 0 6 -6c-6 -1 -7 -16 -13 -16z
M64 411c-1 0 -3 1 -3 2c2 4 3 7 6 7zM91 461l-4 4l4 6h1c1 0 2 -1 2 -4s-2 -6 -3 -6zM104 484l-4 4l4 4c2 0 3 -2 3 -4s-1 -4 -3 -4zM139 538l-2 1c0 5 11 19 27 37c59 64 64 68 71 68c5 0 8 0 8 -2c-6 -11 -3 -7 -15 -11c-3 0 -5 -3 -5 -5c0 -5 -36 -45 -41 -45
c0 0 -38 -43 -43 -43zM112 497l-2 2c0 8 6 16 17 27c1 0 1 -2 1 -4c0 -9 -11 -25 -16 -25zM252 653c-3 0 -5 2 -5 4s2 4 5 4l5 -4c0 -2 -3 -4 -5 -4z" />
    <glyph glyph-name="T" unicode="T" horiz-adv-x="274" 
d="M355 689c-3 0 -5 1 -5 3s2 2 2 2l9 5c3 0 5 0 5 -3s-4 -6 -11 -7zM228 420l-1 2c0 6 6 16 10 16c2 0 3 -2 3 -6l-3 -10zM255 642c-6 0 -11 1 -11 4c0 8 19 9 28 11c3 0 4 -1 4 -3c0 -4 -6 -12 -21 -12zM200 292c-1 0 -2 5 -2 14c0 12 0 16 5 16c3 0 4 -2 4 -8l-2 -12z
M212 354c-1 0 -1 1 -1 3c0 3 1 5 3 5s3 -1 3 -2l-3 -5zM223 395h-1l-1 2l2 7c2 0 5 0 5 -2c0 -3 -3 -5 -5 -7zM500 739l-5 1c9 6 35 11 44 11h2c0 -5 -30 -12 -41 -12zM157 -2c-16 0 -12 6 -15 36c0 26 27 51 27 75l1 22c0 7 -13 7 -13 13l3 6c3 0 4 -4 9 -10
c13 16 11 34 16 44c9 10 7 45 11 50c3 4 5 10 5 15c0 9 -14 14 -14 21c0 2 1 3 3 3l6 -1c7 0 18 16 18 30c0 15 14 35 14 47c0 9 2 19 4 23c5 18 3 26 9 32c4 0 -2 23 9 34l3 12c0 13 -15 10 -15 16c4 12 7 16 10 16l7 -3l2 16l-2 15c-3 0 -4 3 -4 7c0 11 13 19 13 27l9 38
c0 5 -3 7 -8 7c-16 0 -25 -9 -65 -24c-24 -12 -38 -46 -77 -46c-9 0 -26 -18 -36 -18c-18 0 -24 -6 -53 -12c-17 0 -34 22 -34 38c3 37 11 31 42 51c11 16 35 9 65 21c28 11 46 8 57 16c13 6 67 25 68 25c-3 -7 -20 -8 -81 -43c-9 -18 -41 -12 -41 -19v-3c28 6 85 16 93 24
c4 4 52 22 63 22c7 0 14 12 16 30c0 9 16 43 16 52c0 10 4 15 11 15c9 0 25 -10 25 -17c0 -5 12 -5 12 -23c0 -13 7 -10 53 -13l21 4l-12 12l1 2c18 7 36 13 48 16c11 0 12 9 25 9c14 0 31 13 45 13c12 0 18 14 29 14c7 1 11 5 11 9c0 8 -7 8 -22 11c19 3 32 15 57 15
c10 0 18 -4 18 -9v-1c0 -6 19 -19 19 -31c-4 -21 7 -11 -53 -49c-5 -9 -32 -20 -45 -20c-18 0 -17 26 -35 26c-14 0 -61 -24 -88 -30c-9 0 -16 -5 -16 -7c0 -10 -20 -3 -38 -21c-10 -15 -32 -11 -32 -31c-4 -9 -11 -22 -11 -34c0 -26 -22 -70 -25 -96
c-13 -52 -23 -60 -23 -72c0 -32 -28 -97 -36 -130c-3 -22 -14 -59 -18 -65c-8 -16 -9 -67 -21 -84c-4 -9 -9 -25 -18 -75c-7 -39 -9 -43 -23 -43zM352 628c3 0 5 5 5 7c0 5 -2 7 -5 7l-4 -9c0 -3 1 -5 4 -5zM520 704c8 2 11 1 16 5l-5 2c-8 -4 -11 -6 -11 -7zM178 204
c-4 0 -6 4 -6 8c2 9 3 13 5 13s3 -3 3 -9c0 -7 0 -12 -2 -12z" />
    <glyph glyph-name="U" unicode="U" horiz-adv-x="383" 
d="M63 -26c-34 0 -63 27 -63 88c3 93 16 167 28 192c11 11 16 69 25 91c11 33 13 70 18 70c4 0 30 96 64 177c14 51 20 104 66 104c15 0 28 -25 28 -43c0 -20 -38 -40 -38 -52l-27 -57c0 -10 -18 -20 -38 -113c-12 -22 -10 -11 -30 -79c-2 -21 -16 -59 -20 -64
c-7 -6 -28 -147 -36 -147c0 0 -4 -38 -7 -102c7 -4 7 -6 15 -6c18 0 39 33 100 124c10 19 27 49 43 99c3 9 5 12 12 12c9 0 6 -14 10 -14c1 0 4 1 6 5c0 8 -11 16 -11 26c0 6 2 10 5 10l3 -1c6 0 16 22 18 22l4 -15c2 0 17 49 17 53c-2 3 -3 7 -3 12c0 32 32 35 32 60
c0 5 -2 10 -4 10s-3 -2 -3 -4l1 -3c0 -5 -6 -11 -17 -13c0 12 40 74 48 74c15 3 19 10 30 52c5 21 18 33 18 41c0 14 18 28 25 82c7 45 9 49 36 49c29 0 23 -18 30 -18c6 0 5 -7 7 -34c0 -16 -1 -19 -23 -56c-20 -25 -10 -46 -23 -55c-20 -20 -27 -100 -43 -111
c-9 -9 -11 -31 -16 -50c-5 -12 -7 -20 -7 -30v-11c0 -18 0 -22 -6 -27c-12 -7 -28 -81 -32 -134c-2 -40 -2 -90 -2 -136v-24c0 -15 -2 -17 -5 -17c-8 0 -8 12 -18 12c-8 0 -15 10 -27 41c-3 9 -4 16 -4 30c6 107 3 53 11 160l1 5c-6 0 -58 -98 -58 -114
c0 -21 -34 -62 -50 -90c0 -5 -30 -44 -43 -59c-14 -15 -31 -22 -47 -22zM199 221c7 7 4 4 8 13c0 2 0 4 -4 4c-2 0 -5 -4 -5 -9zM298 352l2 16c0 2 0 2 -2 2c-2 -2 -2 -7 -4 -12c0 -4 2 -6 4 -6zM260 77c1 0 4 54 4 91c0 16 -1 29 -2 32c-3 0 -5 -57 -5 -120c0 -3 0 -3 3 -3
zM266 218c3 0 5 4 5 11c0 4 0 8 -1 8l-6 -10zM274 256c4 3 6 7 6 12c5 45 8 36 12 54c0 5 -1 9 -3 9c0 0 -19 -47 -19 -65c0 -6 2 -10 4 -10zM278 118c12 152 23 117 31 204v5c-14 -17 -34 -123 -34 -180zM310 337c7 0 12 20 15 46c0 0 0 3 -2 3c-4 0 -14 -36 -14 -46z
M334 490c5 0 6 8 8 18c-9 -7 -10 -16 -10 -16zM341 513c7 0 8 20 21 47c0 2 -1 3 -3 3s-20 -39 -20 -44c0 -4 1 -6 2 -6zM237 323l2 10l4 2zM237 352l-2 1l4 8c2 0 2 -3 2 -5s-2 -4 -4 -4z" />
    <glyph glyph-name="V" unicode="V" horiz-adv-x="217" 
d="M57 -19c-42 3 -32 6 -54 46c-2 4 -3 8 -3 17c6 84 8 55 17 153c2 25 6 53 9 59c19 126 27 179 35 220l-3 -1l-2 6c0 21 26 188 45 188c28 -11 43 -25 43 -70c0 -18 -3 -27 -7 -34c-11 -16 -18 -34 -23 -59c-8 -48 -23 -110 -29 -163c-14 -106 -40 -166 -40 -257l1 -9
l4 -1c13 0 36 30 44 65c14 59 23 63 32 79c0 17 11 23 11 30c0 4 0 6 2 6l2 -4c0 -12 -17 -41 -17 -57c0 -5 1 -9 4 -11c5 0 11 12 13 25c0 20 16 36 19 47c0 26 22 76 27 105c4 36 13 17 13 45c0 14 23 38 30 79c3 22 18 28 18 48c0 30 27 52 27 84c0 13 12 24 12 48
c8 41 13 70 32 74c9 0 21 -14 21 -23c-4 -13 -3 -17 -10 -24c-3 -2 -5 -9 -5 -16l1 -6l4 8c-1 -19 0 -28 -5 -28l-8 7c-6 -3 -7 -7 -7 -14l1 -6c2 0 4 -4 4 -11c-2 -21 -2 -33 -7 -33l-6 8c-1 3 -2 5 -4 5c-7 0 -8 -13 -10 -30c0 -16 8 -8 8 -15c-7 -31 -11 -46 -20 -46
l-9 7c-7 0 -7 -30 -12 -30c-2 0 -16 -45 -16 -56l1 -8c5 5 6 9 9 9c2 0 4 -4 4 -11c-3 -13 -10 -29 -16 -29s-3 20 -5 20c-3 0 -6 -10 -8 -28l7 -18l-19 -74c-6 -18 -16 -27 -16 -34c0 -8 -66 -195 -89 -218c-9 -9 -16 -36 -22 -36c-5 0 -13 -28 -28 -28zM76 66
c11 0 16 19 29 46c0 2 -2 4 -4 4c-5 0 -14 -27 -23 -32c-6 -3 -6 -7 -7 -13c0 -3 2 -5 5 -5zM110 136c7 0 13 16 18 32c0 3 -2 4 -7 5c-7 0 -14 -19 -14 -30c0 -4 1 -7 3 -7zM112 91c4 0 7 2 7 4c0 3 -3 5 -5 5c-4 -4 -3 -1 -5 -7c0 -1 1 -2 3 -2zM118 106c10 6 5 2 11 13z
M137 141c4 3 7 7 7 18v13c-7 -18 -4 -10 -8 -29zM149 173c7 8 4 5 7 14l-3 4c-4 0 -6 -5 -6 -11zM164 213l11 31l-4 1c-2 -2 -5 -9 -5 -16zM184 272c7 11 10 16 10 21c0 3 -1 4 -3 4s-2 -2 -2 -4l-5 -14v-7zM205 318l2 4c0 2 -2 5 -4 5c-3 0 -3 0 -3 -3c0 -2 0 -4 3 -4z
M209 343c3 0 5 2 5 4v5c-2 0 -2 -3 -5 -5v-4zM275 530c3 0 6 12 9 30c0 0 0 3 -2 3c-4 0 -10 -16 -10 -24zM153 298v4c0 2 0 4 2 4s5 0 5 -2c0 0 -3 -5 -5 -5zM145 268l-1 2c0 5 0 9 2 9l2 -4zM252 450c4 29 14 54 21 54c2 0 2 -2 2 -6c0 -11 -13 -39 -18 -44z" />
    <glyph glyph-name="W" unicode="W" horiz-adv-x="495" 
d="M37 -22c-10 0 -15 17 -26 22c-7 4 -11 28 -11 60c12 200 7 113 38 312c10 20 19 98 43 234c7 29 11 59 11 63c3 16 16 32 30 32c18 0 41 -50 41 -61c0 -15 -18 -42 -23 -59c-25 -74 -42 -174 -72 -347c-5 -22 -7 -44 -9 -83c0 -5 1 -6 2 -6c24 7 15 38 47 102
c19 19 18 66 30 89l27 72c3 4 33 127 59 127l18 -11c5 -5 4 -27 9 -27l-7 -237c0 -81 11 -173 41 -173c43 0 91 124 98 131c4 4 4 15 18 43c32 69 21 100 32 111c10 16 14 45 18 61c6 17 20 90 20 105v2c0 9 7 5 7 27l3 94c0 23 -14 26 -33 31c-10 3 -18 12 -18 19
c5 12 34 28 41 28c9 0 46 -36 48 -52c2 -7 3 -34 3 -60s-1 -52 -3 -55c-15 -134 -25 -150 -32 -202c0 -12 -8 -9 -14 -55c-8 -59 -45 -172 -106 -258c-23 -27 -25 -30 -43 -30c-37 0 -75 28 -93 66c-11 17 -30 74 -30 161c-1 56 -2 81 -6 81c-9 0 -19 -52 -48 -131
c-7 -27 -15 -62 -41 -106c0 -14 -36 -100 -43 -100c-13 -13 -14 -20 -26 -20zM28 154l2 19l-3 -10l-1 -5c0 -3 1 -4 2 -4zM31 197c2 0 5 5 5 9c0 5 0 10 -3 10zM88 129c13 4 7 1 18 9l-16 4c-6 0 -6 -2 -7 -8c0 -3 2 -5 5 -5zM107 160c10 0 10 11 14 29v1l-3 -3l-8 6
c-5 0 -11 -11 -11 -20c1 -8 3 -13 8 -13zM126 199c1 0 3 2 3 7s-3 10 -5 10c-3 0 -5 -4 -5 -8c0 -3 2 -7 5 -8zM146 242c4 4 5 7 5 12l-3 4c-6 -6 -3 -3 -5 -11zM158 272c0 0 4 4 8 20c0 4 -1 5 -3 5c-4 0 -6 -10 -6 -17zM126 229c0 0 33 83 44 125c4 19 11 21 11 34
c0 9 18 30 18 59v2c-17 -45 -23 -62 -48 -136c-6 -14 -29 -77 -29 -82c0 -2 2 -2 4 -2zM219 296v27l-2 -3v-21zM357 81c9 0 20 27 26 30c9 5 4 23 18 37s14 29 18 34c3 1 5 5 5 9l-3 9c-9 0 -46 -91 -67 -117zM401 191c4 0 19 36 29 70l5 15c-28 -39 -18 -45 -27 -63
c-5 -9 -7 -18 -7 -22zM434 220l3 2l5 20c0 3 -1 5 -3 5c-3 0 -3 -10 -6 -25zM436 286c7 14 10 24 10 32c0 2 0 4 -2 4s-5 -4 -5 -9zM457 353c2 0 3 4 3 9s-1 10 -3 10s-3 -5 -4 -10c0 -5 2 -9 4 -9zM456 274c3 0 4 8 5 22c-6 -10 -3 -5 -7 -15zM470 412l5 24
c0 6 -2 11 -4 11s-2 -9 -2 -21zM494 640c2 0 4 0 4 2l-2 7l-4 -3c0 -4 2 -6 2 -6zM480 477c9 3 5 1 8 11c-3 18 1 10 -7 26l-5 -29c0 -5 1 -8 4 -8zM488 523l4 3c3 31 0 26 8 59c0 5 -2 8 -4 9c-5 0 -9 -32 -9 -61z" />
    <glyph glyph-name="X" unicode="X" horiz-adv-x="429" 
d="M41 -43c-5 0 -3 9 -19 9c-8 0 -22 22 -22 36c4 26 19 69 34 80c4 4 3 17 13 22l39 64c5 0 8 19 16 23c4 0 6 17 20 31c16 17 23 43 27 43c11 0 30 50 37 50c8 0 10 4 14 8l2 -7l-14 -23c0 -11 -44 -57 -44 -68c0 -2 1 -3 3 -3c5 0 41 45 41 55s23 25 26 48
c0 6 -2 12 -4 12l-2 -1c-2 0 -3 1 -3 5l1 11c0 44 -57 185 -57 233v2c0 5 -2 10 -4 12c-8 11 -14 55 -14 83c0 14 1 23 5 23c7 0 38 -29 47 -43c7 -9 12 -25 14 -36c41 -165 23 -86 34 -129c5 -27 16 -75 18 -80c4 0 12 8 21 19l18 22c2 0 2 2 2 5v1c40 74 30 49 54 85
c5 14 39 55 39 59c0 0 85 126 103 126c24 -3 26 -15 35 -15c5 -2 7 -5 7 -7c0 -8 5 -10 5 -18c0 -6 -2 -12 -5 -14c-14 -25 -15 -38 -29 -43c-9 -4 -46 -47 -46 -56c0 -7 -18 -12 -29 -41c-6 -11 -30 -29 -34 -41c0 -10 -19 -19 -23 -36l-11 -18c-7 0 -13 -19 -32 -48
c-45 -59 -50 -66 -50 -82v-13c2 0 5 -7 7 -16l20 -73c63 -157 107 -171 107 -191c0 -3 -1 -5 -4 -5c-19 4 -23 19 -46 42l-27 27c0 3 -2 5 -5 5c-7 0 -36 52 -61 109c-7 13 -11 27 -14 27c-7 19 -7 30 -13 36c-7 0 -59 -66 -66 -93c-5 -9 -9 -16 -11 -16c0 0 -3 -14 -16 -22
l-50 -82c-7 0 -48 -93 -54 -93zM44 55c5 2 8 2 8 6l-5 3c-2 0 -2 -3 -2 -7zM57 81c3 0 20 17 20 30l-1 7l-6 -9zM84 128c6 0 18 11 18 15c0 5 0 7 -3 7c-4 0 -18 -16 -18 -20zM116 176c4 0 27 25 27 30c0 2 -2 3 -5 3c-9 0 -25 -21 -25 -30zM152 181c8 0 27 29 27 35
c0 1 -1 2 -1 2c-6 0 -26 -25 -29 -32zM188 230c10 0 24 23 40 54c0 3 -2 4 -6 4s-12 -13 -12 -19l1 -4c0 -4 -3 -6 -5 -9c-9 -4 -20 -15 -20 -22zM320 476c3 0 22 23 24 30c0 11 19 17 19 25l19 32l-2 1c-32 -8 -38 -60 -51 -60c-4 0 -10 -16 -10 -24zM290 436
c13 4 29 25 29 34l-2 2c-8 0 -22 -13 -30 -33c0 -2 1 -3 3 -3zM260 383c5 0 19 16 19 23c0 6 10 9 10 15s-3 5 -8 8c-9 0 -11 -23 -16 -23c0 0 -9 -2 -9 -11c0 -6 2 -12 4 -12zM274 352c12 0 52 77 93 129c15 21 20 32 20 38l-2 5c-12 -3 -18 -4 -18 -16
c0 -8 -20 -13 -20 -25v-3c0 -9 -24 -27 -24 -30c3 -1 4 -1 4 -2c-6 -6 -6 -4 -12 -22c0 -18 -17 -18 -23 -29c-5 -10 -13 -7 -13 -16l-7 -26z" />
    <glyph glyph-name="Y" unicode="Y" horiz-adv-x="244" 
d="M213 343c-2 0 -3 1 -3 2c1 4 2 7 5 7c2 0 5 -3 5 -5s-3 -4 -7 -4zM190 259c-1 0 -2 2 -2 6c0 12 3 20 10 26c-6 -23 -3 -32 -8 -32zM183 -57c-15 9 -36 17 -43 30c-6 11 -9 30 -9 56l5 98c0 18 9 29 9 34c0 2 0 16 2 30c5 11 7 27 7 34c10 33 7 16 14 53c0 4 -2 4 -7 6
c-19 0 -43 -43 -80 -43c-24 0 -36 22 -47 22c-19 0 -34 48 -34 92c0 24 9 49 9 74c0 49 9 45 18 97c12 73 8 47 14 64c38 100 44 119 85 129c24 0 28 -17 35 -29c0 -10 -2 -12 -9 -14c-16 -4 -22 -27 -28 -39c-4 -4 -31 -70 -31 -77l-16 -52c0 -9 -7 -11 -7 -20
c-8 -48 -21 -98 -21 -158c1 -19 6 -37 21 -37c11 0 39 20 59 43c7 11 16 20 16 20c4 0 16 28 21 28l2 -1c4 0 4 2 18 25c22 30 36 55 36 57c0 5 2 11 7 16c50 143 52 123 52 143c0 7 27 45 27 72c18 29 10 33 59 39c24 0 17 -11 26 -35c0 -13 -26 -46 -35 -65
c-15 -30 -19 -27 -27 -61c-2 -9 -5 -16 -7 -16c-12 -32 -29 -49 -29 -70c0 -7 -22 -50 -39 -102c-4 -7 -7 -10 -9 -10s-3 2 -3 4l14 53c0 3 -2 5 -4 5c-3 0 -7 -12 -14 -25c-18 -52 -23 -57 -27 -57c-9 0 -18 -13 -18 -25c0 -13 15 -10 15 -20l-2 -5c-4 0 -7 4 -20 7
c-8 -11 -24 -118 -29 -129c-10 -10 -10 -77 -14 -82l-2 -41c0 -31 0 -38 4 -38c8 0 3 55 11 55c4 -4 4 -7 6 -7c6 8 5 4 7 14c0 8 -12 15 -12 24l1 3c5 -5 2 -2 8 -6c6 0 7 12 10 40c0 11 -15 2 -15 13c0 4 2 4 5 4l4 -1c10 0 16 20 23 60c17 60 14 73 20 80c4 3 0 22 7 22
c5 5 17 42 21 42l2 -3c0 -18 -5 -14 -9 -27c0 -12 -9 -36 -28 -95c0 0 -22 -99 -22 -116c0 -7 -3 -16 -5 -21l-2 -63c0 -93 3 -67 9 -93c0 -3 -2 -5 -5 -5zM23 327l3 2c-2 3 -2 5 -5 5c-1 0 -2 -1 -2 -3s2 -4 4 -4zM20 346c11 3 12 5 12 24l-2 13l2 9c5 6 6 66 10 74
c0 4 -3 8 -6 8c-11 0 -13 -44 -20 -113l-2 -7c0 -5 3 -8 6 -8zM39 484c6 6 4 3 6 11c0 7 -3 8 -6 9c-2 0 -3 -3 -3 -10c0 -6 1 -10 3 -10zM45 516c2 1 5 6 5 10c0 2 -1 3 -3 3h-2l-2 -10c0 -1 1 -3 2 -3zM181 229l-2 5l2 9l2 1l3 -6c0 -4 -3 -9 -5 -9zM174 177
c-5 0 -7 4 -7 10c1 7 1 11 6 11c3 0 6 -3 6 -10c0 -6 -2 -11 -5 -11zM164 124l-4 7c1 5 1 3 4 5c3 0 6 -2 6 -7c0 -2 -2 -4 -5 -4z" />
    <glyph glyph-name="Z" unicode="Z" horiz-adv-x="374" 
d="M201 653c-2 0 -3 0 -3 2c3 9 44 23 62 23h6c0 -4 -55 -25 -65 -25zM167 637l-4 1c3 7 2 4 9 8l2 -6c-2 -3 -5 -3 -7 -3zM294 685l-10 1c0 3 45 8 116 25c3 0 5 -2 5 -3c0 -6 -88 -23 -111 -23zM262 281c-1 0 -3 2 -3 5s2 5 3 5c2 0 4 -2 4 -5s-2 -5 -4 -5zM89 -21
c-44 0 -63 3 -74 53c-4 9 -15 12 -15 20c0 33 70 85 70 91c5 12 109 95 120 113c7 7 11 12 13 12c0 0 87 68 93 81c3 5 5 7 7 7c5 0 59 55 59 59c0 2 2 5 5 5c9 0 45 45 113 140c27 39 34 52 34 64c0 9 -2 13 -9 16l-20 1c-58 0 -121 -20 -143 -20c-34 0 -36 -8 -73 -20
c-50 -16 -79 -29 -143 -66c-6 -2 -9 -5 -9 -8c5 -11 10 -8 10 -35c0 -11 -2 -13 -5 -14c-6 0 -16 6 -39 21c-25 14 -27 25 -34 67c0 16 21 18 21 31s20 9 52 15c9 0 18 5 18 9c36 19 22 2 68 21c15 8 25 11 31 11c11 0 10 -10 17 -10c27 7 14 4 40 13l4 3l-48 -7l-3 1
c0 6 63 25 75 25c3 0 4 -1 4 -2c0 -5 -4 -8 -13 -11l10 -4c3 0 5 2 5 4c6 10 57 3 60 13c0 2 -2 3 -5 3c-26 -6 -12 -3 -38 -6c-6 0 -9 1 -9 3c5 9 65 19 118 19l11 -1c21 0 27 0 27 5c-2 10 -61 5 -61 9c3 4 5 5 18 5c23 0 61 -8 68 -16c2 -5 9 -9 11 -9c6 0 37 -51 37 -72
c-6 -37 -3 -19 -12 -55c-4 -26 -21 -47 -61 -103c-5 0 -26 -38 -38 -38c-5 3 -8 4 -12 4l-2 -4l7 -12c0 -6 -19 -24 -28 -24c-5 0 -18 -39 -27 -39c-29 -26 -47 -48 -52 -48c0 0 -62 -59 -111 -99c-3 -7 -12 -14 -18 -18c-15 -10 -33 -39 -50 -48c-21 -20 -47 -52 -62 -59
c-2 -2 -4 -5 -4 -7c0 -3 6 -5 16 -5c35 0 86 21 138 21h39c35 -38 48 -54 48 -61c0 -5 -9 -2 -12 -9c-2 -4 -5 -6 -12 -6l-30 3c-30 0 -120 -32 -195 -32zM231 635l4 5l-4 2c-3 0 -5 -2 -5 -5zM214 590c9 3 40 14 40 17c-27 -5 -41 -10 -41 -15zM262 608c9 0 16 4 16 11
c0 2 0 2 -2 2c0 0 -9 -3 -15 -12zM313 629l6 5l-6 3l-4 -5c0 -2 1 -3 4 -3zM354 638l19 6l-6 2c-11 0 -13 -1 -18 -6zM414 680l6 1c-2 3 -2 3 -3 3h-3l-7 -2c0 -1 3 -2 7 -2zM412 647c6 2 9 4 9 9c-4 0 -12 -4 -12 -6zM464 651c9 0 18 2 18 5c0 2 -9 4 -18 4
c-11 0 -18 -2 -18 -5c0 -2 6 -4 18 -4zM256 59l5 2l-5 2l-5 -2zM155 31c14 0 86 16 86 25l-7 2c-68 -11 -85 -14 -85 -24c0 -2 1 -3 6 -3zM297 274l2 1l4 4c0 2 -2 2 -4 2c-3 0 -3 -2 -3 -4zM57 70c13 0 21 13 51 44c8 4 24 29 34 29c8 0 29 42 40 42l12 -1l-3 6
c12 11 14 25 28 32c16 8 35 39 49 39l7 -4l19 11l-17 -4l-2 2c3 16 19 13 37 43c8 7 14 14 19 14l2 -1c4 0 19 26 36 34c9 7 16 14 16 16c0 7 25 32 29 32c31 31 38 47 41 47c2 0 2 3 2 5c0 11 30 27 37 48c10 21 6 10 14 32l-1 2c-8 0 -39 -44 -45 -44c-5 0 -9 -19 -25 -27
c-25 -16 -17 -27 -59 -59c-11 -6 -18 -13 -18 -18l1 -4c0 -8 -38 -15 -42 -32c0 -4 3 -6 6 -7c-19 -6 -27 -2 -42 -25c-27 -27 -24 -18 -27 -27c-7 -13 -15 -9 -19 -16c0 -5 -22 -12 -22 -20c-4 -13 -15 -3 -32 -25c-9 -15 -23 -17 -27 -30c-5 -9 -13 -3 -36 -32
c-14 -13 -24 -29 -33 -41l-2 1c-8 0 -46 -37 -46 -50c2 -6 6 -8 13 -12h5zM421 708c-3 0 -5 1 -5 2l3 2h7l1 -2z" />
    <glyph glyph-name="bracketleft" unicode="[" horiz-adv-x="550" 
d="M167 -87c-5 0 -7 5 -38 10c-82 6 -80 35 -89 51c0 1 1 1 5 1c97 5 75 -18 100 95c5 10 23 84 27 89l5 1c5 0 11 -3 11 -8c0 -8 -13 -9 -13 -13c5 -4 11 -5 11 -16v-3c-13 -2 -17 0 -17 -3c2 -6 4 -7 4 -9s-2 -4 -5 -4c-4 0 -4 -20 -9 -20l-2 -17c0 -4 -1 -6 -3 -6
c-3 -3 1 -28 -5 -70c0 -2 2 -2 5 -2c25 12 38 142 45 142c3 14 1 23 7 30c4 4 -2 14 12 27c13 36 17 70 38 116l5 18c0 9 13 24 13 34c0 35 37 77 73 184c0 3 -1 4 -2 4c-12 -14 -19 -24 -19 -32c-9 -19 -16 -20 -16 -34c0 -3 -11 -5 -11 -18s-11 -11 -20 -20
c-2 -4 -5 -6 -7 -6l-2 1c0 3 6 27 13 46c14 27 14 61 27 68l4 12c0 4 -1 6 -4 6c-8 0 -40 -16 -45 -16c-8 0 -24 30 -28 41c0 16 47 27 105 50c12 6 25 28 52 31h23c6 0 69 20 87 20c22 0 27 -11 46 -20c0 -3 -4 -3 -9 -7l8 -13c0 -5 -38 -9 -53 -9c-11 0 -54 -16 -70 -25
c-13 -9 -41 -36 -41 -41c0 -21 -56 -123 -72 -177c-6 -6 -9 -12 -16 -29c0 -13 -23 -75 -30 -82c-13 -13 -6 -18 -13 -25c-9 -8 -7 -18 -15 -30l8 2c1 0 2 -1 2 -6c0 -8 -11 -9 -11 -25c-7 -26 -18 -38 -18 -56c0 -3 -2 -10 -5 -12c-7 -27 -5 -41 -11 -47
c-27 -48 -18 -46 -27 -90c3 -8 0 -5 8 -7c44 6 22 3 66 8c26 0 46 -14 46 -32s-28 -12 -34 -18l-50 -13c-11 -4 -23 0 -34 -16c-3 -6 -8 -10 -12 -10zM193 168l-4 -1c-4 0 -8 6 -8 13c0 11 4 17 12 31l1 -2l-1 -12c0 -16 5 -18 5 -23c0 -2 -2 -5 -5 -6zM223 287
c-5 5 -5 1 -6 8c0 10 21 35 21 63c0 19 8 26 20 59c7 11 9 14 18 14c7 -3 10 -3 10 -9c0 -9 -12 -16 -12 -23c0 -10 -22 -31 -22 -33c5 -1 9 -1 9 -9c0 -15 -12 -18 -19 -19c-2 -2 -4 -9 -4 -14l1 -5l7 4l1 -3c-2 -5 -5 -7 -7 -7c-6 0 -13 -12 -13 -21c0 -3 -2 -5 -4 -5z
M266 409c7 3 4 2 8 8c0 3 -2 5 -4 5c-3 0 -5 -5 -5 -9zM195 219l-2 1c4 17 12 44 17 44c4 -10 1 -16 5 -16l3 1c2 0 4 0 4 -2c0 -9 -16 -9 -16 -14s-6 -14 -11 -14z" />
    <glyph glyph-name="backslash" unicode="\" horiz-adv-x="435" 
d="M387 -37c-7 2 -11 9 -14 25c-5 18 -6 11 -6 38c0 5 -3 5 -5 7c-15 30 -10 22 -16 43c0 2 0 5 2 5l9 -12l3 3c-3 15 -7 24 -12 24c-2 0 -2 -6 -6 -6c-5 0 -5 4 -7 11c0 5 9 0 9 7s-7 20 -11 20l-5 -2c-11 18 -18 25 -18 34l2 2s11 -22 14 -22c2 0 2 0 2 2
c-5 20 -14 38 -18 38l-2 -9c-5 0 -25 34 -25 43c-14 30 -23 28 -28 48l10 9l-3 5c-21 18 -25 16 -25 25c0 6 -7 24 -11 24c0 0 -16 23 -16 30c0 2 5 2 5 7c-5 2 -9 2 -9 7c0 4 -7 2 -7 11c0 11 -23 18 -23 34c0 23 -25 32 -29 59c-19 25 -32 38 -32 50c-32 63 -46 90 -55 90
c-11 23 -20 28 -20 41c0 14 18 30 23 30c11 0 11 4 16 11c11 -11 18 -16 18 -25c31 -63 41 -61 54 -100c5 -4 9 -9 9 -11c36 -70 61 -93 109 -197c50 -93 20 -52 70 -132c23 -59 37 -84 43 -97c9 -23 14 -30 21 -50c7 -18 11 -23 16 -46c0 -9 11 -4 11 -18c0 -6 5 -9 5 -16
c0 -8 -8 -13 -14 -13c-9 0 -14 -27 -34 -27zM369 42c1 0 2 1 2 2c0 2 -1 1 -4 4l-1 -3zM289 221l3 5l-3 7c-2 0 -2 0 -2 -5c0 -2 0 -7 2 -7zM183 423c1 0 2 1 2 2c0 2 -1 1 -4 4l-1 -3c0 -2 1 -3 3 -3zM405 19c2 3 2 7 2 12c-14 51 -29 80 -29 84l-23 54c0 6 -39 82 -66 129
c-4 3 -6 7 -6 9c0 7 -14 32 -18 34c-4 12 -16 24 -16 32c0 9 -16 20 -16 30c-9 26 -27 47 -27 47c-3 0 -5 2 -5 5c0 10 -16 38 -27 46l-2 -1c0 -13 18 -34 18 -41c0 -4 9 -9 9 -18c9 -28 31 -50 31 -59c0 -8 14 -25 14 -29c0 -8 27 -52 27 -52c0 -7 32 -61 32 -68
c5 -20 30 -49 30 -59c0 -5 11 -30 15 -37c21 -40 15 -23 30 -63c6 -29 21 -55 27 -55zM167 513v3c0 4 0 7 -6 7zM155 536l1 3c0 4 -5 11 -9 11c-2 0 -3 -1 -3 -2c7 -9 2 -6 11 -12z" />
    <glyph glyph-name="bracketright" unicode="]" horiz-adv-x="550" 
d="M423 693c5 0 7 -6 38 -10c82 -7 80 -35 89 -52c0 -1 -2 -1 -6 -1c-97 -5 -74 18 -99 -95c-5 -10 -23 -84 -27 -88l-5 -2c-5 0 -11 4 -11 8c0 9 13 9 13 14c-6 3 -12 5 -12 15l1 3c12 3 17 1 17 4c-2 5 -4 6 -4 9c0 2 1 3 5 3s4 21 9 21l1 16c0 4 2 6 4 6c1 1 1 4 1 9v11
c0 12 1 29 4 50c0 3 -2 3 -5 3c-25 -13 -38 -143 -46 -143c-2 -14 0 -23 -7 -30c-3 -3 2 -14 -11 -27c-13 -36 -18 -70 -38 -115l-5 -19c0 -8 -14 -24 -14 -34c0 -35 -37 -77 -72 -183c0 -3 0 -5 1 -5c12 14 19 24 19 32c10 19 16 20 16 34c0 4 12 5 12 18s11 11 20 20
c2 4 4 6 7 6l2 -1c0 -2 -7 -27 -14 -45c-13 -28 -13 -61 -27 -68l-3 -13c0 -3 1 -6 3 -6c9 0 41 16 46 16c8 0 24 -30 28 -41c0 -16 -48 -27 -106 -49c-12 -6 -25 -28 -52 -32h-22c-6 0 -69 -19 -87 -19c-22 0 -27 10 -46 20c0 2 4 2 9 6l-8 13c0 5 38 9 52 9
c12 0 55 16 71 25c13 9 40 37 40 41c0 22 56 123 73 177c6 6 8 12 16 30c0 13 23 74 29 81c13 13 7 18 14 25c8 9 6 18 15 30l-8 -2c-2 0 -3 2 -3 6c0 8 12 9 12 25c6 26 18 39 18 57c0 2 2 9 4 11c8 27 5 41 12 48c27 47 18 46 26 89c-2 8 1 6 -8 7c-43 -6 -21 -3 -65 -8
c-26 0 -46 15 -46 32c0 19 28 12 34 18l50 14c11 3 23 -1 34 16c3 6 8 10 12 10zM397 438h3c5 0 8 -5 8 -13c0 -11 -4 -17 -12 -30v1l1 12c0 16 -5 18 -5 23c0 3 1 5 5 7zM367 318c5 -5 4 -1 6 -7c0 -11 -21 -36 -21 -64c0 -18 -8 -26 -21 -59c-6 -11 -9 -13 -18 -13
c-7 2 -9 2 -9 9c0 8 11 16 11 22c0 11 23 31 23 33c-6 2 -9 1 -9 9c0 15 12 18 18 20c2 2 5 9 5 13l-1 6l-7 -5l-1 4c2 4 4 6 6 6c6 0 14 12 14 21c0 3 2 5 4 5zM324 196c-7 -2 -4 -2 -8 -8c0 -2 2 -4 4 -4s5 4 5 9zM395 386l2 -1c-4 -17 -12 -44 -18 -44c-3 11 0 16 -4 16
l-3 -1c-2 0 -4 0 -4 2c0 9 15 9 15 14c0 6 7 14 12 14z" />
    <glyph glyph-name="asciicircum" unicode="^" 
d="M77 197c-31 7 -32 11 -37 36c0 18 45 22 78 59c7 7 18 19 25 23l100 91c16 16 20 18 32 18l18 -2c0 -5 20 -8 20 -12c-2 -5 -5 -1 -5 -29c0 -39 12 -101 23 -116c4 -3 6 -8 6 -13c0 -4 -2 -7 -6 -7c-13 0 -54 34 -54 45c0 5 -7 -1 -11 32c-7 29 -9 38 -14 38
c-7 0 -77 -80 -77 -86c0 -7 -61 -63 -77 -70c-10 -4 -15 -7 -21 -7z" />
    <glyph glyph-name="underscore" unicode="_" horiz-adv-x="376" 
d="M166 -21h-109c-8 4 -16 14 -16 22v21l-1 9c0 7 4 10 17 10l74 -7l15 2c36 0 54 -2 54 -7l-2 -2c0 -8 7 -6 27 -9c11 2 16 3 16 5c-23 5 -32 6 -32 9c4 6 7 7 33 7c49 0 94 -15 105 -15l2 1c12 0 27 -20 27 -31c0 -3 -1 -5 -4 -6h-79c-7 -2 -16 -2 -21 -2
c-6 0 -44 -7 -106 -7zM284 20l2 3c0 5 -10 6 -26 6c-8 0 -11 -1 -11 -2c0 -4 30 -7 35 -7z" />
    <glyph glyph-name="grave" unicode="`" horiz-adv-x="234" 
d="M222 687l-44 28c-5 1 -10 4 -13 6s-28 10 -63 32l-61 39c0 2 -1 5 -1 9c0 5 1 11 4 15c10 16 6 8 15 26c3 4 5 5 8 5c2 0 4 0 7 -2l38 -33c26 -11 37 -23 37 -27l-1 -1c-3 -2 -4 -3 -4 -6c0 -4 5 -6 12 -13c5 -2 8 -3 10 -3l2 1c-8 11 -13 16 -13 19v1l5 2
c3 0 8 -2 17 -8c27 -18 45 -47 51 -50c4 -3 6 -6 6 -14s-2 -17 -6 -22c-2 -3 -4 -4 -6 -4zM190 745c3 2 4 1 4 4s-5 7 -13 13l-5 3l-2 -1v-1c0 -4 13 -16 16 -18z" />
    <glyph glyph-name="a" unicode="a" horiz-adv-x="393" 
d="M210 273l-3 3c0 3 4 8 8 8c4 -1 5 -2 5 -4s-2 -4 -6 -5zM410 178l-2 2c0 2 2 4 5 7c0 0 2 0 2 -3zM117 111h-1c-1 0 -2 1 -2 2c0 2 1 4 3 4l3 -2zM3 -26c-18 0 -43 4 -49 17c-5 14 -12 12 -12 42c0 50 4 54 9 64l-4 9c0 6 16 13 20 21c0 2 3 7 5 7c0 0 2 2 2 7
s23 20 23 28c0 4 -10 2 -10 11c0 34 71 80 71 90c39 20 41 23 73 23c25 -3 26 -8 68 -39c16 9 21 13 29 13c11 -4 41 -20 41 -35c-11 -41 -23 -53 -23 -66c0 -5 -2 -12 -4 -14c-6 -8 -14 -69 -14 -94c0 -14 2 -23 8 -24c9 0 38 17 56 34c7 10 15 17 17 17
c1 -11 4 -18 13 -18l4 1l-5 9c0 3 3 5 6 5h3c14 0 24 18 31 18l3 3l-1 7c0 16 18 14 18 20c0 5 25 24 25 32c4 8 0 6 8 11l1 -2c0 -20 -37 -78 -46 -87c0 -8 -52 -60 -52 -63c0 -5 -5 -4 -14 -9c0 -6 -23 -15 -44 -17c-16 0 -21 5 -40 14c0 5 -26 22 -26 29l10 1
c0 4 -16 17 -16 27c4 8 10 6 10 11l-5 9c-5 0 -5 7 -5 28v27c-4 0 -25 -30 -25 -34c0 0 -78 -116 -140 -129c-7 -3 -13 -4 -19 -4zM-1 177c11 0 17 8 25 21l-1 1c-19 -13 -29 -12 -29 -19c0 -2 2 -3 5 -3zM69 23c3 0 5 2 5 4c0 3 -3 3 -7 7c0 3 8 7 13 7h3c8 0 9 2 15 9
c-5 10 -2 6 -12 10c-7 -2 -23 -18 -23 -31c0 -4 2 -6 6 -6zM-8 12c27 2 43 15 100 77c7 6 14 13 16 13l2 -4c0 -9 -16 -7 -16 -21c0 -6 3 -9 7 -9c9 0 14 3 14 7v7c0 16 25 11 25 20c0 27 18 16 18 27l-7 10c0 4 32 18 32 29c9 18 7 9 11 29l-1 15c0 7 0 10 -6 10
c-13 0 -40 30 -52 30c-9 0 -9 -7 -14 -7c-4 0 -2 -4 -11 -4c-7 0 -77 -62 -77 -78c0 -4 -11 -15 -18 -22c-7 -21 -41 -59 -41 -107l2 -22h16zM203 128v4c0 2 0 4 -2 4v-7zM199 101l4 4l-2 4c-2 0 -5 -2 -5 -4zM298 48c4 0 8 1 8 3c-1 2 -1 1 -3 2c-5 -3 -3 -1 -6 -5h1z
M312 89l-1 2c0 3 12 7 12 18c0 10 8 0 33 37c5 7 9 11 11 11l5 -2c-5 -8 -9 -7 -9 -18c0 -9 -12 -15 -30 -34l-1 -3h-1c-1 0 -4 -1 -14 -9z" />
    <glyph glyph-name="b" unicode="b" horiz-adv-x="284" 
d="M-127 83c-2 0 -3 3 -3 8c0 4 0 7 2 7s5 -3 5 -5l-3 -9zM-14 241c-3 0 -3 2 -3 6c5 5 3 21 8 21c3 0 6 -2 8 -7c0 -10 -4 -5 -9 -14c0 -2 -2 -6 -4 -6zM-126 64c-2 0 -2 1 -2 3v6c0 2 0 2 2 2c3 0 3 -2 5 -7c0 -4 -2 -4 -5 -4zM-32 10h-11l1 2h9zM-100 -57c-2 0 -3 1 -3 2
c11 38 9 43 15 60c-21 32 -27 44 -27 71c0 21 13 33 18 33c7 0 3 -38 12 -57c2 -4 7 -9 9 -9c0 0 6 5 10 19c0 4 -3 4 -9 9c0 2 3 2 8 3l5 -1c2 0 9 9 9 16c-5 9 -6 6 -10 8c9 1 14 2 14 8c0 8 -16 12 -20 29c0 7 0 10 3 10l6 -1c4 0 6 4 6 9l-5 19c2 6 0 3 7 7l-1 1
c0 9 17 21 27 41c5 16 35 32 35 46c-2 6 -16 3 -16 12c7 19 15 26 15 53c0 23 12 27 12 34l-1 4l-13 -3c0 6 16 14 20 22c18 52 32 83 32 93l-1 3c0 3 2 4 3 4c25 -3 46 -9 50 -30c0 -17 -68 -181 -68 -188c0 -2 9 -2 21 -2c58 0 101 -46 111 -89c0 -6 4 -13 7 -13
c3 -4 8 -30 8 -47c-2 -18 -1 -45 -8 -53c-5 0 0 -15 -10 -25c-4 -2 -6 -9 -6 -11c0 -19 -61 -64 -141 -70c-38 0 -84 27 -93 27c-10 -6 -5 -3 -9 -14c-8 -30 -10 -29 -22 -30zM26 322l5 5l-2 1c-4 -3 -3 -1 -6 -5zM20 302c2 0 4 2 4 7l-3 4c-5 -3 -8 -5 -8 -9
c0 -2 2 -2 7 -2zM12 281c7 3 5 0 7 7l-6 8c-3 0 -7 -3 -7 -6c1 -6 2 -9 6 -9zM27 -20c25 0 61 16 61 23v2c-14 -4 -40 -18 -57 -18c-5 0 -9 -3 -9 -5c0 -1 2 -2 5 -2zM96 6c5 0 23 19 28 19c1 0 3 1 3 4c-1 5 0 8 -2 8c-6 -3 -8 1 -15 -12c-2 -4 -7 -7 -9 -7h-7v-9
c0 -2 1 -3 2 -3zM133 48c5 2 5 5 5 6l-3 1c-2 0 -2 0 -2 -3v-4zM-1 -6c49 0 123 55 123 71c5 13 13 14 13 28c0 23 5 23 6 43c0 19 -3 39 -8 41c-7 0 -5 25 -11 25c-3 0 -3 2 -3 5c-5 10 -13 22 -28 22c-20 0 -49 -28 -49 -34c-57 -66 -35 -58 -56 -84c-5 -8 -8 -12 -17 -15
c5 -1 10 0 10 -5c0 -2 -3 -3 -5 -3l-2 1c-2 0 -7 -3 -7 -5c3 -3 5 -1 5 -7c0 -7 -13 -29 -18 -50c0 -13 0 -15 6 -20c10 -9 24 -13 41 -13zM153 75c2 0 3 3 3 5c0 3 -1 5 -2 5l-3 -5c0 -2 1 -5 2 -5zM167 59c2 0 4 2 4 7c-2 2 -2 7 -2 7c-2 0 -4 -4 -4 -8zM175 95
c1 0 3 2 3 5c-1 2 -2 4 -3 4h-1l-3 -6z" />
    <glyph glyph-name="c" unicode="c" horiz-adv-x="319" 
d="M100 -44c-61 4 -81 16 -88 28c-4 9 -25 8 -25 18c-10 19 -15 16 -15 62c20 216 122 230 122 256c0 4 2 4 7 4h5c4 0 7 2 10 5c27 10 15 7 43 12c31 -6 48 -18 59 -37c3 -4 5 -20 7 -34c0 -43 -13 -33 -18 -48c-13 -22 -34 -12 -45 -18c-3 0 -5 3 -5 7c0 7 13 -5 21 27
c2 14 2 30 2 39v18h-16c-22 0 -23 -20 -29 -20c-8 -8 -6 -10 -19 -19c0 -4 -18 -22 -45 -52c0 -2 -4 -9 -11 -18c-27 -43 -22 -48 -41 -115l-4 -25c3 -36 11 -49 35 -49c63 4 37 -6 146 64c13 10 25 19 27 19l20 13c-26 -27 -63 -56 -63 -62c0 -1 1 -1 2 -1c8 0 30 16 30 16
c4 0 11 18 16 18c6 0 121 114 131 114c0 -3 -63 -67 -77 -80c-113 -118 -99 -85 -122 -109c-19 -14 -28 -15 -28 -20l4 -5l-8 -4l-5 2c-8 0 2 -6 -23 -6zM-4 41c7 0 10 107 50 161l17 38l-3 3c-13 0 -9 -9 -16 -23c-19 -19 -36 -72 -43 -86c-8 -23 -12 -29 -12 -63
c0 -16 2 -29 5 -30h2zM148 10l21 12v1s-21 -11 -21 -13zM250 102c0 3 57 57 61 59l7 3c-7 -12 -61 -62 -68 -62zM150 -32h-9l7 5h7l1 -1z" />
    <glyph glyph-name="d" unicode="d" horiz-adv-x="311" 
d="M211 -168h-7c-5 0 -9 2 -16 5c-59 43 -66 94 -66 167c0 34 4 62 9 67c4 1 6 4 6 9c0 4 -1 9 -3 15l-4 3c-13 0 -22 -21 -51 -64c-8 -4 -4 -11 -22 -29c-20 -22 -35 -30 -55 -30h-29c-6 0 -36 26 -43 46l-4 22c0 21 26 98 44 116c8 16 25 51 78 91c19 10 19 13 26 15
l17 -4c3 0 5 1 5 2l-1 3c0 2 7 3 17 3c26 0 36 -4 54 -10c11 15 4 4 43 65c31 62 30 52 34 64c6 25 36 95 43 104c9 10 4 16 13 16c6 0 11 4 19 8c24 -5 43 -20 43 -34c-5 -11 -3 -6 -10 -15c0 -20 -30 -49 -86 -188c-4 -13 -13 -29 -18 -36c-13 -31 -15 -47 -23 -55
c-20 -59 -31 -85 -31 -108c0 -19 -7 -27 -7 -34l-2 -19c-5 -4 -7 -15 -7 -56c0 -78 13 -78 13 -91c0 -9 8 -11 16 -23c0 -4 8 -9 16 -20c0 -2 -4 -3 -11 -5zM129 -43c2 0 3 1 3 4l2 12c2 0 4 2 4 7l-2 3c-7 -11 -10 -9 -10 -17zM138 0l4 3l-1 6c-3 0 -3 -2 -5 -4
c0 -3 0 -5 2 -5zM-9 16c11 0 49 52 70 82c2 0 5 4 5 7l-1 1c0 6 19 21 19 27v1c0 8 63 84 63 99l-2 3c-36 -18 -34 -4 -84 -63c-20 -21 -36 -44 -41 -48c-15 -31 -27 -38 -27 -45c-4 -35 -5 -19 -11 -54c0 -7 3 -10 9 -10zM44 17c16 0 33 24 40 50c0 6 -10 3 -10 8
c0 7 14 11 14 16c0 2 3 4 5 4s3 0 3 -1c-6 -11 -8 -15 -8 -21l2 -1c5 0 5 6 8 16c0 11 -3 17 -11 20c-5 0 -13 -6 -17 -15c-18 -27 -29 -40 -29 -52c0 -4 -7 -2 -14 -13c0 -2 2 -3 5 -3c9 0 13 18 20 18c4 -2 4 1 5 -4c0 -7 -16 -18 -16 -18zM113 106c2 0 3 3 3 7v5
c0 15 1 21 10 21l12 -2l3 4c0 4 -6 6 -10 14c0 13 22 16 22 21l-1 3c0 10 16 28 16 35c-5 9 0 7 -10 10c-51 -65 -50 -84 -56 -90c-4 -2 -6 -6 -6 -10c0 -7 13 -7 13 -13zM163 133l1 1c2 1 3 3 3 3l-3 2l-3 -3c0 -2 1 -3 2 -3zM147 64l-1 11l-5 -5zM160 -45c2 0 3 7 3 16
c0 29 5 38 5 45l5 36c0 7 -2 12 -5 12c-2 0 -5 -9 -5 -18c0 -10 -9 -29 -9 -41c2 -7 2 -21 2 -30s0 -18 3 -20h1zM174 73c6 0 5 7 9 19c0 5 -2 8 -4 8c-5 0 -10 -6 -10 -13c2 -9 2 -14 5 -14zM208 302c6 4 3 2 6 8c0 1 -1 1 -2 1c-6 -1 -6 -3 -6 -7zM183 113c2 0 6 3 6 6
l-1 1s0 3 -2 3c-3 0 -6 -4 -6 -7l1 -2zM181 252c9 0 18 10 26 40l-3 3c-3 0 -16 -12 -26 -42c0 -1 1 -1 3 -1zM193 143c8 0 8 14 31 70c7 17 11 30 11 36l-1 3c-11 -28 -21 -31 -21 -45c0 -7 -11 -24 -11 -34c0 -12 -10 -19 -10 -27zM241 259c7 3 4 1 6 9l-2 3
c-5 -7 -2 -3 -6 -10zM252 279l3 5h-6l-2 -5h5zM254 295c4 0 6 2 9 11l-1 1c-7 -4 -8 -7 -8 -12z" />
    <glyph glyph-name="e" unicode="e" horiz-adv-x="323" 
d="M91 -29c-83 0 -127 47 -127 106c0 20 12 44 12 55c0 10 5 18 13 18h2c9 0 10 12 14 20c5 3 7 7 7 9c5 11 9 12 9 15l-8 1c2 4 3 5 8 5l4 -1c8 0 4 4 25 26c9 7 14 16 14 18l-2 1l-9 -6c-3 0 -5 0 -5 3c0 7 11 3 11 6c0 7 15 5 22 13l-10 1c0 2 56 59 59 59
c4 0 9 -6 12 -6c14 8 39 8 39 13l-5 6l6 5l16 2c16 0 59 -25 59 -34c0 -4 11 -9 11 -31c0 -32 -7 -27 -20 -43c-5 -5 -50 -37 -50 -41c-70 -48 -73 -49 -134 -80c0 -4 -45 -11 -50 -16c-6 0 -14 -28 -14 -43c2 -23 20 -32 42 -34c41 0 130 30 172 66c12 8 38 24 43 34
c1 4 5 6 9 6c3 0 6 -1 7 -4c0 -4 0 -4 -3 -4c-18 -9 -22 -18 -27 -18c-10 0 -18 -12 -43 -32c-6 -3 -15 -7 -45 -28c0 -2 6 -4 16 -4c16 0 16 12 27 12c13 0 19 15 34 20s30 24 59 50c2 0 3 -1 3 -3c0 -14 -39 -42 -105 -88c0 -2 -9 -7 -21 -11c-9 -5 -16 -12 -16 -12
c0 -2 0 -3 2 -3l19 7c0 -6 -56 -35 -82 -35zM120 280c14 7 9 2 18 15h-4c-4 0 -14 -12 -14 -15zM47 152c11 0 51 24 99 52c41 21 60 48 70 48c4 0 20 18 20 22l-2 1c-4 0 -15 -14 -20 -14l-3 2c0 7 15 15 15 27c-2 7 -1 11 -9 11l-44 -17c-2 0 -7 -3 -7 -5
c-62 -46 -42 -20 -93 -84c-16 -16 -28 -33 -28 -40zM138 26c7 2 3 1 10 2c0 1 -1 2 -3 2h-2c-3 -1 -5 -3 -5 -4zM-1 172l-1 3c0 4 8 14 11 14l1 -3c-5 -9 -8 -14 -11 -14zM25 207h-4c0 2 2 4 4 4c3 0 3 0 3 -2c0 0 0 -2 -3 -2zM292 125l-10 5l-8 -2l5 4c10 9 48 54 61 54
c5 0 10 -3 10 -7c-29 -34 -41 -54 -58 -54zM-9 159h-1l4 7l2 -5c0 -2 -2 -2 -5 -2z" />
    <glyph glyph-name="f" unicode="f" horiz-adv-x="174" 
d="M-190 118h-1c-1 0 -2 0 -2 1c3 4 2 6 5 6c1 0 2 -1 2 -2s-2 -4 -4 -5zM-55 159c0 5 3 6 10 10c-4 -7 -5 -10 -10 -10zM-312 -483c-9 2 -12 -2 -26 12c-13 5 -18 15 -18 34c3 39 7 57 12 57l4 -6l5 4c0 4 -9 3 -9 7c3 11 2 15 9 15c11 0 7 21 14 37l-6 9c0 4 14 11 14 18
c0 6 -8 7 -8 11c0 3 2 6 6 6c5 0 13 21 13 31l-3 8c0 3 4 5 11 12l-7 12l2 -1c5 0 8 7 12 21l-3 15c0 4 0 4 4 4c13 0 3 26 29 69l-4 3c-55 -16 -24 -10 -76 -27c-10 0 -20 17 -26 17c-3 0 -5 2 -5 6c8 21 13 16 21 32c5 13 20 9 34 18c15 8 19 15 43 28c25 6 70 83 72 104
c0 12 9 14 9 25v4c-4 -4 -2 -2 -6 -5c-2 0 -3 1 -3 4c1 6 0 4 6 7l3 -1c5 0 8 4 13 33c0 1 0 2 -1 2l-5 -2c-2 0 -2 3 -2 8c4 11 16 3 22 26l-4 3c-2 0 -5 -2 -7 -4c0 15 5 16 10 27l-1 2c0 9 22 69 30 93c4 7 9 18 9 25c30 75 30 69 59 134c2 7 4 7 18 7c10 -2 16 -3 16 -4
c-11 -1 -16 -2 -16 -6c5 -5 18 -1 18 -18c0 -18 -17 -31 -25 -63c-60 -140 -83 -191 -109 -287c0 -2 1 -3 3 -3c6 0 29 21 45 29c8 0 40 42 61 48c11 2 18 6 18 9c6 11 7 6 9 11l-1 2l7 4l-1 -4c0 -2 0 -2 2 -2c7 0 -2 9 16 16c8 4 12 5 16 5c25 -7 38 -5 38 -10
c0 -4 -5 -6 -10 -14c0 -3 14 -1 14 -5c-14 -14 -62 -32 -78 -49c-50 -37 -183 -166 -183 -179c0 -4 15 -16 15 -34c5 -13 8 -19 13 -30c-8 -19 -25 -88 -35 -99c-11 -17 -54 -237 -68 -245c-11 0 -22 -16 -29 -16zM-340 -399c2 0 2 3 2 5l-4 2l-2 -7h4zM-255 -152
c13 0 3 14 14 43l-1 3c-5 0 -5 -14 -9 -18s-7 -16 -7 -23c0 -3 1 -5 2 -5h1zM-297 -283c0 0 2 0 2 4v6l-2 -1v-9zM-329 -420l3 1l-3 3c-2 -1 -3 0 -3 -2c0 -1 1 -2 3 -2zM-325 -385c8 3 5 0 9 9l-2 11c-2 0 -6 -10 -6 -16zM-319 -360l7 19l-3 1l-5 -11zM-310 -324
c5 3 6 2 6 7l-2 2c-6 -3 -4 -1 -6 -6zM-313 -408c3 5 3 12 7 12c9 0 7 38 32 111c-10 -63 -16 -61 -16 -91c7 0 14 38 23 66c0 4 2 9 4 9c0 0 23 100 32 115l11 53c-7 -5 -7 -7 -9 -7c0 11 0 16 -4 16c-7 0 -18 -59 -30 -68c-2 0 -2 2 -2 11l2 14c-11 -19 -13 -25 -13 -30
c0 -2 0 -2 2 -2h2c5 0 5 -2 5 -12c-3 -13 -3 -13 -9 -13l-5 2l-2 -4c0 -4 3 -5 7 -5c0 -11 -2 -17 -12 -50c0 -4 -2 -9 -4 -9c-8 0 -14 -2 -14 -9l5 -7l2 5l3 -3c-2 -14 -6 -20 -21 -97zM-134 200l4 7c0 3 0 5 -1 5c-6 -6 -3 -3 -7 -10c0 -2 1 -2 4 -2zM-145 174l4 3l-2 5
c-3 0 -5 0 -5 -5zM-173 95l5 12c-4 0 -4 -4 -6 -12h1zM-156 193c6 0 6 9 12 27c-1 2 0 1 -2 2c-2 0 -11 -15 -13 -22c0 -5 1 -7 3 -7zM-72 131l9 3l-1 2l-7 -2zM-56 112c7 5 11 7 11 10l-3 1c-3 0 -6 -2 -7 -5zM-248 -196l-1 1c0 5 11 46 16 48l1 -2zM-253 -221l-1 8l2 1
l1 -5z" />
    <glyph glyph-name="g" unicode="g" horiz-adv-x="327" 
d="M-82 -261c-47 0 -86 22 -98 56c0 2 1 4 2 4c11 0 27 -26 55 -26c65 0 138 87 145 108c22 36 40 71 57 121c18 37 22 55 22 70c7 26 6 12 9 39c-8 0 -28 -26 -102 -91c-6 -5 -9 -9 -9 -12c0 -6 -29 -13 -43 -13c-49 8 -63 51 -63 75c4 36 2 19 11 54c7 34 7 25 11 34
c0 13 9 22 9 30c0 9 5 7 12 15c10 16 41 45 41 53c3 11 27 11 27 18c52 0 77 -5 113 -41c11 -13 16 -17 19 -17c8 4 5 9 11 21c3 4 2 16 9 16c4 0 2 -6 16 -6c9 0 16 -10 20 -10c7 0 11 -15 11 -29c-6 -30 0 -18 -13 -45c-9 -9 -41 -101 -41 -125c0 -7 -5 -16 -7 -16
c-8 -17 -34 -102 -50 -118c-2 -2 -4 -4 -4 -7c-22 -39 -18 -49 -68 -99c-34 -30 -70 -43 -80 -53c-5 -4 -13 -6 -22 -6zM44 85c3 0 7 4 7 7l-1 2c-5 -6 -2 -3 -8 -8zM-58 38c11 0 66 30 123 86c14 10 13 18 18 18c2 0 5 0 5 3c13 15 21 19 21 25l-1 2c0 6 10 5 10 8
c0 5 -21 10 -26 28c-6 18 -17 26 -28 26c-32 -4 -78 -42 -78 -51c0 -5 -34 -55 -34 -63c0 -5 -15 -32 -15 -64c0 -9 1 -16 3 -18h2zM81 -32c2 0 4 3 4 5s-1 4 -3 4h-1l-3 -6zM49 -103l2 7c0 2 -1 3 -1 3c-3 -1 -5 -5 -5 -7zM29 -137c11 12 16 19 16 23l-3 2
c-4 0 -13 -18 -13 -25zM-46 -217c9 0 34 20 67 65c0 2 -1 4 -4 4c-12 -12 -53 -64 -61 -64c-2 0 -4 0 -4 -2zM-17 -214c9 0 49 38 59 59c28 46 58 102 62 120c0 24 20 40 20 67c0 7 -2 14 -5 15c-4 0 -4 -2 -4 -11c0 -23 -10 -37 -18 -37c3 -1 4 -5 4 -11
c0 -12 -9 -22 -9 -27c0 -13 -13 -21 -13 -25s-4 -10 -7 -15l-3 8c3 7 0 5 6 9l-4 4c-4 0 -9 -8 -11 -15c0 -13 10 -7 10 -13s-25 -40 -25 -46l-23 -36c0 -5 -39 -46 -39 -46zM127 69l2 1c2 0 2 4 2 9c0 3 -1 6 -4 7c-2 0 -3 -4 -3 -7z" />
    <glyph glyph-name="h" unicode="h" horiz-adv-x="472" 
d="M479 152l-3 4l3 3l4 -3c0 -2 -2 -4 -4 -4zM-57 -125c-16 0 -16 39 -23 46c-2 2 -2 4 -2 7c4 13 4 16 9 47c0 32 4 37 9 64c18 86 9 68 34 143c9 40 30 81 41 122c59 143 32 70 84 202c11 36 25 41 25 41c0 2 4 4 7 4c4 0 6 -2 6 -4c0 0 23 -3 34 -27c-6 -14 -4 -7 -6 -23
c0 -9 -14 -23 -14 -39c0 -13 -14 -13 -14 -27c0 -16 -18 -34 -25 -52c-6 -18 -4 -23 -13 -32c-14 0 -12 -36 -25 -47c-5 -10 -7 -23 -12 -34c-4 -5 -2 -23 -11 -28c-2 -2 -7 -4 -7 -9c0 -2 0 -4 -2 -4s-7 -14 -20 -64c-5 -4 0 -13 -7 -20s-14 -46 -21 -61
c-2 -3 -6 -38 -6 -50c4 0 18 27 29 38c5 0 5 9 14 18c7 5 9 7 11 7c10 0 13 4 48 46l-5 4c0 5 9 14 21 18c11 7 13 30 20 30l7 -5v9c0 4 1 5 4 5h7l-4 4c22 25 34 14 34 25c0 7 38 41 54 48l43 9c11 0 5 -16 16 -20c2 -3 5 -14 5 -25c0 -39 -5 -32 -12 -50
c-7 -50 -27 -89 -27 -118c0 -21 0 -12 4 -32c0 -2 3 -2 5 -2c25 0 57 36 64 36c0 -4 -4 1 -7 -14c8 0 19 22 31 30c21 14 28 20 34 20c-6 -13 -13 -16 -13 -20c0 -2 2 -2 7 -2c6 0 4 4 6 11c14 11 71 70 71 77v5c0 4 4 4 16 6c6 0 11 -6 11 -11c0 -4 -29 -36 -39 -41
c-6 0 -27 -43 -38 -43c-7 0 -16 -7 -16 -11l5 -2c9 0 52 45 56 45c0 0 9 14 14 14c2 0 2 0 2 -3c0 -4 -79 -77 -79 -86c0 -4 -9 -9 -23 -20c-7 -7 -52 -32 -70 -32c-25 2 -43 11 -66 29c-16 16 -18 16 -18 32c0 23 -2 18 -5 23c5 7 5 102 25 129c7 11 9 27 9 34
c0 5 0 7 -2 7c-7 0 -32 -27 -41 -27c-11 0 -7 -5 -16 -16c-4 0 -25 -21 -25 -21c-4 0 -2 -9 -11 -13c-7 -5 -25 -30 -61 -75c-14 -9 -11 -16 -21 -20c-18 -19 -27 -30 -27 -34c-4 -12 -11 -14 -11 -19l2 -4c14 7 -20 -9 80 91c6 9 12 11 18 11c-7 -9 -14 -11 -14 -16
c-20 -29 -48 -59 -52 -63c0 -12 -18 -25 -48 -71c-50 -68 -27 -54 -47 -68c-14 -13 -7 -32 -16 -32zM77 417c2 0 6 5 6 21c-5 0 -6 -8 -10 -18c0 -2 1 -3 4 -3zM-4 220c2 0 10 5 10 21c0 13 9 13 9 22l16 39c0 8 15 36 37 91l2 10c-5 0 -8 -8 -16 -22c0 -8 -14 -33 -30 -70
c-8 -13 -6 -27 -11 -32c-7 0 -7 -12 -11 -32c-5 -6 -7 -15 -7 -20zM-38 104l15 44c4 6 7 15 7 20c5 22 10 31 10 42l-2 4c-9 -5 -21 -69 -31 -105c0 -3 0 -5 1 -5zM18 62l12 12l-1 1zM219 104v10h-2v-9zM222 124l2 1c5 0 7 4 7 9c0 4 -1 7 -3 7c-9 -5 -4 -3 -9 -12zM233 157
l4 6l-4 3c-1 0 -3 -3 -3 -6c0 -2 1 -3 2 -3h1zM242 123v9c-2 -3 -2 -5 -2 -7zM346 64c14 9 21 14 21 17l-11 5l-10 -4c6 -3 8 -1 8 -4l-9 -13zM154 166c-2 0 -3 0 -3 1l4 5l2 -3c0 -2 -2 -3 -3 -3zM120 132c0 3 3 5 10 9l-3 -7zM410 143l-3 1c2 3 2 6 5 6v-5
c0 -2 0 -2 -2 -2zM168 186c3 9 1 4 10 9c2 0 3 0 3 -2s-2 -5 -7 -5zM58 117c3 6 7 7 7 12c3 0 3 -2 3 -4s-3 -7 -7 -7zM426 157h-1c-1 0 -2 1 -2 2c0 2 1 3 3 3l3 -1zM42 99c0 4 8 15 12 15c2 0 3 -2 3 -4c0 -3 -2 -6 -5 -10z" />
    <glyph glyph-name="i" unicode="i" horiz-adv-x="237" 
d="M53 -27c-24 0 -49 34 -54 34c-10 0 -29 35 -29 49c2 7 6 6 6 33c0 26 14 61 14 91v6c0 5 23 27 23 32c0 2 2 3 6 3c24 -3 20 -3 37 -14c8 -3 12 -7 12 -11c-10 -21 -29 -73 -34 -151c0 -17 4 -25 11 -25c12 0 18 8 40 23c27 6 149 130 158 130c0 -4 -12 -15 -24 -30
c-58 -58 -55 -52 -91 -96c0 -1 1 -1 2 -1c10 0 21 18 30 18c7 0 16 7 16 12l-4 5h7c22 0 44 48 44 48c5 0 3 10 21 28c18 22 27 36 32 36l1 -5c0 -13 -4 -10 -6 -20c0 -6 -28 -49 -97 -118c-31 -36 -38 -37 -48 -48c-6 -12 -14 -8 -34 -18c-5 -4 -25 -11 -39 -11zM48 281
c-7 2 -6 16 -11 16c-3 2 -5 5 -5 12c3 25 2 12 8 38c4 5 7 16 7 25l2 23c2 2 9 3 17 3c32 0 38 -12 38 -27c-1 -29 -8 -25 -28 -65c-5 -2 -7 -6 -7 -9c0 -4 -15 -16 -21 -16z" />
    <glyph glyph-name="j" unicode="j" horiz-adv-x="102" 
d="M-665 -272c-16 0 -91 19 -91 64c0 8 2 12 5 12c4 0 7 -4 11 -10c8 -21 27 -33 51 -33c21 0 25 5 51 7c0 -2 -16 -9 -16 -13h2c16 0 37 11 52 18c18 0 36 20 52 37c-25 0 -39 -30 -54 -30c-10 0 -16 -9 -23 -9c-3 0 -4 1 -4 2c37 31 42 22 61 41c7 7 96 71 118 148
c0 4 13 8 13 13c0 9 46 91 46 129v5c0 9 16 29 16 39l-2 6c3 9 11 29 11 64v9c0 9 0 9 13 11c28 0 34 -8 38 -38c-3 -10 0 -52 -29 -166c0 -11 -13 -23 -13 -34c0 -4 -2 -9 -7 -11c-39 -66 -15 -34 -45 -80c-16 -20 -64 -88 -127 -138c-7 -4 -21 -11 -39 -18
c-27 -9 -31 -17 -70 -23zM-531 -186c12 0 85 74 128 166l3 13c0 6 -1 9 -3 9c-12 0 -8 -20 -18 -24c-9 -5 -6 -7 -20 -29l4 -10c0 -2 -6 -2 -6 -7c-25 -51 -89 -113 -89 -118h1zM-384 36c2 3 2 7 2 10v5c-3 -5 -6 -7 -6 -11l2 -4h2zM-380 62c10 12 12 17 12 23
c0 2 -1 4 -3 4c-7 0 -4 -9 -9 -23v-4zM-336 281c-3 1 -5 4 -5 9c0 4 -10 0 -10 18c5 51 12 48 17 87c2 2 9 3 17 3c32 0 38 -12 38 -27c-1 -17 -1 -26 -12 -37c-11 -8 -5 -19 -19 -25c-4 -11 -9 -28 -26 -28z" />
    <glyph glyph-name="k" unicode="k" horiz-adv-x="244" 
d="M-117 -204c-6 0 -14 14 -14 35c9 114 18 138 29 181c1 13 4 19 6 19c7 -8 7 -14 13 -14c4 0 7 5 11 16c-4 8 -1 5 -10 9l-2 -1c-11 0 -17 11 -21 11c-6 0 -5 19 -22 28c-5 2 -7 4 -7 9c2 6 7 9 20 13c23 9 37 21 48 39c3 9 5 12 9 12l9 -2c9 0 27 33 27 43
c0 7 -3 7 -9 10c-7 0 -13 -9 -13 -19l3 -13c-5 -10 -1 -5 -12 -9c-4 0 -5 2 -5 5c0 9 14 29 14 43l-1 4c0 15 10 27 26 73c4 14 5 37 13 41c10 10 14 98 50 98c8 0 13 -10 18 -10s10 -4 18 -15c-14 -30 -17 -40 -27 -68c-6 -18 -5 -23 -23 -57c0 -10 -23 -48 -23 -65
c0 -5 2 -8 5 -8c9 0 28 22 66 52c14 5 8 15 15 15c31 -5 49 -5 49 -24c0 -26 -30 -33 -66 -59c-21 -20 -22 -15 -41 -29c-2 -7 -11 -14 -18 -16c-23 -19 -34 -32 -41 -32c-2 0 -2 0 -4 -4c0 -2 4 -5 20 -5c61 7 33 8 96 10c29 0 59 -24 59 -33c0 -7 -5 -4 -13 -6l-17 2
c-43 0 -43 -2 -87 -14c-3 0 -20 -9 -43 -9c-36 -4 -38 -6 -45 -18c-6 -35 -10 -18 -23 -95c-6 -38 -21 -143 -37 -143zM-114 -109l8 30c-4 -3 -8 -6 -8 -18v-12zM-104 -62c5 0 5 8 7 23c0 5 -1 10 -3 10c-5 0 -9 -14 -9 -23c1 -7 3 -10 5 -10zM-91 -16c5 0 4 7 7 18
c0 4 -3 5 -7 5c-5 0 -9 -5 -9 -10c3 -9 5 -13 9 -13zM-23 213c5 0 12 16 20 41l9 34c0 2 0 3 -1 3c-8 -1 -11 -22 -26 -53c-5 -5 -7 -11 -7 -16c0 -4 2 -8 5 -9z" />
    <glyph glyph-name="l" unicode="l" horiz-adv-x="220" 
d="M-62 -56l-3 8l7 34c0 -27 -1 -42 -4 -42zM-54 7l-2 1v7c2 0 2 -2 2 -4v-4zM-41 76l-1 3v4l1 1v-8zM-8 -180c-24 0 -62 23 -62 89c0 9 4 17 7 17l5 -8c2 0 4 5 4 11l-1 9c11 80 14 121 26 145c5 10 12 50 12 69c0 6 -1 11 -3 11c0 0 -2 0 -2 2c0 6 14 -4 18 25
c10 35 16 41 16 58c0 10 -12 8 -12 13c4 15 10 33 19 78c9 10 14 77 32 112c6 29 2 33 11 52c4 7 7 13 7 25v16c5 0 14 26 21 26c24 -15 37 1 50 -39c-8 -23 -4 -11 -15 -33c-9 -37 -18 -52 -18 -68c0 -10 -16 -28 -20 -45c0 -17 -16 -36 -16 -41c0 -2 0 -9 -2 -16
c0 -15 -18 -11 -18 -27l3 -24c-7 -20 -18 -25 -22 -60c-3 -33 -21 -56 -29 -116c0 -73 -30 -45 -30 -188c0 -40 5 -54 10 -54c9 0 58 75 65 75c10 4 5 1 15 8l1 -2c-6 -12 -23 -33 -25 -46c0 -4 2 -7 4 -7c16 11 7 6 19 22c28 35 21 41 34 47c5 2 8 5 8 8l-1 4
c0 16 13 14 13 22l25 41c0 15 34 66 80 150h-12l-9 -2l-1 1c6 5 4 14 17 14c3 0 0 -7 8 -7l4 1c3 0 4 -4 4 -8c0 -26 -4 -17 -41 -81l-52 -95c0 -2 -2 -7 -7 -12l-20 -36c-20 -19 -77 -136 -120 -136zM48 333l3 6c0 7 0 12 -3 12c-1 0 -3 -7 -3 -12l1 -4zM51 392l2 4l-2 5
l-2 -4zM39 355c6 6 8 11 8 15c0 3 -1 5 -3 6c-1 0 -3 -3 -3 -7zM33 335c6 4 4 1 6 8l-2 3c-2 0 -5 -2 -5 -7zM17 269c2 5 6 16 15 57l-2 2c-5 0 -12 -24 -17 -57zM-3 134c15 17 23 107 31 115c4 7 7 16 9 36c0 9 0 14 -1 14c-7 -6 -8 -35 -13 -43c-7 -26 -23 -93 -26 -120
v-2zM-19 67c2 0 8 21 11 34l-3 5c-4 -2 -9 -28 -9 -36zM-56 -114v7c0 10 0 14 -4 21l-1 -5c0 -5 0 -12 3 -16zM88 -7l-1 9c2 0 2 0 2 -5zM187 149c-3 0 -4 1 -4 3c7 12 1 9 13 16l2 -3c-4 -10 -4 -16 -11 -16zM108 13l2 13l3 -2zM82 -28l-3 1l8 10s2 -2 2 -6
c-2 -3 -4 -5 -7 -5zM173 129c-2 0 -3 1 -3 4s1 7 5 11zM153 97c3 13 2 18 15 25l1 -2c0 -2 -4 -9 -10 -14zM139 71h-1c-1 0 -2 2 -2 4l4 7c2 0 3 -2 3 -5z" />
    <glyph glyph-name="m" unicode="m" horiz-adv-x="661" 
d="M-7 255c-2 0 -4 3 -4 6c0 2 2 5 4 5s3 -3 3 -5c0 -3 -1 -6 -3 -6zM-21 -91l-17 7c-3 -3 -4 -7 -8 -7c-9 0 -5 8 -18 21c-7 9 -10 14 -10 23c9 55 7 27 14 77c2 4 2 13 5 20c14 65 18 53 41 188c0 10 6 17 14 17l24 -4c9 0 22 -14 22 -25c0 -8 -4 0 -17 -51
c-21 -66 -23 -90 -46 -125c-4 -6 -6 -9 -6 -15l4 -33c17 21 25 26 25 34c0 6 3 9 7 9c5 0 13 -12 18 -12c3 0 4 4 4 10c0 7 -2 9 -4 9h-1c-5 0 -10 10 -10 16l2 2c9 0 13 -12 17 -12c6 2 9 1 9 4c-3 18 1 11 -5 29c3 -8 5 -9 18 -13l1 2c-3 13 -5 16 -12 24c0 4 5 7 15 12
c2 0 3 -1 3 -4v-12c3 0 17 23 22 23c2 0 3 1 3 2c0 5 -13 9 -13 14c3 6 5 10 11 10c8 0 5 -9 8 -9l27 33c0 4 14 3 14 13c0 9 -7 9 -7 14s14 14 20 14c4 -1 3 -5 7 -5v9c0 6 7 10 15 10c26 -6 46 3 46 -50c0 -36 -14 -82 -23 -127c0 -5 1 -8 3 -8c7 0 18 7 25 14l43 41
c0 4 14 15 14 20s18 22 49 57c0 16 62 73 83 73c7 0 11 -5 24 -10c20 0 32 -26 32 -54c0 -32 -19 -104 -19 -151c0 -13 1 -23 3 -26c6 0 23 10 27 16c2 2 5 4 7 4c9 0 36 28 36 37c0 5 3 8 6 8c8 -4 8 -8 16 -8c10 0 24 13 24 27c0 9 20 13 20 23c0 11 15 18 45 56
c5 9 7 7 16 21c7 11 16 22 18 22c3 0 4 -1 4 -3c0 -9 -7 -15 -17 -28c0 -3 -14 -32 -21 -43c-21 -36 -51 -60 -79 -109c-41 -61 -53 -65 -86 -72c-30 0 -56 16 -56 84l2 99c0 39 -3 45 -10 45c-14 -7 -148 -192 -189 -192l-33 11c-9 4 -9 11 -14 11c-6 9 -13 30 -13 50
c0 11 7 32 9 32l4 -1l-1 -7c3 2 5 4 5 11c0 9 -7 10 -7 12c5 7 7 12 7 39c0 14 -1 27 -4 27c-30 0 -145 -183 -145 -192c0 -14 -40 -78 -47 -78zM12 9c4 0 8 4 10 9c0 0 -2 3 -7 3c-2 0 -7 -3 -7 -7s2 -5 4 -5zM147 200l7 3l-1 1c-4 -2 -3 0 -6 -4zM255 56c3 0 9 4 9 8l-1 1
l-10 -8zM289 97c9 9 4 4 12 15l-3 -1zM369 200l6 4l-4 2l-3 -4zM593 90c1 0 1 1 1 3c0 1 -1 3 -3 3l-4 -2zM640 196c-1 0 -3 1 -3 3l3 3c2 0 4 -1 4 -3zM579 119c-3 0 -5 2 -5 4c0 1 2 3 5 3s5 -2 5 -3c0 -2 -2 -4 -5 -4zM561 99l-4 4c0 2 2 3 4 3l3 -3c0 -2 -1 -4 -3 -4z
M99 160l-2 1c6 3 7 5 11 5c0 -3 -2 -5 -5 -5z" />
    <glyph glyph-name="n" unicode="n" horiz-adv-x="419" 
d="M387 147c-1 0 -2 1 -2 2c3 4 3 6 6 6l1 -2l-3 -5zM-54 -29c-9 0 -18 13 -18 22l9 53c0 31 27 83 27 111l27 70c9 0 5 23 11 34c9 14 7 34 12 34c9 0 13 23 18 23l7 -3l9 3c16 0 36 -16 36 -23c-5 -18 -9 -27 -36 -88c-7 -30 -16 -44 -16 -44c-5 0 -14 -18 -14 -27
c0 -4 0 -4 5 -4c7 0 25 31 32 31c6 0 24 30 31 30c9 0 59 45 73 45c16 0 27 -6 47 -27c12 -129 12 -140 39 -150c7 -2 11 -4 16 -4c11 0 9 7 27 18c14 0 39 34 48 34c0 0 4 9 11 9s11 0 11 -4c0 -8 -18 -26 -18 -34c14 4 25 29 37 29c13 7 11 11 20 30c9 9 7 18 16 27
c2 4 7 11 7 16c0 2 0 2 -3 2l-13 -14h-3c10 14 10 23 19 23c6 0 6 2 11 7c2 0 5 -3 5 -7c0 -5 -14 -30 -14 -39c0 -11 -14 -22 -36 -63c-5 -9 -21 -14 -25 -27c-5 -7 -14 -14 -21 -16l-25 -16c-13 -9 -13 -11 -43 -11h-32c-60 60 -63 73 -63 84c0 19 -5 33 -5 63
c-2 18 -2 20 -9 20c-4 0 -11 -2 -20 -11l-64 -61c0 -9 -70 -80 -70 -82c0 0 -22 -27 -22 -32c0 -9 -21 -24 -32 -29zM-48 66c16 0 18 23 25 42l-6 17c-4 0 -21 -43 -21 -55c0 -3 1 -4 2 -4zM-18 132c7 6 7 13 7 18l-2 16c-5 0 -14 -14 -14 -21c0 -4 2 -9 4 -11zM0 175
c2 0 4 4 4 9c0 8 -2 11 -6 12c-3 0 -5 -3 -5 -7zM5 77l4 3c0 3 -2 5 -4 6c-3 0 -5 -2 -5 -4s2 -5 5 -5zM18 93c8 0 30 39 43 39c4 0 13 11 13 16l-1 2c-5 0 -9 -6 -21 -12l-2 1c-2 0 -2 0 -2 -3c-22 -27 -34 -36 -34 -41c0 -1 1 -2 4 -2zM82 156c11 0 69 47 69 56l-2 1
c-34 -22 -68 -43 -68 -54zM356 129v2c0 6 10 21 14 21c3 0 5 0 5 -2c0 -4 -14 -21 -19 -21zM372 127h-5v3c0 3 2 6 5 6c2 0 3 -1 3 -3z" />
    <glyph glyph-name="o" unicode="o" horiz-adv-x="254" 
d="M24 389c0 8 18 29 33 42c-15 -22 -28 -31 -28 -36zM12 372c2 8 4 14 8 14c-5 -10 -8 -14 -8 -14zM-18 108l-4 4c0 5 4 11 6 11l3 -3zM17 -26c-12 0 -20 13 -24 13c-13 0 -19 18 -19 44c0 48 7 23 20 90c-5 19 -9 29 -9 82c0 55 12 82 12 92c0 17 41 92 75 122
c20 19 27 28 27 32l-5 2c-9 0 -15 -7 -32 -20c-1 0 -1 1 -1 2c0 5 30 39 36 39l11 -6c8 2 15 6 30 6c53 0 71 -53 71 -94c0 -8 -2 -16 -5 -24h2c-8 -12 -8 -45 -14 -45c-8 -8 1 -33 -25 -84l-9 -50c0 -9 -8 -13 -8 -27c0 -7 1 -14 4 -14s43 16 51 16v-1c0 -2 -2 -4 -6 -6
c-10 0 -21 -9 -43 -20l18 -9c-16 0 -25 -2 -25 -8c1 -4 6 -6 15 -6c8 0 9 7 17 7s10 3 14 6l2 -2c0 -11 -39 -29 -64 -31c-37 0 -41 -46 -50 -50c-2 0 -2 -5 -4 -9c-2 -7 -23 -32 -34 -39l-21 -7zM185 411v7l-1 -3zM3 77c3 3 3 7 3 12v7c-4 -5 -5 -9 -5 -14c0 -3 0 -5 2 -5z
M10 31l3 1c20 8 27 33 39 39c3 3 5 6 5 9c0 10 -9 12 -27 18c-11 0 -11 -35 -17 -41c-5 -2 -7 -9 -7 -16s2 -10 4 -10zM112 138c7 3 4 1 7 7c0 4 -3 7 -6 7c-4 0 -5 -5 -5 -9c0 -3 2 -5 4 -5zM65 120c29 0 26 5 30 5s6 0 6 2c-5 3 -7 0 -7 8c0 10 11 20 22 36
c5 -4 3 -2 7 -8c2 0 1 7 10 19c2 0 2 4 2 6l-4 4l-5 -2c-1 0 -2 1 -2 4c0 5 2 9 9 19c3 -7 3 -12 5 -12c3 0 7 7 10 23l-8 14c0 4 4 6 6 6c5 -2 5 -5 8 -5c2 0 5 1 5 4l-1 11c5 5 6 12 10 25c0 6 -10 13 -10 15c22 13 27 55 36 88c-2 10 1 7 -7 11l-6 -1c-7 0 1 31 -12 39
c-4 2 -6 3 -10 3c-14 0 -69 -25 -69 -32c0 -3 -2 -3 -4 -3c-23 -17 -11 -8 -30 -31c-8 -10 -12 -18 -12 -22c0 -1 1 -2 2 -2l7 -2c0 -8 -20 -29 -20 -33c-8 -21 -13 -14 -13 -48c-8 -38 -5 -17 -9 -54l1 -3l-3 -10l2 -3c2 0 9 6 13 20c37 70 41 75 66 75c11 0 18 -2 23 -7
c10 -11 14 -21 14 -31c0 -17 -18 -35 -28 -35c-25 0 -43 -47 -50 -47c-2 0 -11 -25 -11 -34c0 -7 2 -9 7 -9c5 -2 13 -3 20 -3zM212 119l-2 1c0 2 8 6 12 6l2 -1zM235 129v2c0 5 22 17 22 20l-26 -5c34 24 49 37 54 37c-14 -21 -29 -54 -50 -54z" />
    <glyph glyph-name="p" unicode="p" horiz-adv-x="317" 
d="M-136 -308l-7 2c7 123 34 186 34 222c0 21 7 18 7 30l9 45c-5 11 -7 16 -11 16c-5 0 -9 -27 -12 -27c-2 0 -2 0 -2 4l11 50c0 18 12 30 12 46c0 9 4 15 9 20c0 -18 0 -18 11 -20c7 0 2 15 7 20c4 2 4 9 4 14c0 11 25 68 25 83c0 10 12 30 12 44v2s-5 0 -7 -2
c-7 0 -11 -12 -23 -53c-18 -56 -25 -79 -29 -79c0 11 14 49 36 129c0 5 11 21 21 30c9 27 9 43 13 43c7 7 11 43 25 50l11 4c41 -6 32 -4 39 -31c0 -7 -2 -10 -9 -12c-16 -2 -50 -104 -50 -136c0 -2 0 -4 2 -4c9 20 7 27 27 36c7 2 14 9 14 11c5 14 70 68 107 68
c18 0 11 -13 16 -13h4l-2 6c4 0 25 -22 32 -36c4 -16 9 -34 9 -50v-10c0 -20 -2 -27 -30 -65c-63 -79 -70 -72 -84 -83c-16 -16 -106 -66 -145 -66c-32 0 -25 -16 -29 -16c-5 0 0 -16 -9 -39c-3 -11 -28 -124 -28 -147c-2 -68 -16 -66 -16 -82c0 -2 -2 -4 -4 -4zM-86 46
c4 0 6 7 14 22l-7 4c-5 0 -9 -7 -10 -19c0 -4 1 -7 3 -7zM116 269c11 2 6 0 14 7l-5 1c-5 0 -9 -2 -9 -5v-3zM8 163l-3 -2c13 0 75 78 95 98c4 2 7 4 7 7c-8 0 -66 -50 -73 -71c-9 -17 -23 -15 -23 -25c0 -4 -2 -7 -3 -7zM-42 1c20 0 123 53 137 72c42 38 41 31 58 71l-3 4
c-20 -24 -25 -34 -84 -80c-25 -18 -111 -57 -111 -66zM-20 41c12 0 26 12 61 30c18 6 50 27 50 31s13 10 13 16c0 5 12 2 16 16c0 10 37 19 46 73l1 22c0 19 -5 26 -10 26c-28 -6 -100 -74 -100 -82c0 -6 -22 -25 -30 -37c-20 -31 -43 -68 -43 -70l-9 -21c0 -3 2 -4 5 -4z
M-152 -251l27 201l4 15l1 -10c-8 -64 -28 -206 -32 -206z" />
    <glyph glyph-name="q" unicode="q" horiz-adv-x="331" 
d="M-38 101c-7 1 -12 1 -12 7c0 7 7 8 17 11c2 0 2 -1 2 -3c-5 -5 -1 -15 -7 -15zM-60 84c7 4 4 2 11 5c0 0 0 -3 -5 -3zM98 -171c-2 0 -5 2 -5 6c0 2 0 2 5 2c3 0 5 -1 5 -3l-3 -4zM178 112l-2 5l1 3l3 -4zM158 -384c-25 2 -41 9 -53 33c-5 14 -14 21 -14 29c0 3 1 5 2 5
c3 0 5 -5 5 -9c0 59 1 66 5 106c16 80 2 88 18 95c17 35 9 52 22 78c7 13 6 19 9 31c0 7 8 10 8 22l-1 6c5 24 9 34 9 40v9c4 0 3 2 7 10c2 0 3 2 3 5l-3 15l-3 3c2 3 2 4 5 4l2 -1c4 0 10 10 10 17l8 27c0 6 -3 9 -11 9c-16 0 -14 -8 -20 -30c0 -8 -8 11 -57 -54
c-38 -46 -80 -93 -95 -93c-9 -6 -6 -8 -19 -8c-58 4 -48 6 -65 35l1 2c0 5 -7 6 -7 11c0 8 12 9 12 13l-1 1c0 3 0 9 2 12l3 5c0 2 -2 2 -5 2l-4 -1c-2 0 -3 1 -3 3c0 6 7 14 12 14l2 -1l4 6v-9c0 -2 1 -3 2 -3c5 0 11 35 25 54c12 16 21 34 21 39c0 4 -2 5 -3 5
c-5 0 -11 -17 -20 -17l-5 2c8 1 12 2 12 5l-10 13c0 2 10 -3 14 10c0 14 14 16 14 20c0 14 35 46 63 66c20 14 36 20 53 20c22 0 54 -16 54 -27c2 -4 23 -23 30 -23c9 0 18 14 18 30c0 3 9 10 9 27c5 21 10 16 28 20c14 0 22 -20 31 -20c4 -1 6 -3 6 -7
c-2 -15 5 17 -45 -111c-9 -44 -18 -37 -52 -163c-8 -19 -6 -9 -9 -30c-5 -4 -3 -22 -7 -27c-3 -3 -34 -109 -38 -109c-5 5 -5 11 -5 14c0 2 0 3 -1 3c-7 0 -13 -40 -13 -98c4 39 12 68 17 68c1 0 2 -1 2 -5c0 -13 -9 -62 -9 -99c0 -49 2 -80 24 -80c21 0 21 0 21 -7
c0 -8 -6 -12 -15 -12zM-27 9c7 0 18 7 43 21c9 4 64 70 68 70c3 0 3 0 3 -2c0 -5 -16 -14 -16 -18c0 -14 -18 -16 -18 -25c0 -5 0 -7 4 -7c2 0 16 7 16 9c0 9 39 32 39 48c0 11 -16 9 -16 13c0 5 4 7 18 14c2 -7 0 -5 7 -7c4 0 2 25 13 36c8 5 10 10 10 16l-1 9
c0 9 0 16 -2 18c-13 28 -9 28 -20 30c-25 0 -86 -75 -86 -89c0 -9 -34 -36 -48 -74c-5 -19 -16 -41 -16 -53c0 -4 0 -9 2 -9zM116 -274c2 0 5 2 5 7c-2 3 -2 7 -4 7c-3 -1 -3 -5 -3 -7c0 -3 0 -5 2 -7zM139 -136c4 4 4 34 13 39c3 4 5 11 5 16v1c0 22 26 79 26 96l-1 7
c-7 0 -22 -51 -27 -77c0 -9 -12 -24 -12 -34l-9 -42c0 -4 1 -6 5 -6zM182 27l6 9h-4c-2 0 -2 -2 -2 -4v-5zM200 161l6 8c-5 -1 -6 -6 -6 -6v-2zM206 174l5 4l-6 -2z" />
    <glyph glyph-name="r" unicode="r" horiz-adv-x="300" 
d="M-29 -40c-7 0 -6 38 -12 38c-3 2 -5 4 -5 13c7 58 7 93 16 121c8 15 4 31 10 36c2 0 4 7 4 14c5 22 21 51 32 79c7 7 0 23 13 23c6 5 12 21 33 21c20 -2 19 -5 34 -34c0 -10 -6 -9 -17 -24c-4 -9 -9 -11 -9 -11c0 -19 -36 -67 -36 -75c0 -9 -11 -16 -11 -29
c-16 -63 -18 -34 -18 -59v-8c3 9 1 13 6 13l3 -1c10 0 12 10 34 37c11 13 25 34 25 40c56 63 118 144 155 144c4 0 8 -1 10 -3c10 -8 19 -6 19 -35l-3 -29c0 -21 7 -39 12 -62l-2 -2c-43 7 -40 16 -55 46c-5 7 -7 12 -9 12c-10 0 -111 -127 -168 -213
c-5 -10 -22 -35 -31 -35l-6 1c-11 0 -18 -18 -24 -18zM-37 25c2 14 13 22 13 33c0 3 -1 6 -3 6c-8 0 -8 -14 -11 -37c0 -2 0 -2 1 -2zM-5 89v6l-1 -3zM-23 71c13 0 7 49 16 58c7 3 7 5 7 16l-2 8c0 5 9 2 9 17c0 5 -1 6 -2 6c-7 -13 -14 -16 -23 -51c-5 -7 -12 -39 -12 -50
c0 -3 2 -5 4 -5z" />
    <glyph glyph-name="s" unicode="s" horiz-adv-x="277" 
d="M51 -171c-31 0 -50 33 -50 48c15 37 13 41 19 52c-4 3 -6 6 -6 15c0 14 20 32 34 32c7 0 11 2 11 4v4l-4 -1h-6c3 9 7 13 10 13c3 -5 2 -7 7 -7c4 0 5 15 14 15c7 -2 5 -12 11 -12l-1 17c0 7 4 12 8 12c7 -5 8 -9 13 -9c4 0 5 2 5 5c0 6 -4 5 -9 12c0 6 34 8 34 8
c0 20 -90 37 -136 102c-3 6 -5 15 -5 24c0 22 15 58 21 58c4 0 2 7 11 16c81 108 102 127 118 139c31 -6 51 -1 51 -26c-5 -30 7 18 -119 -120c-30 -41 -31 -56 -39 -64c-3 -4 -5 -8 -5 -13c0 -15 22 -34 48 -41l77 -32c26 15 25 23 56 26c-4 5 -6 6 -6 6c29 20 34 17 48 32
c4 8 16 6 16 11s29 23 36 23c5 0 7 -3 7 -9c0 -5 -2 -7 -2 -7c-7 0 -20 -22 -62 -57c-45 -32 -36 -21 -43 -34c0 -9 -13 -8 -13 -16c0 -9 12 -15 12 -28l-8 -56c-5 0 -12 -27 -20 -36c-9 -9 7 -4 -52 -63c-27 -29 -57 -43 -81 -43zM65 252c13 12 19 18 19 23l-2 2
c-8 0 -12 -8 -18 -24zM42 219c9 6 13 11 13 15c0 2 -1 3 -3 3c-6 0 -14 -9 -14 -15zM18 180c8 4 6 10 14 18c3 4 5 7 5 10s-2 5 -5 6c-5 0 -15 -22 -15 -31zM44 -132c12 0 46 19 58 33c13 12 61 78 72 117l-4 6c-11 0 -102 -98 -102 -107c0 -2 -4 -7 -9 -9
c-9 -6 -20 -25 -20 -34zM95 -143c4 7 3 10 7 15c4 0 -4 9 16 15c5 3 8 6 8 9c0 1 -2 3 -6 3c-10 0 -40 -28 -40 -36l2 -3zM122 -127c6 0 17 16 17 18l-3 1c-4 0 -7 -2 -7 -5c-5 -10 -9 -13 -9 -13zM147 -99c2 0 6 3 7 7c0 7 -6 9 -18 11c-4 0 -7 -2 -7 -7c0 -4 1 -6 3 -6
l4 2c11 0 7 -7 11 -7zM150 -71c5 0 11 7 11 13c0 2 0 3 -1 3c-11 -7 -7 -3 -12 -14zM168 -74c2 0 9 11 9 20h-1c-1 0 -3 -2 -6 -4c-4 -5 -6 -10 -6 -13zM178 -49c10 11 7 5 12 19l-2 1c-4 0 -11 -13 -11 -18zM224 112l8 1l-1 1h-4z" />
    <glyph glyph-name="t" unicode="t" horiz-adv-x="191" 
d="M-25 39c2 0 2 2 2 7l-2 22l-1 1c-2 0 -3 -4 -4 -12c0 -9 2 -15 5 -18zM43 349c2 0 4 2 7 5c2 3 6 13 11 31c3 6 5 11 5 14c1 3 2 6 3 10s3 10 5 18c0 4 -1 6 -4 6c-1 0 -4 -3 -7 -8c-9 -15 -13 -29 -13 -42c0 -6 -1 -10 -4 -14s-5 -8 -5 -13s1 -7 2 -7zM7 218
c3 0 5 4 6 13c1 8 5 16 10 25l4 21c0 5 -1 8 -2 8c-3 -1 -5 -3 -7 -6c-5 -8 -8 -15 -10 -23c-2 -7 -4 -11 -6 -12c-1 0 -1 1 -1 2l3 17l-2 1c-5 -1 -8 -2 -9 -5s-2 -9 -3 -18c0 -4 1 -6 2 -6l8 4v-10c0 -7 2 -11 7 -11zM-15 145c12 21 18 38 18 51c0 5 -1 7 -3 8
c-7 0 -11 -11 -13 -34l-4 -18c0 -4 1 -6 2 -7zM-22 88l2 1l7 41c0 3 -1 4 -3 4c-1 0 -3 -1 -5 -3c-3 -1 -4 -3 -4 -5l2 -8l-3 -20c0 -7 1 -10 4 -10zM28 -46c-13 0 -25 6 -35 17c0 2 -4 6 -13 11c-9 7 -14 16 -17 25s-6 21 -7 38c-1 1 -1 3 -1 5s0 3 1 3l3 -2c1 0 2 1 2 4
s-2 5 -5 7c-3 0 -4 1 -4 3l3 5l5 -6c2 5 4 27 6 66c0 9 -1 14 -2 15l-2 -1l-1 6c0 4 1 7 3 9c3 0 5 -3 5 -8c0 1 1 1 2 2c1 0 2 1 3 2s1 3 1 6s-2 5 -5 5l-1 -1l-1 8c0 4 1 9 2 16s3 12 4 17s2 7 3 7c2 0 3 -1 3 -3l-5 -33c0 -4 1 -6 2 -7c5 0 8 11 9 33l1 15l-2 5l-2 -1
l-2 6c0 3 2 12 5 25l-1 3l-38 -18c-3 0 -7 2 -12 6s-10 8 -14 13c-5 4 -7 7 -7 8c19 23 40 39 62 48c19 9 33 19 42 32l4 -7l-1 25c0 6 2 10 5 12c0 -1 0 -3 1 -5c0 -3 0 -5 1 -6c1 -2 2 -3 4 -3c3 1 5 4 5 8c0 3 0 5 -1 6l-4 4s-3 3 -4 5l4 11c1 0 1 -1 2 -2l6 -6l7 11
c0 3 -2 5 -5 7c-3 0 -4 1 -4 3c0 3 1 4 2 4l3 -1c7 0 11 4 11 11l10 27c0 2 -1 3 -2 4c-1 0 -3 0 -4 1c-2 0 -4 0 -5 1c-2 1 -3 2 -3 4c1 1 2 3 3 4c0 2 2 3 5 3c1 0 1 0 1 1c4 -3 7 -4 10 -4c2 -1 3 -6 3 -16l-2 -14l14 23c-3 4 -7 8 -10 11s-6 7 -8 10s-3 6 -3 9s2 4 5 5
c3 -1 6 -1 8 -2l4 -4s1 -2 2 -2c4 0 6 4 6 12c0 5 -1 7 -4 7h-13l4 15h6c3 0 5 2 5 5l-8 11c4 10 8 22 11 35c5 20 9 33 13 38c6 3 9 11 11 23l3 15h18c21 0 32 -7 32 -22c0 -19 -1 -32 -2 -39c-1 -4 -8 -12 -20 -24c-4 -4 -8 -13 -10 -26c0 -8 -2 -15 -7 -21
c-5 -7 -7 -14 -7 -22c0 -2 -1 -4 -3 -6c-5 -5 -13 -21 -24 -45c-15 -36 -24 -62 -26 -76c0 -5 2 -7 6 -7c10 3 18 5 25 7s15 4 24 6s21 4 36 5c11 0 17 -3 17 -10s-8 -10 -25 -10c-10 -4 -18 -7 -23 -8l-27 -12c-24 -10 -39 -18 -43 -22c-10 -11 -23 -45 -39 -103
c0 -7 -1 -13 -3 -16c-3 -4 -4 -8 -4 -13s-2 -15 -6 -29c-2 -6 -3 -10 -3 -12l1 -4c-8 -10 -12 -38 -12 -85c0 -23 2 -37 6 -44s11 -12 20 -14c3 0 8 3 15 8c6 5 12 7 16 7c1 0 2 2 2 5c28 33 43 50 44 50l7 -1l-4 11c0 3 3 6 9 10c5 5 7 8 7 9l52 91c7 7 11 10 13 10l3 -4
c0 -2 -4 -13 -11 -32c-17 -41 -25 -65 -25 -72c0 -1 -1 -3 -3 -5c-12 -14 -20 -28 -26 -42c-1 -4 -3 -7 -5 -10c-6 -7 -10 -14 -13 -22c0 -5 -4 -10 -12 -16c-12 -13 -19 -21 -23 -23c-3 -3 -8 -4 -15 -4c-3 0 -5 0 -6 -1c-2 -1 -4 -3 -6 -4c-2 -2 -5 -3 -8 -3zM42 421l-1 3
c0 3 1 6 2 9s2 5 3 7s2 3 3 3l1 -7c0 -9 -3 -14 -8 -15zM-39 102c-3 0 -4 5 -4 14c0 8 1 15 4 20c2 0 3 -3 3 -10c0 -16 -1 -24 -3 -24zM-44 77l-1 3v13l1 1v-17z" />
    <glyph glyph-name="u" unicode="u" horiz-adv-x="402" 
d="M378 93l-2 2c6 15 2 8 14 18l1 -1c-4 -10 -5 -19 -13 -19zM361 70c-1 0 -1 1 -1 3c0 4 4 6 11 8l2 -1zM352 108c-3 2 -4 2 -4 6l4 3v-9zM392 181v1c0 5 11 18 15 18c0 -3 -2 -7 -7 -12c-3 -5 -6 -7 -8 -7zM321 49l-3 2c0 13 37 48 60 74c6 0 6 9 11 20c21 34 29 55 34 55
l2 -5l-17 -35l8 -9c0 -6 -18 -33 -22 -33l1 14c-9 -7 -5 -4 -10 -14c-16 -21 -29 -30 -34 -41c-16 -17 -25 -28 -30 -28zM26 -71c-11 1 -14 3 -25 3l-4 -1c-12 0 -37 20 -37 59c0 28 4 56 11 117c0 12 -3 8 -9 13h5c4 0 4 6 7 19c8 0 10 74 41 74c21 0 16 -9 20 -9h1
c7 0 17 -14 17 -20c0 -9 -15 -36 -36 -98c-5 -14 -14 -58 -14 -86c0 -9 1 -16 3 -18c12 5 20 11 20 11c3 0 3 5 3 7c0 16 34 32 34 42l-4 10l4 3c7 0 5 -12 18 -12c4 0 6 3 6 12c0 6 -2 9 -4 9c-5 0 -7 2 -7 4c1 4 3 6 5 6c4 0 3 -3 8 -7c15 0 45 118 53 126l20 43
c5 0 28 36 32 36c2 0 5 5 5 9c2 9 13 12 36 12c21 0 25 -14 25 -30c0 -15 -16 -26 -16 -31c0 -16 -62 -91 -73 -143l-9 -32c-2 -7 -6 -21 -6 -30c0 -20 11 -35 22 -35c43 6 77 26 114 63c14 12 23 19 26 19l1 -3c0 -5 -23 -21 -23 -25l-27 -31c19 4 20 11 39 25
c1 0 2 -1 2 -4c0 -10 -24 -19 -24 -22c0 -2 2 -2 6 -2c5 0 45 38 49 38c7 0 6 11 10 11l4 -3c0 -11 -18 -24 -50 -53c-52 -53 -78 -42 -84 -48l-12 -2c-43 4 -43 -4 -63 23c-14 14 -13 22 -22 27c-9 0 -14 18 -18 18c-7 0 -17 -27 -46 -73c0 -2 -9 -9 -18 -16zM53 4
c8 5 10 8 10 12c0 1 -1 2 -3 2c-5 0 -6 -6 -8 -12zM70 27l3 4c0 1 -1 3 -3 3l-3 -3zM83 24l4 3l-2 4c-3 -3 -4 -4 -4 -6c0 -1 1 -1 2 -1zM94 41c0 0 3 0 3 2c0 3 0 5 -3 5l-3 -6zM91 87l-3 5c0 2 3 6 6 6s4 -2 4 -4z" />
    <glyph glyph-name="v" unicode="v" horiz-adv-x="231" 
d="M73 -54c-9 0 -31 20 -41 20c-18 0 -27 35 -27 50c-5 26 -11 20 -11 80c0 51 13 179 21 179c4 0 8 0 10 2c3 2 9 4 16 7c7 0 10 0 10 -2l-2 -5c12 -5 21 -5 21 -21c-5 -32 -20 -65 -20 -149c0 -54 -2 -51 -3 -58c0 -14 2 -32 7 -33c7 0 10 16 14 16c0 0 16 25 19 25
c2 0 0 -5 9 -5c4 0 9 0 9 3c-4 7 -9 6 -9 18c2 11 2 17 6 17c4 -5 2 -8 6 -8c3 0 16 8 16 13l-5 10c2 6 6 8 6 20c0 14 14 3 21 16c0 5 -12 2 -12 7c0 3 16 18 16 31c0 12 7 13 20 16c0 -2 3 -2 5 -2l2 6c0 3 -1 6 -3 6l-4 -2c-1 0 -2 1 -2 3c0 8 7 38 20 38c5 0 4 -3 10 -6
c4 0 5 5 7 13c-3 7 -1 4 -7 8c2 8 0 5 7 10l8 -3c12 0 16 16 41 47c6 8 8 12 8 15l-4 5h8c4 0 7 2 7 5c-3 3 -5 2 -5 7h1c4 0 11 -4 11 -8c-4 -14 -8 -35 -23 -60c-15 -15 -24 -27 -28 -39c-68 -98 -73 -125 -99 -188c-7 -11 -14 -38 -18 -57c-5 -15 -30 -47 -39 -47zM31 78
c2 0 4 2 4 5c-3 5 -1 7 -5 7c-1 0 -2 -2 -2 -5s1 -7 3 -7zM36 13c2 0 3 1 3 3c0 4 -3 6 -6 8l-1 -3c0 -3 0 -7 2 -7zM130 109c2 0 4 2 4 5v4c-4 0 -6 -3 -8 -8zM191 218c2 0 3 3 3 7c0 3 -1 6 -3 6s-3 -3 -3 -6c0 -4 1 -7 3 -7zM228 291l-4 3c0 3 4 8 8 8c1 0 2 -1 2 -3
s-2 -5 -5 -6z" />
    <glyph glyph-name="w" unicode="w" horiz-adv-x="449" 
d="M338 163c0 3 2 14 9 28c3 10 7 15 8 15c-3 -27 -12 -43 -17 -43zM109 123h-5l-1 4c0 4 3 9 6 9c2 0 3 -2 3 -5zM309 87l-3 2l30 72l1 -13c0 -19 -19 -31 -19 -50c0 -6 -5 -11 -9 -11zM339 101l-2 4c0 5 4 11 5 11c3 0 4 -2 4 -5zM229 -76c-25 0 -75 28 -84 40
c-7 7 -20 41 -23 54c0 16 -4 32 -9 32c-2 0 -4 -2 -4 -7s-57 -64 -57 -68c0 -3 -2 -3 -5 -3c-9 0 -29 7 -40 17c-7 14 -26 10 -29 68c0 41 9 88 20 116c3 7 2 20 9 27c9 4 4 25 18 25c8 0 8 7 16 7c13 0 35 -12 35 -19s-15 -14 -15 -31l1 -4c0 -27 -12 -54 -19 -67
c0 -33 -7 -28 -11 -65l-3 -7l2 -2c8 0 28 27 40 27l8 -1c7 0 16 21 21 30c21 30 45 134 45 143c1 4 10 7 21 7c22 0 29 -6 43 -16c-14 -27 -25 -54 -25 -61c0 -4 -12 -8 -12 -24v-3c0 -75 -2 -61 -4 -84c0 -59 7 -82 20 -82c6 6 29 -3 48 16l13 13c7 0 16 22 21 22
s4 -3 6 -8c-6 -7 -17 -14 -17 -20c0 -7 14 -6 24 -9c25 29 35 45 37 54c0 5 0 8 -2 8l-6 -2c-1 0 -2 1 -2 2c3 9 4 13 7 13s1 -9 6 -9c10 5 13 3 13 13l-1 3c0 7 19 27 19 46c0 8 -5 9 -5 17l2 3c4 -8 4 -12 7 -12c4 0 12 12 12 17v1c0 7 5 19 13 49l-2 3c-3 0 -4 -3 -5 -6
l-2 4c0 3 1 5 4 5l8 2c-2 6 -7 5 -7 15c0 14 11 9 11 28c8 39 4 19 7 61l-2 19l2 8c5 0 23 -33 23 -53c0 -11 -7 -22 -7 -31c-6 -28 -8 -14 -16 -86c-3 -13 -12 -12 -12 -23c0 -3 0 -2 1 -4c-31 -74 -12 -46 -57 -118c-11 -27 -43 -64 -64 -73c-19 -6 -21 -17 -36 -17z
M254 -33c9 2 12 3 12 6c0 1 -1 2 -3 2s-4 -2 -7 -4zM358 216c-1 0 -3 0 -3 2c22 75 17 64 26 103c0 7 -4 7 -10 12l5 3c6 0 9 -6 11 -13c-4 -37 -2 -18 -13 -56c0 -12 -11 -49 -16 -51zM326 72c-1 0 -1 1 -1 3c3 11 8 18 8 18c3 0 4 0 4 -1c-5 -14 -8 -20 -11 -20zM283 -4
c-3 0 -5 2 -5 5c0 9 26 42 29 42c-10 -34 -11 -31 -19 -43c0 -2 -2 -4 -5 -4zM299 69c-1 0 -2 1 -2 2v1l4 4c1 -3 1 -2 1 -5c0 -1 -1 -2 -3 -2zM361 153l-1 6c0 1 1 2 3 2s2 0 2 -2c0 -4 -1 -4 -4 -6z" />
    <glyph glyph-name="x" unicode="x" horiz-adv-x="316" 
d="M-224 -131c-5 0 -8 5 -8 9c8 38 22 58 72 154c8 4 16 25 25 34c12 12 8 12 13 23c6 6 8 9 8 18l-1 20l-2 78l2 51l6 2c12 0 13 -10 23 -15c16 -5 21 -14 21 -39c0 -13 2 -25 4 -25c0 3 7 7 14 16c32 43 32 59 43 59c7 0 1 9 18 9c17 -5 39 -16 39 -34
c0 -11 -25 -26 -30 -36c-51 -56 -31 -30 -77 -91c-4 -7 -6 -10 -6 -20c4 -63 -4 -77 31 -77c35 8 28 4 48 11c12 0 41 20 47 34c4 12 25 22 30 32c0 3 2 5 4 5s3 -1 3 -3l-19 -31l2 -2c4 0 10 13 14 13c7 0 30 27 30 34c0 5 -5 1 -5 7c0 2 5 2 9 2l4 -1c9 0 8 11 15 14l8 5
l-5 5c0 11 12 12 44 38c12 8 27 26 33 26l8 -3l2 2c3 0 3 0 3 -2c0 -5 -23 -25 -23 -34c-5 -14 -18 -9 -23 -14c-2 -4 -4 -7 -7 -7c0 0 -20 -20 -53 -49l5 -4c12 0 19 24 26 24c4 0 20 16 25 16c0 -5 -7 -5 -7 -9c0 -9 -73 -98 -120 -136c-19 -11 -36 -22 -75 -29
c-23 3 -27 7 -43 19c-7 0 -30 28 -39 44c-4 11 -9 20 -11 20c-5 0 -10 -10 -27 -27c-5 0 -5 -9 -9 -14l-28 -45c-5 0 -9 -13 -16 -32c-8 0 -21 -32 -24 -32c-5 0 -17 -13 -21 -13zM120 49c4 0 23 20 23 26l-2 1c-12 -3 -23 -18 -23 -25z" />
    <glyph glyph-name="y" unicode="y" horiz-adv-x="310" 
d="M12 -141c-2 0 -3 1 -3 2c12 25 14 40 21 40l1 -3l-8 -20c-2 0 -5 -2 -5 -7l-2 -11zM-22 -231h-3c-1 0 -2 1 -2 3c3 8 1 6 8 10l1 -4zM-163 -342c-84 0 -102 46 -107 152c0 14 0 18 3 21c7 0 4 -9 9 -9c4 0 4 -25 9 -39c18 -57 23 -86 61 -93c32 0 86 45 86 59
c0 7 12 11 14 14c0 9 23 34 23 43c45 88 22 50 61 154c0 27 20 66 25 91c3 3 4 12 4 18c-7 0 -34 -55 -45 -59c-5 0 -9 -5 -14 -9c-7 -5 -16 -9 -25 -9c-36 0 -84 36 -88 90c0 25 7 25 7 46c0 22 6 20 6 27c10 29 5 16 16 43c5 20 12 20 16 32c0 7 18 20 25 20
c9 0 14 -16 18 -16c28 -13 41 -20 41 -31c0 -10 -13 -25 -34 -50c0 -9 -25 -64 -25 -87v-4l2 -2c14 0 34 38 80 95c0 4 11 18 27 34c0 7 57 54 57 61c0 2 2 5 4 5c12 0 46 -25 46 -46c0 -6 -3 -11 -3 -11c-4 0 -13 -32 -18 -45c-13 -21 -7 -34 -18 -55
c0 -13 -23 -50 -23 -66c-4 -27 -11 -31 -11 -45c0 -9 -11 -18 -11 -27s-14 -23 -14 -32c0 -7 -13 -23 -18 -23s-5 10 -9 10c-5 0 -9 -7 -9 -19c0 -9 -7 -15 -9 -31c7 -5 9 -3 9 -14c0 -9 -2 -11 -2 -11c-5 0 -7 16 -12 16c-4 0 -13 -34 -18 -43v-3l14 5
c-5 -12 -5 -23 -9 -23c-5 0 -5 9 -9 9c-8 -11 -10 -11 -10 -27c5 -11 10 -9 10 -14c0 -13 -25 -54 -39 -61c-9 -4 -18 -23 -52 -36c-7 -2 -23 -5 -41 -5zM-37 61l6 1l2 4l-6 4c-5 -2 -3 0 -6 -7c0 -1 2 -2 4 -2zM-93 -270l2 1l3 5c0 1 -1 2 -2 2h-1l-3 -6zM-80 -246
c11 6 15 11 15 17l-7 -2zM-77 -287c5 0 12 4 12 7l-10 5c-2 0 -2 -1 -2 -5v-7zM-13 89c3 1 5 6 5 10c0 3 -1 6 -3 6c-4 0 -10 -10 -10 -14l1 -2h7zM-55 -261c9 4 14 5 14 11c0 4 -4 5 -11 8c-4 0 -7 -5 -7 -11s1 -8 4 -8zM-61 -217c5 0 33 61 39 73c8 8 7 55 29 88
c18 26 15 32 21 68c0 4 -1 7 -3 7l-16 -50c-8 -9 -26 -71 -29 -88c-15 -31 -19 -53 -25 -53c-2 -2 -2 -6 -2 -9zM25 -74c7 3 10 4 10 10c0 4 -8 15 -9 15l-7 -17c0 -5 2 -8 6 -8zM37 -42c6 0 6 0 6 9l-1 5c0 9 13 16 13 25c0 7 -3 8 -9 9c-6 0 1 -15 -12 -28
c-3 -5 -5 -10 -5 -14s3 -6 8 -6zM32 30c7 4 9 4 9 21c0 7 0 12 -1 12c-2 -12 -7 -14 -10 -29c0 -3 1 -4 2 -4zM57 23l2 3l-2 5l-2 -3zM-3 108c8 0 6 22 15 27c17 4 22 38 36 38c6 0 -2 12 16 30c3 3 7 7 7 9v2s-78 -85 -78 -101z" />
    <glyph glyph-name="z" unicode="z" horiz-adv-x="507" 
d="M310 118c16 16 10 9 34 15c0 0 -5 -4 -14 -9zM79 -45c3 8 7 13 13 13c1 0 2 -1 2 -3c0 0 -2 -4 -6 -7zM-51 -277c-16 0 -18 2 -27 11c-11 11 -16 27 -16 50c0 19 16 25 16 43c0 9 2 11 5 11c4 0 4 3 4 5c2 6 30 34 34 34l2 -4l-8 -16l4 -1c9 0 27 23 34 37
c4 4 25 14 25 18c0 6 8 12 15 12l3 -1c4 0 4 0 4 2c3 13 5 17 9 17c3 0 4 -3 7 -8c8 8 1 19 16 19c9 0 27 14 27 18l-5 4h5c7 0 14 6 14 10l-1 4c0 2 3 4 6 4l9 -3c15 14 17 12 23 17l-1 3c0 7 23 24 31 24h3c9 0 15 11 17 20c0 3 -3 5 -6 5c-17 -8 -8 -4 -24 -16
c-97 -48 -157 -124 -179 -131c0 7 34 35 97 86c11 8 100 62 100 70c0 3 -7 5 -16 5c-22 0 -34 -7 -107 -27c-11 0 -25 -9 -47 -21c-6 0 -4 8 -9 18c-7 0 -4 14 -7 14c-3 2 -4 5 -4 9c0 5 2 10 6 11c64 50 21 19 104 82c95 83 47 37 139 134c7 7 13 16 13 20c0 3 0 4 -4 4
l-14 -2c-156 -18 -217 -156 -236 -167c-4 -5 -11 -5 -22 -5c-18 2 -39 7 -39 21c0 5 5 16 5 19c-2 1 -3 1 -3 3c8 14 11 6 28 18c41 33 169 151 275 151l31 -3c9 -5 28 -23 28 -36c-3 -23 -7 -22 -15 -37l1 -2c0 -12 -12 -28 -41 -54c-13 -9 -9 -16 -19 -21
c-15 -5 -22 -14 -43 -32c-4 0 -3 -11 -22 -20c-12 -7 -22 -15 -22 -19c0 -1 3 -1 5 -3l-3 -7c0 -4 5 -5 15 -5c13 0 32 -24 54 -31c13 0 51 26 80 32c-5 -7 -14 -14 -27 -17c-25 -9 -41 -18 -43 -23c26 -6 20 -3 28 -8c4 0 0 13 12 13c7 0 12 0 14 2l-8 3c4 6 7 4 19 11
c11 10 50 10 50 20c0 11 43 19 84 34c22 6 34 14 66 27c2 0 2 -1 2 -4c0 -4 -2 -10 -7 -11l-83 -34c-5 -5 -10 -7 -12 -7l-45 -23c-15 0 -76 -42 -100 -52c-9 -5 -11 -9 -14 -18c-10 -50 -28 -118 -40 -118c-5 0 -7 -25 -21 -30c-4 0 -47 -43 -52 -43c-7 0 -33 -25 -36 -25
c-7 0 -30 -22 -68 -50c-19 -18 -55 -30 -55 -36c-2 -2 -6 -4 -18 -4zM162 181l6 2l-9 -1zM124 149c4 0 18 12 18 15l-1 3c-6 -4 -20 -6 -20 -16c0 -1 1 -2 3 -2zM66 104c34 24 52 34 52 42c-15 -3 -7 -1 -19 -11l-33 -30v-1zM102 114c8 0 27 12 33 21c16 16 15 12 30 23
c7 0 21 16 52 45c12 13 19 32 25 32c2 0 22 18 22 23c0 2 -2 2 -2 2c-11 0 -63 -63 -66 -63c-11 0 -36 -39 -45 -39c-13 -10 -14 -19 -36 -29c-8 -6 -14 -12 -14 -15h1zM169 13l3 6c0 2 -1 3 -3 3l-3 -8c0 -1 2 -1 3 -1zM-51 -248c4 0 25 10 25 13c-17 -5 -29 -7 -29 -11
c0 -1 1 -2 4 -2zM-18 -230c5 0 21 16 26 16c9 0 39 22 39 29l-2 1c-1 0 -3 -1 -3 -3c-13 -13 -53 -27 -61 -42zM-2 -237c21 10 51 27 51 39c-19 -13 -53 -35 -53 -38zM57 -196c3 0 13 8 13 11zM51 -182c9 8 15 11 15 13c-3 0 -6 -2 -10 -6zM81 -180c10 0 27 16 27 21l-2 2
s-30 -20 -30 -22zM113 -154l11 11c-6 -1 -6 -2 -12 -7zM149 -120c11 7 7 2 14 15c0 1 -1 2 -2 2c-12 -5 -15 -10 -15 -14v-2zM171 -94c3 0 9 7 9 12v3c-7 -4 -12 -5 -12 -12zM-48 -224c7 0 29 11 56 26c41 25 114 86 134 113c12 19 22 33 29 37c24 35 25 40 30 51
c0 3 -2 5 -5 5c-18 0 -57 -36 -61 -36c-2 0 -7 -4 -9 -9l-50 -39c-9 -8 -97 -85 -97 -106c0 -5 -9 -4 -9 -9c0 -7 -21 -24 -21 -32zM-86 -160c-1 0 -2 1 -2 2c0 2 2 3 5 3l5 -1c0 -1 -2 -2 -5 -3z" />
    <glyph glyph-name="braceleft" unicode="{" horiz-adv-x="417" 
d="M86 -55c-25 5 -32 0 -37 21c0 13 -9 16 -9 34c0 27 7 41 16 68l14 36c0 9 9 12 9 23c25 47 29 63 43 138c0 12 -20 9 -20 34c2 5 11 30 18 39c4 4 7 4 25 4c38 0 40 8 54 16c9 2 34 14 41 21c9 9 36 20 36 79c0 32 -9 77 -9 113c2 57 14 68 23 87c16 31 36 38 59 45
c0 -5 2 -7 7 -7c2 0 4 2 6 5c16 -5 37 -12 48 -46c5 -13 7 -41 7 -59c0 -16 -5 -22 -9 -22c-14 9 -30 6 -30 11c9 7 12 29 12 43c0 9 -3 11 -7 14c-5 2 -7 2 -11 2c-14 0 -50 -16 -59 -34c-5 -16 -7 -11 -10 -16c-6 -20 -9 -25 -9 -59c0 -38 9 -82 9 -120
c-13 -179 -142 -86 -142 -168c0 -11 -3 -25 -5 -27c-4 -36 -7 -27 -9 -41l-66 -163c0 -3 3 -3 5 -3l11 3l77 36c5 5 9 7 12 7c59 29 81 36 95 36l7 -2c4 4 11 11 27 11h4c-4 -6 -5 -6 -8 -6l-8 -1l3 -2l29 2c21 0 30 -4 30 -15v-6c0 -4 -1 -6 -9 -6c-3 0 -5 0 -5 -2
c-20 -11 -25 -20 -34 -20s-23 -16 -41 -21c-50 -20 -25 -9 -75 -34c-6 -7 -20 -20 -34 -20c-9 0 -22 -16 -61 -25zM197 23c14 0 103 41 103 47c-18 -7 -8 -4 -26 -9c-9 0 -40 -19 -49 -19c-2 0 -3 1 -3 3c0 0 -7 -8 -27 -20zM152 308l4 3l-6 -2z" />
    <glyph glyph-name="bar" unicode="|" horiz-adv-x="144" 
d="M67 -177c-3 1 -5 4 -5 9c0 4 1 9 3 16c3 18 -2 11 11 38l1 3c0 2 -1 3 -2 4l-1 19c0 9 2 9 5 24c1 2 2 5 4 5l4 -12l4 3c2 7 3 13 3 17s-1 7 -3 7s-6 -6 -10 -6c-2 0 -3 1 -3 3l1 8c2 5 9 0 13 7l2 10c0 5 -2 10 -4 10l-6 -2c-2 12 -4 19 -4 25c0 3 1 6 2 9l3 2
s1 -22 3 -22s2 0 4 2c2 9 3 18 3 24c0 9 -1 14 -4 14l-6 -9c-4 0 -7 17 -7 31l2 12c0 24 -6 28 -6 38c0 3 0 6 1 10l13 9v5c-9 14 -14 16 -14 20l1 5c2 3 3 10 3 16c0 5 -1 8 -3 8c0 0 -3 14 -3 23l1 7c1 2 6 2 8 7c-3 2 -7 2 -7 5l1 3c0 2 -3 2 -3 6l2 8c0 7 -10 14 -10 23
l2 7c2 5 3 9 3 13c0 11 -6 20 -6 33c0 4 0 8 2 13c-5 19 -11 31 -11 41l2 9c-2 63 -3 90 -12 90c-1 16 -4 23 -4 30c0 3 1 7 3 11c6 14 31 30 36 30c11 0 13 4 21 11c5 -8 8 -13 8 -19c0 -2 0 -4 -1 -6c2 -53 9 -60 9 -84l-1 -16c2 -3 3 -7 3 -10v-1c4 -68 17 -91 17 -187
l3 -64l-1 -21c0 -10 1 -22 7 -57c-2 -29 -3 -50 -3 -66l1 -31c-2 -23 0 -30 -3 -50c-2 -18 1 -23 -5 -46l-1 -3c0 -4 5 -4 5 -8c0 -2 -1 -4 -2 -7c-1 -2 -1 -3 -1 -5v-5c0 -2 0 -4 -1 -6c-5 -8 -14 -13 -20 -13c-9 0 -27 -27 -47 -27zM86 -98c1 0 2 1 2 2l-1 4l-2 -3zM90 81
c5 7 4 3 5 12c-2 0 -2 0 -4 -5l-2 -6zM78 283c1 0 2 1 2 2l-1 4c-2 -2 -3 -2 -3 -4c0 -1 1 -2 2 -2zM112 -121c3 3 5 7 7 12c9 51 8 80 10 84l2 54c1 1 1 7 1 15c0 26 -3 78 -6 114c-3 2 -4 4 -4 6l1 3c2 3 2 8 2 14c0 9 -2 19 -4 20v5c0 7 -2 15 -2 21c0 2 0 4 1 6l1 5
c0 6 -4 13 -4 20l2 17c0 20 -6 35 -6 35c-2 0 -3 1 -3 3v2c2 3 2 9 2 15c0 12 -2 26 -7 31l-3 -1c-2 -4 -2 -8 -2 -13c0 -8 2 -17 2 -23l-1 -7c0 -2 2 -6 2 -10l-2 -18c0 -18 6 -33 6 -42l-1 -5c-1 -2 -1 -5 -1 -8l1 -21c-1 -2 -1 -5 -1 -10c0 -15 4 -42 4 -42l-1 -10l2 -48
l-2 -20c0 -15 4 -31 4 -41c0 -3 0 -6 -1 -8c-1 -3 -2 -14 -2 -23l3 -49l-2 -28c-3 -12 -4 -23 -4 -32c0 -14 2 -23 6 -23zM103 373c2 4 4 5 4 8c0 1 -1 2 -4 2v-10zM103 396c1 3 2 4 2 7c0 4 -2 7 -5 7c-1 0 -2 -1 -3 -2c3 -9 -1 -6 6 -12z" />
    <glyph glyph-name="braceright" unicode="}" horiz-adv-x="416" 
d="M371 703c25 -5 32 0 36 -21c0 -13 9 -15 9 -34c0 -27 -6 -40 -15 -68l-14 -36c0 -9 -9 -11 -9 -23c-25 -47 -30 -63 -43 -138c0 -11 20 -9 20 -34c-2 -4 -11 -29 -18 -38c-4 -5 -7 -5 -25 -5c-38 0 -40 -7 -54 -16c-9 -2 -34 -13 -41 -20c-9 -9 -36 -21 -36 -80
c0 -31 9 -77 9 -113c-3 -57 -14 -68 -23 -86c-16 -32 -36 -39 -59 -46c0 5 -2 7 -7 7c-2 0 -4 -2 -7 -4c-15 4 -36 11 -47 45c-5 14 -7 41 -7 59c0 16 5 23 9 23c14 -9 30 -7 30 -12c-10 -6 -12 -29 -12 -43c0 -9 2 -11 7 -13c5 -3 7 -3 11 -3c14 0 50 16 59 34
c5 16 7 12 9 16c7 21 9 25 9 59c0 39 -9 82 -9 120c14 180 143 87 143 168c0 12 3 25 5 27c4 37 7 28 9 41l66 164c0 2 -3 2 -5 2l-11 -2l-77 -37c-5 -4 -9 -7 -12 -7c-59 -29 -81 -36 -95 -36l-7 2c-4 -4 -11 -11 -27 -11h-4c4 6 5 6 8 6l7 1l-2 2l-29 -2
c-21 0 -30 4 -30 16v5c0 4 1 6 9 6c2 0 5 0 5 2c20 12 25 21 34 21s22 16 41 20c49 21 25 9 74 34c7 7 21 21 34 21c10 0 23 16 62 25zM259 626c-13 0 -102 -42 -102 -48c18 7 8 5 26 9c9 0 40 19 49 19c2 0 3 -1 3 -3c0 0 7 8 27 21zM305 340l-4 -2l6 1z" />
    <glyph glyph-name="asciitilde" unicode="~" horiz-adv-x="417" 
d="M67 240c-10 0 -27 6 -27 32c0 10 1 20 2 20c5 0 80 75 82 80c0 6 27 23 54 23c9 0 17 -2 23 -5c18 -11 27 -70 34 -77c2 -2 7 -3 13 -3c11 0 24 3 30 7c15 0 47 15 73 25c4 5 13 7 18 7c9 0 34 16 34 23c0 4 3 7 6 7c7 -3 4 -1 8 -8c-9 -23 -6 -29 -26 -42
c-69 -49 -59 -62 -104 -62c-40 0 -86 25 -95 57c-7 25 -7 25 -12 25c-16 0 -89 -109 -113 -109z" />
    <glyph glyph-name="exclamdown" unicode="&#xa1;" horiz-adv-x="287" 
d="M266 724c7 0 7 -10 17 -10l2 1c2 0 2 -2 2 -8l-9 -81c-20 0 -48 6 -48 35c5 41 17 63 36 63zM237 585h12c7 0 11 -11 22 -11c3 0 5 -5 7 -16v-9c0 -73 -16 -136 -25 -173c0 -15 -11 -21 -11 -38c0 -16 -9 -18 -9 -30c0 -7 -7 -22 -12 -22c0 0 -6 -41 -18 -64
c-9 -9 -7 -23 -11 -32c-18 -28 -20 -50 -25 -61c-5 -4 -7 -9 -7 -11c0 -11 -25 -63 -25 -75c0 -15 -24 -108 -40 -108c-27 4 -32 3 -32 13c0 8 -23 13 -23 18c0 0 2 4 2 11c7 13 12 9 12 27c0 12 6 18 13 32c0 5 7 6 12 23c4 17 24 66 24 66c12 35 10 50 19 59s18 35 34 77
c2 0 4 6 6 11c8 33 25 38 25 64l25 72c6 0 8 32 12 36c14 43 10 57 13 102v39zM133 91c-2 0 -9 -23 -9 -32c0 -4 -6 -7 -10 -15l3 -3c10 0 8 12 14 31c3 5 5 10 5 14c0 3 -1 5 -3 5zM217 299c-5 0 -21 -34 -21 -41c-10 -24 -18 -36 -18 -47v-2c0 -23 -41 -82 -41 -103
c0 -4 1 -6 5 -6c5 0 7 18 11 22c9 29 3 15 16 41c5 0 3 18 7 18c6 0 6 24 14 32c12 13 8 26 20 50l9 33c0 2 0 3 -2 3zM246 388c-9 0 -18 -33 -33 -80l4 -4c12 0 29 64 29 79v5zM260 460c-2 0 -5 -4 -5 -9l1 -5c6 8 4 4 6 14h-2zM255 433c-7 -15 -13 -26 -13 -32
c0 -3 0 -5 2 -5c8 8 11 14 11 26v11zM249 504c-7 -8 -6 -38 -21 -87c-4 -9 -5 -15 -5 -20c0 -3 1 -5 3 -5c14 0 16 42 25 106c0 4 -1 6 -2 6zM224 388c-8 0 -18 -25 -18 -41c0 -9 -23 -61 -23 -73c0 -7 -10 -7 -14 -31l2 -2l7 4c5 5 8 7 8 14l-1 8c0 9 11 7 11 23
c0 13 11 16 16 41c0 23 15 33 15 50zM165 231c-8 0 -5 -7 -7 -18c-5 -19 -18 -32 -18 -41c0 -19 -23 -72 -23 -72c-2 0 -4 -3 -4 -5c-8 -27 -15 -39 -15 -48c0 -4 1 -6 3 -6c10 4 0 -3 22 52l-1 2c0 15 4 11 13 32c3 9 7 20 9 20l5 21c5 5 14 45 18 45c4 3 5 6 5 9
c0 2 -1 5 -3 7z" />
    <glyph glyph-name="cent" unicode="&#xa2;" horiz-adv-x="366" 
d="M79 41c2 0 4 10 7 29s7 41 14 66c6 25 16 47 29 66l17 38l-3 3c-7 0 -11 -4 -12 -11c-1 -3 -2 -7 -4 -12c-10 -10 -22 -33 -36 -69l-7 -17c-8 -20 -12 -41 -12 -63c0 -18 2 -28 5 -30h2zM157 82c1 0 2 3 2 8c0 1 -1 2 -2 2l-1 -6zM243 246c2 0 3 1 3 2l-1 3
c-1 -2 -2 -3 -2 -5zM266 337c1 1 3 2 4 3c1 0 1 1 2 2s2 3 3 5c0 1 -1 2 -2 2s-3 -1 -4 -3c-2 -3 -3 -6 -3 -9zM93 -63l2 2l-1 3c-1 -1 -2 -3 -2 -5h1zM231 10l21 12v1l-10 -6c-7 -4 -11 -6 -11 -7zM334 102c0 2 16 19 49 50c5 4 11 9 18 12c-4 -7 -16 -19 -35 -36
c-18 -17 -29 -26 -32 -26zM63 -82c3 1 7 5 12 14c4 9 8 19 11 31l9 22l-4 4l-7 3c-6 -15 -13 -36 -22 -64zM79 -127c-6 0 -13 5 -20 14c-4 5 -6 8 -8 8c-7 0 -11 3 -11 10c0 3 1 6 2 7s2 4 2 7s2 5 5 8c3 2 4 4 4 6c2 8 6 21 13 37c2 9 5 17 9 23l1 2c-4 2 -6 4 -6 7
c-2 4 -4 7 -5 10c-2 3 -4 6 -5 9c-3 6 -5 20 -5 43c14 119 49 197 104 234c12 7 18 15 18 22c0 3 3 4 9 4s11 2 14 5l15 6c2 1 4 1 6 2c1 1 7 2 16 3c1 1 3 1 5 1c4 -1 8 -2 11 -3l9 18c0 1 1 2 3 4c1 1 3 3 4 5c3 8 6 14 9 19s6 10 9 16c6 8 15 23 27 46c0 3 1 6 3 8
c1 2 5 6 11 12c1 -1 1 -2 2 -2c1 -3 3 -4 4 -5s3 -2 6 -2c2 0 5 -1 8 -3c3 -3 5 -6 8 -10s4 -8 4 -11s-1 -6 -2 -8c-1 -3 -3 -6 -5 -9c-3 -3 -6 -9 -10 -16c-4 0 -9 -6 -15 -17c-7 -12 -16 -31 -29 -56c0 -4 -1 -8 -4 -13c5 -6 8 -13 10 -20c2 -12 3 -20 3 -24
c0 -20 -4 -33 -11 -38c-4 -4 -6 -7 -7 -10c-7 -10 -16 -15 -28 -15h-4c-5 0 -10 -1 -13 -3c-3 0 -4 2 -5 7c0 2 1 3 4 3c7 0 13 8 17 24c1 9 2 17 2 26l-3 -3c-7 -7 -10 -14 -10 -23c0 -5 -4 -10 -11 -16c-5 -4 -8 -7 -8 -10s-1 -6 -3 -8c-1 0 -2 -1 -2 -2c0 -2 0 -3 -1 -3
c-1 -1 -2 -1 -3 -1c-1 -1 -3 -1 -4 -2c0 -1 1 -3 4 -4c0 -3 -1 -5 -2 -7c-1 -3 -3 -5 -4 -8c-2 -3 -3 -5 -4 -6c-1 -2 -2 -3 -3 -4s-3 -2 -4 -4l-3 -9s-2 -6 -2 -8s0 -3 -1 -4l-6 -6c-3 -1 -8 -4 -14 -9l-1 -4l7 -8c-3 -8 -6 -14 -9 -17s-8 -11 -13 -22c0 -2 -1 -6 -4 -11
c-8 -15 -14 -23 -16 -23l-2 7c-2 0 -4 -3 -7 -9s-6 -13 -7 -22l1 -2c1 0 2 1 3 3c1 1 2 3 3 6s3 5 4 6v2l1 1l2 -1c0 -3 -1 -5 -2 -8s-3 -6 -5 -9c-3 -3 -5 -7 -7 -11l-4 2c-1 0 -3 -2 -7 -6c5 -3 10 -4 17 -4l20 1c10 1 18 2 25 3c11 2 32 14 62 35c11 7 24 16 39 25
c17 13 26 19 27 19l20 13c-11 -12 -23 -23 -36 -34c-18 -16 -27 -26 -27 -28c0 -1 1 -1 2 -1c6 0 15 5 27 14c1 0 2 0 4 1s5 5 8 10c3 6 6 9 8 9s19 16 53 48c48 44 73 66 77 66c-1 -1 -20 -22 -59 -62c-67 -71 -109 -109 -124 -115c-5 -3 -11 -6 -16 -11s-14 -10 -25 -17
c-2 -1 -3 -3 -3 -4l4 -5l-8 -4l-5 2c-3 0 -4 -1 -4 -2c-3 -3 -9 -4 -19 -4c-33 2 -59 8 -79 18c-1 -3 -2 -7 -3 -13l1 -2l8 10c1 0 1 -1 1 -4c-1 -4 -1 -7 -1 -9c-1 -3 -1 -5 -2 -6s-2 -3 -3 -6s-3 -8 -6 -15c-3 -2 -4 -3 -4 -5c0 -7 0 -13 -1 -17c-1 -1 -1 -3 -1 -5
c-1 -2 -2 -5 -4 -9c-1 -12 -5 -19 -10 -20zM107 9l8 14c5 11 8 18 8 22s3 10 10 20c6 9 11 18 14 27c0 4 7 19 22 46c2 4 3 7 3 8c1 1 1 2 1 3c3 3 6 8 10 16c7 15 11 23 11 24s2 4 6 10c3 5 5 10 5 13s3 9 9 17s12 18 17 31c0 2 1 4 2 6c1 1 2 3 3 4s2 3 2 4s4 8 11 21h-2
l-8 -1c-6 -10 -9 -17 -9 -22c0 -2 -2 -3 -5 -5c0 -1 0 -1 -1 -2l-3 -3c-8 -10 -14 -21 -17 -33c0 -2 -2 -6 -6 -11c-5 -5 -7 -10 -7 -13c0 -4 -2 -8 -5 -12c-4 -5 -7 -9 -8 -14c-1 -1 -3 -3 -5 -6c-7 -10 -10 -17 -10 -21c0 -3 -2 -6 -6 -8l-22 -42c-21 -39 -31 -59 -32 -62
s-2 -7 -3 -10c2 -9 4 -16 7 -21zM98 43l19 46c7 12 13 22 17 29c5 7 13 24 27 51c21 44 37 76 48 95l-9 -8c0 -1 -15 -19 -46 -52c0 -2 -4 -8 -11 -18c-15 -23 -24 -46 -29 -70c-3 -11 -7 -26 -12 -45zM234 -32h-9l6 5h7l1 -1z" />
    <glyph glyph-name="sterling" unicode="&#xa3;" horiz-adv-x="555" 
d="M282 472c-2 -3 -3 -5 -3 -6c-1 -1 -1 -3 -2 -5c2 -1 5 -1 9 -1c3 -1 7 -1 11 -2c9 1 14 3 14 5l-8 2c-13 2 -20 4 -21 7zM270 473c3 1 6 5 10 11s9 14 14 23s9 16 13 22l-2 1c-6 -1 -12 -5 -19 -11c-7 -7 -10 -14 -10 -22c0 -5 -3 -7 -9 -7l-13 7l-10 -18l15 4
c3 0 5 -2 5 -7c1 -1 2 -1 3 -2s2 -1 3 -1zM319 4c2 0 3 1 3 3l-2 3l-3 -3c0 -2 1 -3 2 -3zM315 238l7 3l-1 2c-1 -1 -2 -1 -3 -1c-1 -1 -2 -2 -3 -4zM263 504c3 0 6 3 10 10c3 6 8 11 15 15l-8 6c-2 0 -4 -1 -5 -4c-2 -3 -7 -11 -15 -25zM288 544c9 0 16 4 19 11l-5 6
c-9 -5 -14 -11 -14 -16v-1zM328 561c2 0 4 1 6 2c5 1 7 4 7 8c0 3 -1 5 -2 5s-3 -1 -5 -3s-3 -4 -4 -6s-2 -3 -2 -4v-2zM312 567c2 0 5 2 10 7c5 4 9 9 13 14s6 8 7 10l3 3c1 0 2 1 4 2c1 1 3 3 4 5c1 1 2 3 2 6c-1 0 -4 -2 -9 -6s-10 -9 -15 -14c-6 -6 -11 -11 -15 -16
c-5 -5 -7 -8 -7 -9s1 -2 3 -2zM348 460l2 3c0 4 -6 6 -18 6c-10 0 -15 -1 -15 -2c0 -2 4 -4 13 -5s15 -2 18 -2zM369 16c15 1 31 4 48 7s31 7 43 10c11 3 17 6 17 8c-10 -2 -20 -3 -29 -3c-25 -4 -46 -9 -64 -14l-20 -6zM284 474c1 1 2 2 4 3s10 2 23 2c15 0 29 -1 42 -4
s24 -5 33 -7c9 -3 15 -4 18 -4l1 1c5 0 11 -4 16 -11c5 -8 8 -15 8 -20c0 -3 -1 -5 -4 -6h-69c-3 -1 -7 -2 -10 -2c-7 0 -12 0 -17 -1c-12 -3 -32 -5 -61 -6c4 -8 10 -15 19 -20c23 -17 48 -28 77 -34c21 -5 39 -10 55 -17s24 -18 24 -33c0 -5 0 -9 -1 -11s-3 -3 -8 -3
c-17 0 -63 -44 -138 -131c-3 -9 -7 -14 -14 -14c-1 0 -2 1 -2 3c0 3 4 9 12 16c7 7 11 12 11 15l-2 7l11 9c0 3 -5 5 -16 5c3 3 5 5 8 7c2 2 3 4 3 6s-1 3 -2 3c-4 0 -9 -3 -16 -9s-14 -13 -20 -20s-9 -13 -9 -17l2 -2c7 3 11 6 13 8s5 7 8 14c1 2 6 4 15 5
c0 -7 -4 -12 -13 -16c-5 -2 -11 -7 -16 -16c-3 -6 -6 -9 -9 -9c-1 0 -2 1 -2 3l-3 6c-5 0 -10 -4 -16 -11c-11 -12 -20 -22 -29 -31c-23 -21 -34 -36 -34 -44c0 -1 1 -2 2 -2l6 1c5 1 8 3 8 5s0 3 1 3l3 -2c0 -5 -10 -15 -29 -30c0 6 3 10 9 12c-1 1 -1 3 -1 5
c-1 1 -2 2 -4 2c-7 0 -15 -8 -25 -25c0 -1 0 -2 1 -2h1c0 -1 1 -1 4 -1c5 0 8 -1 8 -2c0 -2 -2 -5 -7 -10c-9 -7 -15 -14 -18 -20c-1 -3 -3 -4 -4 -4c3 7 6 13 9 17c3 3 4 8 4 14c0 1 -1 1 -2 1c-10 -3 -22 -15 -37 -37c-4 -7 -9 -14 -15 -22l9 2c6 0 9 -1 9 -4l-11 -12
l-16 5l-7 -9c0 -2 1 -3 2 -3l14 5l7 -5c8 0 17 7 27 20c7 8 17 17 29 28c4 0 6 2 6 5c2 6 5 10 10 13c5 5 9 10 12 16s5 9 6 9c9 0 27 18 52 55c0 2 4 6 11 13s12 14 17 21c0 3 1 4 4 4c1 0 2 -1 2 -4c0 -5 -6 -14 -18 -28c-5 -6 -11 -13 -18 -20c0 -5 -9 -15 -28 -32
c-15 -15 -23 -24 -24 -27c-3 -3 -5 -6 -8 -11s-16 -18 -37 -41c-9 -7 -14 -12 -14 -16c75 15 134 30 179 43c12 3 40 10 85 19c15 3 35 7 60 13s44 9 55 9c7 0 11 -2 11 -5s3 -7 8 -10c3 -1 5 -3 6 -4c1 -2 3 -9 6 -20c-39 -2 -68 -5 -88 -9l-29 -4c-7 0 -10 -1 -10 -4
s-2 -4 -5 -5c-4 -1 -8 -3 -13 -5l-2 1c-3 3 -8 4 -16 4c-7 0 -11 -2 -11 -5c-3 -5 -14 -9 -33 -11c-15 -3 -22 -6 -22 -7c0 -6 -9 -10 -27 -11c-9 0 -13 -1 -13 -3l-52 -16c-69 -21 -112 -31 -128 -31l-9 -3c-7 5 -10 10 -10 15c-1 4 -3 6 -5 6c-5 0 -8 4 -10 12
c-1 -5 -3 -8 -6 -8c-5 0 -7 3 -7 9c0 4 1 8 2 11s15 21 43 53c3 0 5 2 5 5s11 16 33 39l37 42c15 22 33 42 52 59c15 15 30 31 43 48c0 1 5 7 14 17l29 33c0 2 10 13 31 33c21 19 31 31 31 35c0 3 -15 13 -45 30c-31 17 -46 28 -46 31c-19 22 -30 35 -32 38h-87
c-10 5 -15 13 -15 22l1 21l-1 9c0 7 4 10 12 10l67 -7c5 1 10 2 15 2c3 13 10 26 19 41c3 3 6 8 9 14c5 10 10 15 13 15s11 10 24 30c37 43 64 70 81 79c3 1 7 4 12 7c13 7 28 15 45 23c51 0 85 -9 104 -27c13 -12 19 -22 19 -30c-5 -16 -14 -28 -27 -37s-26 -13 -39 -13
c-3 2 -5 6 -6 11c-1 2 -1 10 -1 23c2 0 5 2 8 5c7 7 10 13 10 20s-2 11 -7 11c-37 -11 -66 -23 -86 -38c-5 -6 -9 -9 -13 -9c-7 -5 -14 -11 -21 -16c-8 -5 -15 -14 -22 -25c-5 -5 -8 -8 -11 -10c-3 -3 -7 -5 -14 -8c-3 0 -5 1 -5 2l5 9c-13 0 -19 -4 -19 -11
c0 -2 4 -4 11 -6c5 0 8 -1 8 -3c-7 -10 -13 -17 -18 -21s-7 -7 -7 -10s-4 -10 -11 -19c-2 -4 -4 -6 -6 -9zM224 122l-4 2l4 5c1 0 2 -1 2 -4v-2c-1 0 -1 0 -2 -1zM237 138c0 2 1 5 4 9c2 3 5 7 8 10s5 4 6 4l3 -2c0 -3 -7 -10 -21 -21zM203 100l-9 1c0 1 1 2 2 4
c1 1 3 3 5 4c1 1 3 2 4 2c3 0 5 -1 5 -4s-2 -6 -7 -7z" />
    <glyph glyph-name="currency" unicode="&#xa4;" horiz-adv-x="435" 
d="M49 -16c-4 0 -6 6 -6 14c0 20 20 63 20 63c10 9 20 47 64 113c-18 44 -23 39 -23 80c5 27 12 71 12 86c-5 29 -69 49 -73 70l-3 18c0 5 3 6 10 7c11 0 34 -18 68 -50c9 -11 20 -20 22 -20c0 0 18 31 34 34c16 8 17 12 21 22l-15 -5c0 2 12 12 28 12c34 0 17 -20 84 -26
c7 0 9 2 14 8c31 42 61 98 86 98c18 0 30 -8 43 -18c-19 -33 -29 -49 -59 -68c-16 -14 -47 -46 -47 -50c0 -5 11 -8 11 -66c0 -36 0 -45 -7 -61c-17 -39 -41 -61 -41 -75c0 -6 23 -45 23 -95l1 -27c0 -16 -3 -14 -11 -20c-2 2 -1 5 -6 5l-8 -2c-3 0 -3 5 -3 21
c-2 36 -16 93 -25 93c0 0 -27 -18 -68 -18c-16 0 -30 0 -30 -2c-43 -51 -77 -85 -86 -112c0 -2 -13 -20 -18 -20zM177 178c16 0 14 4 31 8c7 0 39 20 53 34c18 23 36 68 42 68l2 -3c0 -13 -13 -31 -17 -42l2 -2c11 4 8 6 25 36c3 9 6 24 6 38v9l-3 13c-6 -28 -6 -37 -9 -37
c-6 4 -8 3 -8 24l1 9c0 6 -1 9 -3 9c-10 -10 -5 -4 -19 -12c-5 0 -2 11 -7 11l-3 -1c-5 0 -7 0 -7 5c0 6 14 15 14 23v2c-3 1 -12 2 -22 2l-33 -2c-16 -7 -52 -41 -63 -62c-13 -25 -7 -44 -12 -54c-2 -5 -4 -18 -4 -30c0 -30 10 -46 34 -46z" />
    <glyph glyph-name="yen" unicode="&#xa5;" horiz-adv-x="330" 
d="M22 327l2 2v3c-1 1 -2 2 -4 2c-1 0 -1 -1 -2 -3c0 -3 1 -4 4 -4zM206 167l2 2c0 3 -6 5 -19 5c-5 0 -8 -1 -8 -2s1 -1 3 -2s5 -1 8 -1c3 -1 6 -1 9 -1c3 -1 4 -1 5 -1zM193 108l2 3c0 3 -4 4 -13 4s-14 -1 -14 -2s1 -1 3 -1c2 -1 5 -1 8 -2s6 -1 9 -1c3 -1 4 -1 5 -1z
M40 516c3 1 4 5 4 10c0 2 -1 3 -3 3l-2 -10zM35 484l2 2c1 1 2 2 2 3l2 6c0 5 -2 8 -5 9c-2 0 -3 -3 -3 -10c0 -6 1 -9 2 -10zM20 346c3 1 5 2 7 4c1 1 2 8 2 20l-1 13c0 3 1 6 2 8c1 3 1 8 2 16c1 7 1 15 2 24s1 16 2 23c1 6 1 10 2 12c0 5 -2 8 -5 8c-6 0 -11 -27 -15 -81
c-1 -22 -3 -35 -4 -39c0 -5 2 -8 6 -8zM183 343c-2 0 -3 1 -3 2c1 1 1 2 2 3c0 1 0 2 1 3c0 1 1 1 2 1c3 0 4 -2 4 -5s-2 -4 -6 -4zM166 166c6 1 9 2 9 4c-3 1 -6 1 -9 1v-5zM158 108c3 1 4 2 4 3l-3 1zM158 -57c-14 8 -22 14 -26 17c-12 10 -18 33 -18 69l2 50h-87
c-7 4 -11 9 -11 16c0 10 0 17 -1 21c0 5 3 8 10 8l56 -5c17 0 29 0 35 -1c0 10 0 17 1 20h-77c-7 4 -11 9 -11 15c0 11 0 18 -1 22c0 5 4 8 12 8l54 -5c7 1 17 1 30 1l1 12c4 12 6 23 6 34l6 21l6 32c0 3 -2 5 -6 6c-4 0 -12 -6 -23 -17c-17 -17 -32 -26 -45 -26
c-7 0 -17 5 -28 14c-4 5 -8 8 -12 8c-8 0 -15 10 -20 30c-6 19 -9 40 -9 62c0 12 1 24 4 37c3 12 4 25 4 39c0 13 1 24 2 31s2 15 5 23c2 7 5 21 8 41c1 9 3 17 4 23s1 11 2 15c0 4 0 7 1 10c1 2 1 4 1 5s0 1 1 2c0 1 0 1 1 2c0 0 0 1 1 2c0 1 0 3 1 6l3 9c9 30 17 53 24 69
c6 16 12 28 19 35s15 12 26 15c9 0 16 -3 20 -8l10 -21c0 -8 -3 -13 -8 -14c-8 -3 -14 -13 -20 -30c-1 -3 -2 -6 -3 -8c-2 -3 -7 -15 -15 -38c-7 -19 -13 -41 -18 -66c-5 -21 -8 -33 -11 -37c-2 -4 -4 -19 -7 -43c-9 -49 -13 -90 -13 -124c0 -25 6 -37 18 -37
c11 0 28 14 50 43c3 5 6 10 9 13c2 3 4 5 4 7c2 0 5 4 8 12c5 11 9 16 11 16l1 -1c2 0 5 4 9 13l6 12c21 32 31 50 31 56s2 12 6 17c11 38 20 66 27 85l17 51c0 7 2 15 6 24c11 23 17 41 17 55l14 27c4 4 16 9 36 12c7 0 12 -1 14 -4s4 -8 5 -13s2 -11 4 -18
c0 -7 -6 -20 -18 -41c-7 -13 -15 -28 -22 -45c-6 -12 -10 -25 -14 -40c-2 -11 -3 -16 -5 -16c-5 -13 -9 -24 -14 -33c-7 -13 -11 -25 -11 -37c0 -3 -3 -13 -10 -29c-7 -20 -14 -44 -23 -73c-4 -7 -7 -10 -8 -10s-2 1 -2 4l11 53c0 3 -1 5 -3 5s-4 -5 -7 -15l-5 -10
c-9 -38 -17 -57 -22 -57s-8 -3 -11 -8s-5 -11 -5 -17c0 -3 1 -6 2 -7c1 -2 3 -3 5 -4c1 -1 3 -2 4 -3s2 -3 2 -6l-2 -5c-1 0 -3 1 -5 2c-3 1 -7 3 -12 5c-3 -6 -8 -31 -15 -74c-5 -33 -8 -51 -10 -53c-1 -3 -2 -5 -3 -8c8 -1 12 -2 12 -4l-2 -2c0 -3 4 -5 11 -5c1 1 3 3 4 6
c-5 1 -7 3 -7 4l4 3h5c3 10 5 24 7 42c7 31 11 52 12 62s3 16 4 17c2 2 3 6 3 11c0 8 1 12 4 12c3 6 6 13 8 21c5 14 8 21 9 21l2 -3c0 -6 -1 -12 -3 -18c-1 -1 -3 -4 -5 -9c0 -9 -4 -27 -12 -56l-12 -43l-10 -56c25 0 49 -3 70 -8c7 -1 12 -2 16 -2s8 -3 13 -8
c4 -5 6 -10 6 -14c0 -3 -1 -4 -3 -5h-57l-8 -1c-6 0 -11 0 -15 -1c-7 -1 -16 -2 -29 -3l-1 -14c0 -2 1 -3 3 -3c20 0 41 -3 62 -8c7 -1 12 -2 16 -2s8 -3 13 -8c4 -5 6 -10 6 -14c0 -3 -1 -4 -3 -4h-57c-4 -2 -19 -4 -45 -6l-1 -39c0 -43 2 -70 5 -80l3 -13
c0 -3 -1 -5 -4 -5zM148 108c1 1 2 2 2 5c-7 1 -11 2 -11 4l3 3s5 2 10 2l1 16h-24l-1 -21c3 0 5 -1 5 -2l-2 -2c0 -3 2 -4 6 -5l1 4c3 -3 6 -4 10 -4zM127 23c3 0 5 9 5 28c0 18 1 27 4 27c3 -5 5 -7 6 -7c1 3 2 4 3 5s1 1 1 2c0 0 0 1 1 2l-23 -1l-1 -18c0 -25 1 -38 4 -38
zM141 124l-3 7s1 1 1 2s0 2 1 2s1 0 2 1c3 0 5 -2 5 -7c0 -3 -1 -4 -2 -4c-2 0 -3 -1 -4 -1zM150 177c-4 0 -6 3 -6 10c1 7 3 11 5 11c3 0 4 -3 5 -10c0 -7 -1 -11 -4 -11zM156 229l-2 5l2 9l2 1l2 -6c0 -6 -1 -9 -4 -9zM164 259c-1 0 -2 2 -2 6c0 12 3 21 9 26
c-3 -11 -4 -19 -4 -24s-1 -8 -3 -8z" />
    </font>
</defs>
</svg>
